<?xml version="1.0" standalone="no"?>
<!DOCTYPE svg PUBLIC "-//W3C//DTD SVG 1.1//EN" "http://www.w3.org/Graphics/SVG/1.1/DTD/svg11.dtd" >
<svg xmlns="http://www.w3.org/2000/svg">
<metadata>
Created by FontPrep 20130207 at Tue May 27 21:54:45 2014
 By Woratana N
Copyright (c) 2010 by Bright Side Co.,Ltd. exclusively for Rangsit University. All rights reserved.
</metadata>
<defs>
<font id="ac6e9b90afb21b73dea18ce66d7ad6d1" horiz-adv-x='1024' >
  <font-face 
    font-family="RSU-Light"
    font-weight="300"
    font-stretch="normal"
    units-per-em="2048"
    panose-1="2 0 5 6 4 0 0 2 0 4"
    ascent="1638"
    descent="-410"
    x-height="842"
    cap-height="1122"
    bbox="-1250.33 -993 1827 1976.04"
    underline-thickness="40"
    underline-position="-231"
    unicode-range="U+0020-FB02"
  />
<missing-glyph horiz-adv-x="2048" 
 />
    <glyph glyph-name="uni0E5A" unicode="&#xe2f;&#xe2f;" horiz-adv-x="1024" 
 />
    <glyph glyph-name="uni0E4F.liga" unicode="&#xe4f;&#x22;" horiz-adv-x="1064" 
d="M680 537q53 -53 53 -130t-52 -129q-52 -51 -129 -52q-77 -2 -130 52t-53 130t53 129t129 53t129 -53zM870 409q0 134 -92 226t-225 92t-227 -92q-93 -93 -93 -225t92 -227t226 -95t227 93q92 94 92 228zM883 409q0 -132 -98 -234q-98 -101 -233 -100t-233 98t-98 233
t96 235q98 98 236 97t234 -99t96 -230z" />
    <glyph glyph-name="uni0E24.liga" unicode="&#xe24;&#xe32;" horiz-adv-x="1873" 
d="M1472 1057q91 0 222 -59t131 -279v-1122q0 -23 -23 -23h-73q-23 0 -23 23v1138q0 223 -301 223q-76 2 -139.5 -19t-77.5 -29t-23.5 -7.5t-15.5 9.5t-12.5 19.5t-14.5 24.5t6 25q15 10 41.5 21.5t66.5 23.5t92.5 21.5t143.5 9.5zM981 709v-1108q0 -27 -27 -27h-71
q-27 0 -27 27v1075q0 145 -98 200.5t-238 55.5q-141 0 -252 -53q-16 -10 -21 -14.5t-5 -16.5v-709q0 -14 16 -14h82q27 0 22 -27l-10 -73q-4 -25 -30 -25h-179q-27 0 -26 27v899q0 24 23 39q25 17 138 53t238 37q233 3 349 -103t116 -243z" />
    <glyph glyph-name="uni0E26.liga" unicode="&#xe26;&#xe32;" horiz-adv-x="1871" 
d="M1474 1055q91 0 222 -59t131 -279v-1123q0 -23 -23 -22h-73q-23 0 -23 22v1139q0 223 -301 223q-115 3 -227 -53q-4 -2 -13.5 -2t-15.5 9t-12 19.5t-13 18.5q-10 21 4 31q15 10 41.5 21.5t66.5 23.5t92.5 21.5t143.5 9.5zM989 709v-1110q0 -27 -26 -27h-72q-27 0 -27 27
v1077q0 145 -98 200.5t-238 55.5q-141 0 -252 -53q-16 -10 -21 -14.5t-5 -16.5v-821q0 -27 -27 -27h-178q-27 0 -31 25l-10 73q-4 27 23 27h82q16 0 16 14v787q-1 26 23 39q35 20 143 54.5t233 35.5q233 3 349 -103t116 -243z" />
    <glyph glyph-name="fi" unicode="fi" horiz-adv-x="821" 
d="M347 1137q-32 0 -64.5 -25t-32.5 -84t18.5 -88t42.5 -57h477q16 0 18.5 -7.5t2.5 -23.5v-813q0 -23 -1 -31t-11 -8h-121q-10 0 -11 8t-1 31v754h-363v-758q0 -35 -16 -35h-107q-25 0 -24 23v770h-113q-14 0 -14 12v61q0 16 4 17h123q-35 53 -44.5 115.5t9 114.5t65.5 87
t133 35t136 -18q4 -2 4 -46.5t-15 -44.5q-63 11 -95 11zM809 1122q0 -30 -12 -30h-115q-12 0 -15 6t-3 28v62q0 29 22 29h111q10 0 11 -9.5t1 -27.5v-58z" />
    <glyph glyph-name="fl" unicode="fl" horiz-adv-x="819" 
d="M440 858q17 0 17 -12v-60q0 -18 -17 -18h-135v-731q0 -37 -18 -37h-105q-27 0 -26 25v743h-111q-16 0 -16 16v58q0 14 6 14h123q-69 122 -45 212.5t70 129.5t125 39t149 -20q4 -2 4 -42.5t-15 -46.5q-46 11 -88 11q-43 0 -73.5 -31t-30.5 -106t61 -144h125zM666 1212
q0 25 18 25h111q12 0 14 -6t2 -23v-1169q0 -39 -10 -39h-115q-14 0 -17 7t-3 30v1175z" />
    <glyph glyph-name=".notdef" horiz-adv-x="2048" 
 />
    <glyph glyph-name=".null" 
 />
    <glyph glyph-name="nonmarkingreturn" horiz-adv-x="399" 
 />
    <glyph glyph-name="space" unicode=" " horiz-adv-x="569" 
 />
    <glyph glyph-name="exclam" unicode="!" horiz-adv-x="409" 
d="M254 344h-68q-16 0 -19 5t-5 26l-21 717q0 16 2 26t17 10h102q25 0 21 -32l-21 -723q0 -29 -8 -29zM147 0q-18 0 -22 6t-4 17v90q0 18 16 18h137q18 0 24 -2t5 -12v-88q0 -13 -3 -21t-19 -8h-134z" />
    <glyph glyph-name="quotedbl" unicode="&#x22;" horiz-adv-x="616" 
d="M223 1425q21 0 17 -36l-29 -385q-3 -27 -16 -27h-45q-8 0 -15 37l-29 379q-2 33 9 32h108zM440 977q-10 0 -14 5t-6 24l-27 385q-2 35 15 34h108q10 0 12 -7t0 -27l-30 -381q-3 -33 -15 -33h-43z" />
    <glyph glyph-name="numbersign" unicode="#" horiz-adv-x="942" 
d="M379 760l-64 -281h271l67 281h-274zM856 479q20 0 18 -8l-6 -41q-9 -31 -43 -33h-137l-82 -362q-8 -35 -31 -35h-81q-10 0 -2 33l83 364h-272l-84 -364q-6 -23 -9 -28t-13 -5h-78q-20 0 -13 31l84 366h-159q-12 0 -17 3q-4 3 0 18l6 49q2 10 10 11t29 1h142l67 281h-162
q-22 0 -16 18q2 10 5 22t5 25t8 15t29 2h142l77 344q4 18 10 25t29 8h78q4 0 0 -27l-63 -338l254 -12l79 346q3 16 9 23t22 8h70q14 1 16 -5t-2 -22l-78 -350h148q16 0 21 -2t3 -13l-8 -45q-6 -23 -41 -22h-137l-66 -281h156z" />
    <glyph glyph-name="dollar" unicode="$" horiz-adv-x="1003" 
d="M578 1130q-250 0 -250 -192q0 -84 61 -133t209 -107t237 -148.5t89 -228.5t-85.5 -217.5t-234.5 -105.5v-141q0 -27 -12 -27h-123q-14 0 -19.5 6t-5.5 29v121q-141 4 -221 24.5t-108 38.5q-13 9 -6.5 70.5t20.5 56.5l21 -6q15 -7 98.5 -31t193.5 -24q306 0 306 196
q0 89 -56.5 147t-199.5 115q-66 27 -201 92t-135 273q0 174 119.5 230.5t205.5 66.5v147q0 27 33 27h123q8 0 8 -25v-143q168 -9 227 -33h2q16 -12 5 -62t-33 -54q-132 38 -268 38zM459 -254v43h92v-43h-92z" />
    <glyph glyph-name="percent" unicode="%" horiz-adv-x="1310" 
d="M463 995q0 152 -125 152q-72 0 -99.5 -44t-27.5 -116v-158q0 -55 32.5 -89.5t98.5 -34.5t93.5 37.5t27.5 82.5v170zM1143 354q0 152 -124 152q-73 0 -100.5 -44t-27.5 -114v-160q0 -53 31.5 -87.5t97 -34.5t94.5 38.5t29 79.5v170zM555 813q0 -102 -61 -147t-159 -45
q-97 0 -158.5 47t-61.5 145v203q0 109 61.5 164t165.5 55q144 0 178.5 -75t34.5 -134v-213zM403 0h-75q-18 0 -4 27v-2l600 1167q10 23 18 30t31 7h78q2 0 -9 -19l-602 -1173q-12 -23 -18 -30t-19 -7zM1237 174q0 -102 -61 -147t-160 -45q-98 0 -159.5 47t-61.5 145v201
q0 111 61.5 166t165.5 55q142 0 178.5 -75t36.5 -134v-213z" />
    <glyph glyph-name="ampersand" unicode="&#x26;" horiz-adv-x="1105" 
d="M424 539q-13 12 -25 12t-18 -6t-32.5 -23.5t-82 -73t-55.5 -147.5q0 -93 75 -153t170 -60t166.5 41t78.5 45t11 20t-7 29zM643 924q-1 56 -47 95q-46 40 -114 40t-113 -45t-45 -125t98 -178q20 -28 51 -9q2 2 28.5 18.5t58.5 44.5t57.5 65.5t25.5 93.5zM813 107.5
q0 1.5 -11 1.5t-24 -13h-2l-23 -18q-127 -96 -297 -96q-152 0 -267 85t-115 223q0 164 90 228t110.5 77t32.5 23.5t12 16.5t-57 80.5t-57 156.5q0 141 85 210t195 69t192.5 -64.5t82.5 -170.5q0 -107 -82 -180.5t-120 -97.5t-38 -27t11.5 -17t46.5 -57t71 -82
q55 -66 129 -146l17 -16q2 -6 13 -6t26 20q6 4 11 11t11 14.5t10 14.5t13 7l8 -4l63 -55q2 -2 2 -6l-61 -72q-12 -20 12 -45l137 -152q2 -6 4 -10q0 -10 -10 -10h-102q-12 0 -23 10l-86 88q-10 8 -10 9.5z" />
    <glyph glyph-name="quotesingle" unicode="'" horiz-adv-x="385" 
d="M219 977h-43q-10 0 -18 39q-6 94 -14.5 189t-14.5 190q0 31 10 30h107q20 0 20 -36l-30 -385q-3 -27 -17 -27z" />
    <glyph glyph-name="parenleft" unicode="(" horiz-adv-x="507" 
d="M494 1198q-81 -95 -152 -293q-72 -199 -72 -391t72 -395t141 -279h-2q19 -23 -39 -48q-60 -24 -77 -3q-84 94 -156 294t-72 432q0 233 74 436t164 292q22 22 77 1q56 -21 42 -46z" />
    <glyph glyph-name="parenright" unicode=")" horiz-adv-x="516" 
d="M397 522q0 -232 -72 -434t-155 -299q-23 -18 -63 -2q-40 17 -52 29t-2 24h-2q70 74 142 276t71 402q0 279 -149 565q-39 74 -76 115q-10 12 12 32t60 21q37 2 47 -8q96 -96 168 -293q71 -196 71 -428z" />
    <glyph glyph-name="asterisk" unicode="*" horiz-adv-x="614" 
d="M354 1257q14 0 13 -26l-19 -215l203 86q18 6 18 4l27 -80h-2q8 -12 -21 -16l-211 -52l144 -163v2q14 -14 14 -15l-69 -57q-8 -4 -13 0q-4 4 -14 18h2l-111 187l-114 -189q-10 -18 -2 -24l-78 55q-8 12 6 27l145 166l-215 49q-20 4 -20 6l2 4q4 20 12 40t12 38l-2 -2
q4 12 29 2l199 -82l-17 215q-4 23 2 22h80z" />
    <glyph glyph-name="plus" unicode="+" horiz-adv-x="1003" 
d="M909 545q0 -15 -43 -15h-295v-305q0 -23 -2 -31t-12 -8h-84q-14 0 -17 10t-3 31v303h-314q-20 0 -20 13v80q0 14 6 16t25 2h303v305q0 16 3 22t15 7h80q16 0 18 -7t2 -24v-303h299q39 0 39 -10v-86z" />
    <glyph glyph-name="comma" unicode="," horiz-adv-x="448" 
d="M199 125h131q22 0 18 -10q-23 -97 -81 -179t-130 -133q-10 -6 -20 -2t-1 24q63 140 72 277q4 23 11 23z" />
    <glyph glyph-name="hyphen" unicode="-" horiz-adv-x="661" 
d="M621 508q1 -14 -7 -18t-36 -3h-500q-27 0 -27 15v84q0 12 8 14t25 2h494q43 0 43 -10v-84z" />
    <glyph glyph-name="period" unicode="." horiz-adv-x="448" 
d="M139 127q0 25 13 27h139q23 0 27 -6t6 -15v-92q0 -13 -2 -27t-17 -14h-135q-31 0 -31 35v92z" />
    <glyph glyph-name="slash" unicode="/" horiz-adv-x="632" 
d="M141 0h-108q-14 0 -4 23l438 1085q10 18 16 26t29 7h111q-2 -2 -2 -4l-447 -1104q-10 -21 -16 -27t-17 -6z" />
    <glyph glyph-name="zero" unicode="0" horiz-adv-x="1046" 
d="M786 762q0 154 -52 220t-194 65q-142 0 -194 -68q-51 -68 -51 -227v-418q0 -125 71 -179q71 -55 188 -55t174 56q58 56 58 206v400zM152 784q0 309 235 363q74 16 157 16q182 0 271 -70q111 -87 111 -290v-443q0 -220 -114 -308q-83 -64 -261 -64q-402 0 -399 336v460z
" />
    <glyph glyph-name="one" unicode="1" horiz-adv-x="614" 
d="M352 0q-18 0 -18 35v883q0 31 -10 43t-43 12h-123q-10 0 -15 8v70q1 10 9 15t32 13l131 49q15 4 23 6t27 3h100q10 -1 12 -7t2 -22v-1079q0 -29 -14 -29h-113z" />
    <glyph glyph-name="two" unicode="2" horiz-adv-x="1046" 
d="M764 856q0 188 -246 188q-102 0 -168 -28t-117 -58q-10 -6 -24 15t-14 57t10 43q143 80 329 80q384 0 386 -270q0 -174 -230 -314q-63 -39 -125 -73q-108 -68 -147 -116q-77 -94 -80 -204q0 -35 15 -46t53 -11h481q33 0 33 -6v-107q0 -6 -11 -6h-737q-12 0 -12 16v78
q0 241 210 410q56 45 108 75q52 29 104 61q182 112 182 216z" />
    <glyph glyph-name="three" unicode="3" horiz-adv-x="1005" 
d="M768 1090q94 -72 94 -196t-62 -209t-157 -107q103 -29 165 -106t62 -168q0 -157 -99 -236q-99 -80 -240 -80q-140 0 -233 24t-136 49q-22 13 -13 49q17 70 37 62q143 -70 276 -70q134 0 202 54t68 152q0 97 -78 157q-77 59 -205 70q-27 2 -27 8v71q0 8 9 10t26 3
q125 6 199 64q74 59 73 157q0 98 -69 153t-200 55t-247 -79q-12 0 -21 48t7 61q95 77 285 77q190 -1 284 -73z" />
    <glyph glyph-name="four" unicode="4" horiz-adv-x="921" 
d="M635 332v633l-424 -633h424zM750 229v-225q0 -4 -11 -4h-82q-23 0 -22 10v219h-537q-14 0 -14 7v73q0 17 12 47q257 380 339.5 501.5t135 199.5t64.5 78h108q6 0 7 -15v-788h96q4 0 4 -8v-76q0 -18 -6 -19h-94z" />
    <glyph glyph-name="five" unicode="5" horiz-adv-x="1003" 
d="M229 686v440q0 16 15 17h600q8 0 8 -6v-107q0 -6 -31 -6h-407q-35 0 -47 -3t-13 -32v-213q0 -23 12 -34t94 -23q83 -12 204 -64q88 -45 151 -125t63 -211t-107 -231q-108 -100 -278 -100q-253 0 -343 76q-6 6 -6 40t14 58q14 22 29 15q111 -52 172 -63q274 -50 340 130
q15 41 16 86q0 260 -441 303q-45 4 -45 53z" />
    <glyph glyph-name="six" unicode="6" horiz-adv-x="1026" 
d="M550 657q-136 0 -233 -73q-32 -32 -32 -60v-180q0 -121 63 -174q62 -53 174 -53t171 60q59 59 59 211t-58 210t-144 59zM141 305v488q1 203 95 291t313 90q76 0 163 -18t102 -28q15 -9 8 -50q-7 -40 -15 -56q-9 -16 -21 -12l-37 12q-114 35 -202 35q-160 0 -219 -76
q-43 -56 -43 -188v-82q0 -15 8 -21t49 20q95 60 209 60q156 0 251 -88t95 -286t-77 -290q-87 -106 -278 -106q-283 0 -371 168q-30 57 -30 137z" />
    <glyph glyph-name="seven" unicode="7" horiz-adv-x="1024" 
d="M156 1014q-11 0 -11 12v90q0 18 15 19h698q39 0 29 -29l-375 -1079q-8 -27 -20 -27h-115q-20 0 -17 8l332 940q10 31 12.5 48.5t-30.5 17.5h-518z" />
    <glyph glyph-name="eight" unicode="8" horiz-adv-x="1024" 
d="M750 819q0 123 -66 179t-172 57q-108 -1 -170 -59t-61 -160q0 -102 63 -152q63 -51 170 -51q108 0 172 52t64 134zM508 541q-181 0 -229 -143q-14 -42 -15 -87q0 -104 70 -155q70 -52 186 -52t180 52t64 151q0 100 -66 167t-190 67zM127 285q0 151 128 251q36 28 71 39
q-70 33 -125 104t-55 153q-1 229 203 310q67 26 160 26t165 -26q211 -72 211 -294q0 -89 -68 -169q-68 -79 -149 -99q117 -41 178 -121t61 -165q-1 -85 -29 -138q-87 -162 -356 -162q-395 0 -395 291z" />
    <glyph glyph-name="nine" unicode="9" horiz-adv-x="1042" 
d="M289 766q0 -264 203 -264q134 0 231 76q33 27 33 57v180q0 227 -242 227q-109 0 -167 -60t-58 -216zM533 -14q-70 0 -136 6t-135 19q-70 13 -82 19t-7 39q5 34 23 56q17 22 25 19q8 -4 90 -24q81 -20 175 -20q169 0 227 77q43 57 43 190v94q0 16 -5 19t-13 0t-17 -11
q-100 -80 -211 -81q-365 -3 -365 378q0 194 83 294q83 101 282 99q274 0 362 -168q31 -57 31 -137v-485q0 -102 -22 -175q-45 -142 -201 -186q-78 -22 -147 -22z" />
    <glyph glyph-name="colon" unicode=":" horiz-adv-x="450" 
d="M137 125q0 25 13 27h143q23 0 27 -6t4 -13v-94q0 -11 -2 -25t-17 -14h-133q-35 0 -35 33v92zM322 766q0 -31 -23 -31h-129q-27 0 -27 17v94q0 18 3 27t16 10h131q29 0 29 -29v-88z" />
    <glyph glyph-name="semicolon" unicode=";" horiz-adv-x="462" 
d="M172 129h131q20 0 16 -10q-20 -98 -78 -179t-132 -133q-10 -6 -20 -2q-9 4 -5 13q63 128 76 291q8 20 12 20zM301 860q25 0 25 -24v-91q0 -34 -17 -34h-135q-23 0 -28 7t-5 17v96q0 29 15 29h145z" />
    <glyph glyph-name="less" unicode="&#x3c;" horiz-adv-x="864" 
d="M139 535v88q0 18 9 24t30 17l543 206q31 12 31 4v-83q0 -17 -12 -23t-35 -16l-478 -168l478 -166q25 -10 35 -16t12 -23v-84q0 -8 -33 4l-539 205q-23 6 -32 12t-9 19z" />
    <glyph glyph-name="equal" unicode="=" horiz-adv-x="923" 
d="M801 444q0 -14 -9 -16t-28 -2h-596q-33 0 -33 8v68q0 14 7 16t30 2h600q16 0 22 -2t7 -14v-60zM805 721q0 -14 -8 -16t-29 -3h-600q-16 0 -22 2t-7 15v63q0 10 8 12t29 3h596q33 0 33 -9v-67z" />
    <glyph glyph-name="greater" unicode="&#x3e;" horiz-adv-x="862" 
d="M750 532q0 -12 -10 -16t-31 -14l-541 -205q-31 -12 -31 -4v84q0 16 10 23t37 16l478 166l-478 168q-27 10 -37 15t-10 23v84q0 6 31 -4l543 -206q20 -8 29 -14t10 -27v-89z" />
    <glyph glyph-name="question" unicode="?" horiz-adv-x="720" 
d="M410 143q26 0 26 -14v-88q0 -13 -2 -27t-16 -14h-133q-35 0 -35 35v86q0 23 14 22h146zM668 979q0 -85 -39 -150t-94 -130q-56 -64 -89 -109t-32 -98v-93q0 -20 -17 -20h-112q-10 0 -12 3q-5 16 -5 62q0 103 55 169q31 40 73 86q42 47 84 105t42 142t-48 134t-120 50
t-134 -28t-93 -53q-18 -14 -32 33t9 69q126 84 262 84q138 -1 220 -69t82 -187z" />
    <glyph glyph-name="at" unicode="@" horiz-adv-x="1271" 
d="M479 618v-102q0 -92 36 -152t111 -60t126 58q38 48 41 89v206q1 61 -27 100q-53 77 -137 79q-150 0 -150 -218zM367 563q0 154 58 242q57 88 147 88t139 -33t92 -106v116q0 8 2 9h82q10 0 12 -3t2 -14v-438q0 -45 29 -85q28 -40 92 -40t104 63q40 62 39 192
q0 243 -143 395q-145 151 -374 151t-368 -151t-139 -389q0 -239 141 -382t369 -143q190 1 335 73q27 14 35 -12q8 -25 -15 -39q-158 -71 -374 -71q-122 0 -232 43q-219 86 -298 303q-39 106 -39 231q0 245 167 415q167 171 423 171t417 -162t161 -420q0 -163 -69 -239
t-173 -76q-150 0 -192 115q-70 -121 -215 -121t-197 172q-18 59 -18 145z" />
    <glyph glyph-name="A" unicode="A" horiz-adv-x="962" 
d="M676 360l-193 629l-194 -629h387zM918 0h-115q-12 0 -17 12l-41 127q-18 55 -38 125h-451l-74 -239q-4 -16 -8 -20.5t-14 -4.5h-97q-10 0 -15 3t1 20l338 1060q8 20 16.5 28.5t26.5 8.5h121q20 0 28.5 -8t14.5 -29l338 -1060q6 -16 1 -19.5t-15 -3.5z" />
    <glyph glyph-name="B" unicode="B" horiz-adv-x="987" 
d="M741 295q0 221 -282 221h-137q-31 0 -43.5 -12t-12.5 -41v-320q0 -16 11.5 -33.5t41.5 -17.5h134q143 0 215.5 42t72.5 161zM264 979v-307q0 -29 11.5 -40t43.5 -11h136q143 0 205.5 48.5t62.5 158.5t-69.5 155t-204.5 45h-136q-33 -4 -41 -18.5t-8 -30.5zM143 0
q-12 0 -12 18v1067q0 16 1 25.5t11 9.5h312q205 0 306 -60.5t101 -211.5q0 -102 -59.5 -173t-169.5 -106q123 -40 185.5 -104.5t62.5 -193.5t-87.5 -200t-289.5 -71h-361z" />
    <glyph glyph-name="C" unicode="C" horiz-adv-x="942" 
d="M584 1040q-182 0 -259 -72t-77 -220v-412q0 -129 95 -195q74 -51 188 -51q113 0 177 18t111 39q5 1 17 -33t6 -67q0 -20 -109 -39q-109 -20 -205 -20q-213 0 -318 87t-106 244v447q0 179 86 267q110 112 377 112q197 0 279 -64q8 -8 -9 -49t-30 -41q-35 13 -86 31
t-137 18z" />
    <glyph glyph-name="D" unicode="D" horiz-adv-x="1024" 
d="M774 754q0 141 -80 199t-215 59h-141q-41 0 -50 -12t-9 -42v-790q0 -29 12 -43t55 -14h133q136 0 189 34q53 33 80 83t26 134v392zM918 340q0 -340 -386 -340h-372q-20 0 -21 35v1055q0 31 15 30h323q209 0 309 -68q132 -89 132 -284v-428z" />
    <glyph glyph-name="E" unicode="E" horiz-adv-x="921" 
d="M694 637l6 -8l-10 -84q0 -10 -47 -10h-289q-41 0 -54 -14.5t-13 -45.5v-311q0 -41 18.5 -48t46.5 -7h410q39 0 39 -11v-92q0 -6 -13 -6h-620q-16 0 -16 23v1064q0 33 10 33h459.5t154.5 -4v-94q0 -4 -14 -4h-414q-65 0 -65 -47v-275q0 -35 13 -47t46 -12h352z" />
    <glyph glyph-name="F" unicode="F" horiz-adv-x="821" 
d="M717 1120q24 0 24 -4v-88q0 -12 -36 -12h-369q-66 0 -66 -47v-310q0 -35 14.5 -46t43.5 -11h323q27 0 27 -8l-6 -88q-5 -10 -51 -10h-287q-37 0 -48.5 -13.5t-11.5 -46.5v-430q0 -6 -6 -6h-116q-14 0 -15 25v1065q0 31 10 30h570z" />
    <glyph glyph-name="G" unicode="G" horiz-adv-x="1024" 
d="M252 717v-340q0 -159 63 -225t203 -66t202 45t62 176v150q0 23 -8 39t-45 16l-115 2q-14 0 -14 8v78q0 6 6 6h256q35 0 44 -8t9 -37v-223q0 -62 -9 -124q-20 -136 -158 -195q-76 -31 -210 -31q-249 0 -351 108q-83 88 -85 262v365q0 206 78 297q107 125 385 125
q221 0 330 -82q9 -9 -9 -52q-18 -44 -32 -44q-107 74 -279 74q-172 -1 -247 -71q-76 -70 -76 -253z" />
    <glyph glyph-name="H" unicode="H" horiz-adv-x="1085" 
d="M834 0q-18 0 -19 25v454q0 35 -9 43t-44 8h-434q-29 0 -39 -7t-10 -38v-454q0 -18 -5.5 -24.5t-21.5 -6.5h-102q-12 0 -13 39v1063q0 20 15 20h104q14 0 18.5 -6t4.5 -26v-400q0 -29 15 -40t44 -11h428q49 0 49 49v414q0 20 25 20h102q12 0 14 -4t2 -14v-1073
q0 -18 -2 -24.5t-12 -6.5h-110z" />
    <glyph glyph-name="I" unicode="I" horiz-adv-x="409" 
d="M145 0q-18 0 -18 23v1085q0 10 4 12t21 2h106q14 0 14 -22v-1086q0 -14 -16 -14h-111z" />
    <glyph glyph-name="J" unicode="J" horiz-adv-x="489" 
d="M248 1102q0 20 10 20h107q16 0 21 -6t5 -26v-852q-1 -106 -31 -166t-119 -103t-155 -65q-10 0 -12 8l-37 98q-5 20 23 32q68 30 100 52q59 33 73 81t15 132v795z" />
    <glyph glyph-name="K" unicode="K" horiz-adv-x="1024" 
d="M788 0q-14 0 -32 23l-402 512l-65 -76v-441q0 -18 -15 -18h-108q-14 0 -18.5 6t-4.5 27v1057q0 20 5.5 25t17.5 5h106q12 0 14.5 -4t2.5 -18v-484l436 486q23 20 39 20h131q10 0 10 -2v-4l-448 -493l485 -615q6 -6 -4 -6h-150z" />
    <glyph glyph-name="L" unicode="L" horiz-adv-x="815" 
d="M139 0q-10 0 -11 7t-1 28v1067q0 20 14 20h105q23 0 22 -32v-938q0 -33 10.5 -41.5t38.5 -8.5h426q10 0 11 -6v-88q0 -8 -19 -8h-596z" />
    <glyph glyph-name="M" unicode="M" horiz-adv-x="1249" 
d="M1012 0q-23 0 -28 6t-5 27v831q0 66 -2 69t-31 -50q-109 -174 -170 -270.5t-95.5 -151.5t-39.5 -55h-35q-10 0 -297 493q-31 43 -33 28.5t-2 -63.5v-846q0 -10 -3 -14t-17 -4h-90q-16 0 -25.5 5t-9.5 28v1057q0 20 5 25t18 5h110q20 0 35 -18l305 -479q10 -16 27.5 -17.5
t32.5 19.5h-3q72 117 148 236.5t147 236.5q18 23 35 22h123q10 0 11 -6t1 -18v-1076q0 -20 -16 -20h-96z" />
    <glyph glyph-name="N" unicode="N" horiz-adv-x="1126" 
d="M866 1090q0 30 6 30h111q12 0 12 -33v-1048q0 -39 -22 -39h-96q-29 0 -46 29l-514 815q-39 63 -43 46.5t-4 -99.5v-756q0 -35 -14 -35h-94q-8 0 -15.5 3t-7.5 22v1079q0 16 15 16h96q27 0 32 -3t13 -11l518 -836q35 -55 44 -33.5t9 107.5v746z" />
    <glyph glyph-name="O" unicode="O" horiz-adv-x="1126" 
d="M844 764q0 272 -264 270q-162 0 -224 -69q-61 -70 -61 -209v-414q0 -125 89 -185q72 -51 194 -52t186 49q80 63 80 219v391zM569 1147q418 0 418 -371v-426q0 -233 -154 -312q-92 -48 -259 -48q-168 0 -250 41t-126 102t-44 168v469q0 203 98 290t317 87z" />
    <glyph glyph-name="P" unicode="P" horiz-adv-x="1005" 
d="M342 1018q-35 0 -43 -15.5t-8 -33.5v-394q0 -35 10 -43t45 -8h201q100 0 165.5 60.5t65.5 188.5t-80 186.5t-202 58.5h-154zM143 1102q0 18 19 18h342q223 0 322.5 -86t99.5 -260t-94.5 -266t-303.5 -92h-213q-10 0 -17 -1t-7 -22v-362q0 -20 -4 -25.5t-17 -5.5h-114
q-10 0 -11.5 7t-1.5 20v1075z" />
    <glyph glyph-name="Q" unicode="Q" horiz-adv-x="1128" 
d="M834 772q0 274 -267 272q-162 0 -223 -70t-61 -208v-416q0 -121 83 -179t204 -58q122 0 184 50q80 65 80 218v391zM549 -2q-261 0 -361 144q-43 62 -43 169v467q-1 203 97 291t317 88q299 0 386 -194q32 -72 32 -179v-426q0 -229 -156 -309q49 -65 142 -125
q31 -20 63 -33q8 -2 0 -22l-31 -92q-6 -16 -25 -9q-89 33 -212 147q-43 40 -80 87q-86 -4 -129 -4z" />
    <glyph glyph-name="R" unicode="R" horiz-adv-x="1026" 
d="M289 969v-322q0 -37 10 -45t45 -8h203q100 0 165.5 51t65.5 158q0 167 -113.5 192t-170.5 25h-158q-47 -6 -47 -51zM315 485q-26 0 -26 -32v-422q0 -18 -4 -24.5t-17 -6.5h-114q-10 0 -11.5 7t-1.5 24v1071q0 10 3 15t16 5h342q217 0 319.5 -83t102.5 -236
q0 -105 -66.5 -181.5t-138.5 -93.5q-16 -6 -26.5 -8t-16 -6.5t11.5 -40.5l232 -448q12 -25 4 -25h-133q-10 0 -14.5 7t-14.5 26l-215 424q-10 18 -18.5 23t-28.5 5h-185z" />
    <glyph glyph-name="S" unicode="S" horiz-adv-x="942" 
d="M536 1044q-129 0 -185 -48t-56 -126t60 -125t186 -92q319 -125 319 -337q0 -185 -133 -263q-106 -63 -272 -63q-286 0 -363 61q-13 4 -8 62q5 57 20 53q146 -57 304 -57q297 0 294 184q0 85 -54 136t-155 91t-157 68q-188 95 -189 284q0 122 98 199q98 78 296 78t286 -35
q26 -19 -10 -91q-8 -15 -18 -15q-134 36 -263 36z" />
    <glyph glyph-name="T" unicode="T" horiz-adv-x="919" 
d="M864 1120q19 0 19 -8v-90q0 -6 -13 -6h-278q-39 0 -51.5 -8.5t-12.5 -42.5v-932q0 -20 -3 -26.5t-15 -6.5h-109q-10 0 -11 4t-1 21v940q0 35 -11 43t-48 8h-277q-14 0 -14 6v90q0 8 24 8h801z" />
    <glyph glyph-name="U" unicode="U" horiz-adv-x="976" 
d="M484 -14q-252 0 -348 172q-36 63 -36 161v789q0 18 6 18h111q23 0 23 -28v-719q0 -133 68 -205t162 -72q160 0 216 71q55 71 55 210v725q0 18 7 18h114q18 0 19 -28v-752q0 -117 -37 -188q-70 -134 -224 -160q-70 -12 -136 -12z" />
    <glyph glyph-name="V" unicode="V" horiz-adv-x="1093" 
d="M602 0h-119q-33 0 -39 20l-348 1078q-4 16 0 20t15 4h114q10 0 13.5 -5t7.5 -21l303 -965l303 965q8 27 14 26h107q16 0 14 -6l-348 -1096q-6 -20 -37 -20z" />
    <glyph glyph-name="W" unicode="W" horiz-adv-x="1533" 
d="M956 0q-16 0 -21 5t-9 18l-164 505l-184 -508q-4 -12 -8.5 -16t-18.5 -4h-121q-25 0 -33 23l-344 1075q-6 18 -1 21t16 3h112q14 0 23 -14q4 -12 12 -40t26.5 -86t51.5 -165.5t85 -272.5t126 -405l198 566l-129 393q-6 18 -0.5 21t15.5 3h114q14 0 25.5 -41t30 -100
t52.5 -167.5t86 -275.5t128 -409l305 967q6 26 27 26h92q16 0 16 -6l-348 -1098q-7 -18 -31 -18h-129z" />
    <glyph glyph-name="X" unicode="X" horiz-adv-x="1064" 
d="M868 0q-29 0 -55 43l-276 410l-308 -410q-20 -29 -27 -36t-18 -7h-108q-6 0 -11.5 3t3.5 13q94 135 150 216q182 261 226 337q-86 127 -182 269t-142 208t-44 70t6 4h123q16 0 26.5 -8t32.5 -37l279 -407l274 407q18 29 28.5 37t33.5 8h98q4 0 6 -4t-2 -8l-363 -535
l383 -557q6 -10 0 -13t-10 -3h-123z" />
    <glyph glyph-name="Y" unicode="Y" horiz-adv-x="985" 
d="M565 14q0 -14 -18 -14h-117q-10 0 -10 10v455l-369 645q-6 12 6 12h123q14 0 27 -22l285 -498l307 510q4 10 26 10h95q20 0 10 -14l-180 -320q-35 -59 -67 -117.5t-75 -133t-43 -80.5v-443z" />
    <glyph glyph-name="Z" unicode="Z" horiz-adv-x="921" 
d="M877 10q0 -10 -25 -10h-786q-8 0 -9 4v43q-1 10 227 372q228 361 375 595h-536q-47 0 -43 20v78q5 10 22 10h738q8 0 8 -6v-41q0 -17 -600 -966h590q39 0 39 -7v-92z" />
    <glyph glyph-name="bracketleft" unicode="[" horiz-adv-x="514" 
d="M442 1290q21 0 21 -10v-84q0 -10 -21 -10h-118q-35 0 -45 -12t-11 -41v-1127q0 -31 12 -41t44 -10h127q12 0 12 -12v-86q0 -8 -19 -9h-299q-23 0 -22 21v1405q0 10 3 13t17 3h299z" />
    <glyph glyph-name="backslash" unicode="\" horiz-adv-x="630" 
d="M131 1141q23 0 30 -7t15 -26l440 -1085q10 -23 -4 -23h-108q-19 0 -35 33l-440 1091q-6 16 8 17h94z" />
    <glyph glyph-name="bracketright" unicode="]" horiz-adv-x="514" 
d="M66 1282q0 10 18 10h299q16 0 19 -3t4 -13v-1405q0 -20 -25 -21h-299q-16 0 -16 9v86q0 12 10 12h127q31 0 43 10t12 41v1127q0 29 -10 41t-45 12h-119q-18 0 -18 10v84z" />
    <glyph glyph-name="asciicircum" unicode="^" horiz-adv-x="614" 
d="M506 942q-12 0 -25 33l-166 387l-165 -385q-6 -16 -10.5 -25.5t-16.5 -9.5h-57q-8 0 -3 19l189 430q16 35 22 34h72q16 0 27 -30l194 -434q6 -18 -4 -19h-57z" />
    <glyph glyph-name="underscore" unicode="_" horiz-adv-x="817" 
d="M827 -129q0 -16 -7 -19t-36 -4h-749q-25 0 -25 15v35q0 14 7 16t24 2h741q23 0 34 -1t11 -11v-33z" />
    <glyph glyph-name="grave" unicode="`" horiz-adv-x="614" 
d="M459 1106h-58q-17 0 -39 27l-215 221q-10 10 0 10h121q14 0 37 -25l154 -223q4 -6 2 -7t-2 -3z" />
    <glyph glyph-name="a" unicode="a" horiz-adv-x="825" 
d="M391 784q-205 0 -205 -295v-139q0 -131 51.5 -207.5t148.5 -76.5t156.5 68.5t59.5 117.5v301q0 79 -37 129.5t-76.5 76t-97.5 25.5zM637 0q-10 0 -14.5 4t-4.5 23v75q-36 -63 -112 -90.5t-144 -27.5q-138 0 -228.5 105t-90.5 321q0 215 76 335.5t215 120.5
q106 0 164 -30.5t120 -106.5v92q0 20 9 21h94q23 0 26 -6.5t3 -22.5v-770q0 -23 -2.5 -33t-18.5 -10h-92z" />
    <glyph glyph-name="b" unicode="b" horiz-adv-x="940" 
d="M688 489q0 297 -205 295q-102 0 -162 -87q-46 -64 -49 -144v-301q0 -49 42 -96q80 -91 175 -91q96 1 148 77q51 77 51 208v139zM145 0q-16 0 -18 10t-2 33v1110q0 17 3 23t26 6h86q4 0 10 -8t6 -19v-426q61 76 121 107q61 30 166 30q139 0 214 -121t75 -336t-93 -321
q-92 -106 -219 -105q-128 1 -207 60q-37 25 -57 59v-75q0 -19 -4 -23t-14 -4h-93z" />
    <glyph glyph-name="c" unicode="c" horiz-adv-x="823" 
d="M221 502v-162q0 -136 67 -201t185 -65t191 112q12 28 62 4t40 -47q-86 -159 -298 -159q-106 0 -177 20q-222 62 -220 414q1 353 228 427q74 24 168 23q209 0 299 -114q2 -4 -24 -24t-53 -35t-32 -9q-63 98 -192 96q-104 0 -174 -66t-70 -214z" />
    <glyph glyph-name="d" unicode="d" horiz-adv-x="909" 
d="M434 784q-205 0 -205 -295v-139q0 -131 51.5 -207.5t148.5 -76.5t156.5 68.5t59.5 117.5v301q0 79 -37 129.5t-76.5 76t-97.5 25.5zM680 0q-10 0 -14 4t-4 23v75q-32 -62 -109 -90t-145 -28q-137 0 -229.5 104.5t-92.5 320.5t76 336.5t215 120.5q106 0 166 -31.5
t119 -105.5v432q0 20 8 21h94q23 0 26 -6.5t3 -22.5v-1110q0 -23 -2.5 -33t-18.5 -10h-92z" />
    <glyph glyph-name="e" unicode="e" horiz-adv-x="921" 
d="M104 420q0 452 365 452q172 0 261 -85t89 -242v-101q0 -25 -7 -38t-42 -13h-526q0 -166 75 -237.5t193 -71.5q184 0 268 33q29 10 29 -2v-72q0 -24 -104 -39.5t-187 -15.5q-213 0 -313.5 99t-100.5 333zM250 526q0 -33 5 -42t38 -9h350q29 0 34 10.5t5 38.5
q-2 129 -51 198t-161 69t-166 -74t-54 -191z" />
    <glyph glyph-name="f" unicode="f" horiz-adv-x="565" 
d="M473 817q16 0 16 -10v-57q0 -16 -16 -17h-135v-698q0 -35 -19 -35h-90q-27 0 -26 23v710h-111q-18 0 -18 15v55q0 14 8 14h119q-68 138 -40.5 217.5t75 112.5t133.5 33t139 -17q2 -4 2 -17t-5 -40t-13 -27q-63 11 -94 11t-72 -30t-41 -101t63 -142h125z" />
    <glyph glyph-name="g" unicode="g" horiz-adv-x="882" 
d="M418 803q-100 0 -154 -82t-53 -217v-137q-2 -129 48 -205t151 -76t159 65q53 55 56 107l2 317q0 82 -37 131q-72 97 -172 97zM651 860h99q16 0 19 -10t3 -29l-4 -698q0 -250 -75 -353q-75 -102 -247 -102t-251 23q-9 4 -29 10t-21 16v70q0 12 15 8q163 -39 266 -41
q104 -2 157 65q52 67 56 220q0 4 -1 20t-1 76q-83 -110 -203 -128q-39 -5 -92 -5q-122 0 -198 102q-78 109 -77 327q1 219 73 337t206 119q96 1 143 -17q84 -31 152 -116q0 106 10 106z" />
    <glyph glyph-name="h" unicode="h" horiz-adv-x="903" 
d="M553 862q238 0 238 -262v-547q0 -53 -15 -53h-106q-16 0 -17 39v522q0 74 -42 130.5t-141 56.5t-156.5 -67.5t-57.5 -143.5v-500q0 -37 -10 -37h-105q-12 0 -15 7t-3 30v1096q0 30 18 30h105q12 0 12 -30v-416q63 76 129 110.5t166 34.5z" />
    <glyph glyph-name="i" unicode="i" horiz-adv-x="370" 
d="M154 0q-27 0 -33 13.5t-6 47.5v725q0 29 7 41.5t36 12.5h51q37 0 43 -11.5t6 -42.5v-725q0 -35 -5 -48t-34 -13h-65zM139 1030q-16 0 -21 5t-5 30v65q0 18 5 26.5t25 8.5h99q12 0 14 -4t2 -12v-88q0 -20 -2 -25.5t-12 -5.5h-105z" />
    <glyph glyph-name="j" unicode="j" horiz-adv-x="471" 
d="M334 1165q16 0 16 -14v-86q0 -19 -2 -25t-12 -6h-98q-18 0 -24 5q-5 5 -5 28v68q0 16 5 23t26 7h94zM209 805q0 33 27 35h92q20 0 20 -33v-969q0 -87 -26 -122q-46 -64 -127 -64q-82 0 -162 22q-4 2 -4 36t16 50q50 -10 88 -10q76 0 76 115v940z" />
    <glyph glyph-name="k" unicode="k" horiz-adv-x="817" 
d="M758 2q0 -2 -6 -2h-125q-8 0 -15.5 8t-29.5 31l-330 381v-379q0 -23 -1 -32t-11 -9h-90q-29 0 -29 39v1114q0 29 22 29h90q14 0 16.5 -6.5t2.5 -22.5v-694l321 354q31 31 43 31h115q4 -4 8 -4t0 -4l-358 -398l377 -432v-4z" />
    <glyph glyph-name="l" unicode="l" horiz-adv-x="307" 
d="M109 0q-16 0 -21 5q-4 5 -4 28v1124q0 23 22 23h93q14 0 16 -6t2 -23v-1114q0 -23 -1 -30t-11 -7h-96z" />
    <glyph glyph-name="m" unicode="m" horiz-adv-x="1370" 
d="M1024 860q100 0 163.5 -56t63.5 -204v-547q0 -53 -14 -53h-100q-14 0 -17.5 8t-3.5 29v524q0 88 -35.5 137.5t-126.5 49.5t-145.5 -62.5t-54.5 -120.5v-512q0 -53 -17 -53h-104q-14 0 -15 37v524q0 187 -167 187q-103 0 -151 -63.5t-48 -147.5v-496q0 -23 -1 -32t-11 -9
h-93q-29 0 -28 39v774q0 29 22 29h95q12 0 15 -15t3 -90q61 78 123.5 100.5t142.5 22.5t131 -29.5t92 -121.5q110 151 281 151z" />
    <glyph glyph-name="n" unicode="n" horiz-adv-x="892" 
d="M541 860q235 0 235 -260v-547q0 -53 -16 -53h-96q-23 0 -23 37v524q0 74 -42 129t-145 55t-156.5 -65.5t-53.5 -142.5v-496q0 -23 -2 -32t-15 -9h-92q-27 0 -26 39v774q0 29 20 29h94q12 0 16.5 -22.5t4.5 -100.5q107 141 297 141z" />
    <glyph glyph-name="o" unicode="o" horiz-adv-x="925" 
d="M702 514q0 121 -52 197.5t-168 76.5t-185.5 -66.5t-69.5 -213.5v-162q0 -137 67.5 -204.5t176.5 -67.5t170 78.5t61 214.5v147zM467 -10q-201 0 -293 96t-92 338q0 352 150.5 400t242.5 48q180 0 273.5 -103t93.5 -331q0 -448 -375 -448z" />
    <glyph glyph-name="p" unicode="p" horiz-adv-x="884" 
d="M682 502q0 135 -53 217t-153 82t-154 -69t-56 -157v-321q0 -46 60 -108t157 -62q96 0 148 76q51 76 51 205v137zM254 -293q0 -33 -10 -33h-99q-16 0 -20 8t-4 25v1114q0 19 3 29t19 10h88q23 0 23 -24v-99q63 88 136 117t161 29q133 0 204 -119t71 -334t-82 -330
q-72 -100 -218 -100q-76 0 -143 26q-66 26 -129 99v-418z" />
    <glyph glyph-name="q" unicode="q" horiz-adv-x="901" 
d="M225 365q0 -281 207 -281q90 0 148 57q59 57 59 107v325q0 142 -114 205q-40 23 -97 23q-98 0 -150 -83t-53 -216v-137zM664 -328q-8 0 -9 17v426q-82 -102 -208 -112q-37 -3 -89 -3q-194 0 -257 237q-21 83 -21 193q1 319 173 421q55 32 109 32q115 -1 152 -15
q72 -28 141 -108v76q0 23 15 22h92q18 0 21 -6t3 -21v-1134q0 -13 -4 -19t-20 -6h-98z" />
    <glyph glyph-name="r" unicode="r" horiz-adv-x="512" 
d="M481 854q6 0 6 -8l-4 -86q-1 -8 -41 -8t-110 -36t-109 -84t-39 -95v-496q0 -23 -1 -32t-11 -9h-92q-16 0 -21.5 9t-5.5 30v774q0 14 3 21.5t18 7.5h94q18 0 18 -21v-135q124 168 295 168z" />
    <glyph glyph-name="s" unicode="s" horiz-adv-x="684" 
d="M399 788q-178 0 -178 -126q0 -47 52 -85t151 -88t139 -97q72 -84 72 -170q0 -85 -26 -128q-50 -83 -162 -100q-52 -8 -142 -8t-161 17t-85 25q-28 17 -13 83q3 12 11 10q110 -43 240 -43q197 0 199 137q0 59 -48 104t-143 91q-94 46 -157 100q-62 53 -62 151t84 154
q84 55 196 55q168 0 246 -26q8 -8 -3 -45t-23 -37q-108 26 -187 26z" />
    <glyph glyph-name="t" unicode="t" horiz-adv-x="561" 
d="M330 -8q-180 0 -180 192v564h-107q-6 0 -6 12v61q0 14 16 15h105v184q0 12 9 14t23 6l76 17q20 4 21 -19v-202h188q18 0 19 -17v-61q0 -12 -21 -13h-180v-552q0 -53 25.5 -82t73.5 -29t87 10q13 0 13 -41t-7 -41q-60 -18 -155 -18z" />
    <glyph glyph-name="u" unicode="u" horiz-adv-x="923" 
d="M386 -16q-268 0 -267 258v563q0 37 18 37h99q23 0 22 -39v-522q0 -76 40 -130.5t142 -54.5t157.5 66t55.5 143v496q0 23 2 32t15 9h92q25 0 24 -39v-774q0 -29 -18 -29h-94q-21 0 -21 113q-74 -80 -137.5 -104.5t-129.5 -24.5z" />
    <glyph glyph-name="v" unicode="v" horiz-adv-x="860" 
d="M459 0h-92q-31 0 -41 31l-283 803q-2 8 16 8h101q18 0 24 -25l250 -692q29 76 61.5 164t98.5 259t85 223t24.5 61.5t13.5 9.5h84q6 0 6 -3t-2 -10l-305 -794q-8 -23 -16.5 -29t-24.5 -6z" />
    <glyph glyph-name="w" unicode="w" horiz-adv-x="1148" 
d="M815 0h-76q-31 0 -39 33l-120 434l-154 -432q-10 -23 -18.5 -29t-24.5 -6h-72q-32 0 -41 33l-229 786q-8 25 8 25h98q16 0 25 -27l195 -717l159 504l-67 232q-2 8 14 8h96q16 0 27 -27l195 -721l204 721q6 27 25 27h80q8 0 6 -6.5t-6 -24.5l-244 -778q-8 -23 -17.5 -29
t-23.5 -6z" />
    <glyph glyph-name="x" unicode="x" horiz-adv-x="778" 
d="M610 0q-23 0 -31 9t-24 36l-168 279l-199 -283q-16 -27 -24 -34t-23 -7h-98q-6 0 12 27l264 389l-258 411q-10 16 2 17h117q16 0 43 -43l168 -279l172 279q23 43 45 43h92q14 0 5 -17l-250 -391l256 -409q16 -27 6 -27h-107z" />
    <glyph glyph-name="y" unicode="y" horiz-adv-x="839" 
d="M319 -328h-59q-10 0 -6 6l115 302l-326 858q-4 6 16 6h113q10 0 16 -19l244 -665l246 655q11 29 31 29h84q8 0 6 -13l-441 -1130q-15 -29 -39 -29z" />
    <glyph glyph-name="z" unicode="z" horiz-adv-x="794" 
d="M111 0q-37 0 -39 16t8 29l446 715h-420q-12 0 -17 1t-5 11v59q0 10 16 11h578q14 0 25 -5t4 -20l-461 -735h469q14 0 19 -2t5 -12v-56q0 -12 -18 -12h-610z" />
    <glyph glyph-name="braceleft" unicode="{" horiz-adv-x="614" 
d="M532 -145q0 -4 -12 -5h-94q-86 0 -138 52t-42 168q4 68 12 138t13 140q5 72 -50 126t-139 69h-2q-2 0 -2 4v96q0 4 2 4h2q81 13 137 65q55 52 51 126l-24 239q-8 95 39 155t157 60h82q8 0 8 -8v-88q0 -6 -8 -6h-37q-47 0 -83 -31t-31 -96l26 -264q4 -68 -49 -117
q-53 -50 -125 -59q-6 -1 -6 -21t6 -20q70 -13 124 -72t50 -129q-4 -71 -11 -143t-12 -141q-4 -69 24 -105t79 -35h47q6 0 6 -6v-96z" />
    <glyph glyph-name="bar" unicode="|" horiz-adv-x="589" 
d="M365 -406q0 -24 -11 -24h-88q-16 0 -22 5t-6 28v1595q0 16 4 22t22 7h92q8 0 9 -31v-1602z" />
    <glyph glyph-name="braceright" unicode="}" horiz-adv-x="616" 
d="M111 -150q-12 0 -13 5v98q0 4 6 4h48q49 0 77.5 36.5t24.5 106.5t-11 140t-11 122q-6 87 48 146t126 74q6 0 5 20.5t-5 20.5q-73 8 -126 60t-49 116l25 264q4 66 -31 96.5t-82 30.5h-37q-8 0 -8 6v88q0 8 8 8h82q111 0 158 -59t37 -156q-4 -59 -11.5 -119.5t-11.5 -109.5
q-7 -80 49 -134t138 -67h2l2 -4v-96q0 -2 -2 -4h-2q-82 -14 -137.5 -68.5t-49.5 -130.5l23 -274q10 -115 -41 -167.5t-137 -52.5h-94z" />
    <glyph glyph-name="asciitilde" unicode="~" horiz-adv-x="714" 
d="M477 389q-33 1 -61 17t-55 34t-55 34t-62 18q-34 0 -68 -25q-35 -25 -51 -53l-64 32q22 55 73 105q51 49 94 49q44 0 72 -15t80 -49t99 -34t75 27q28 28 46 61l70 -27q-35 -72 -81 -123t-112 -51z" />
    <glyph glyph-name="nonbreakingspace" unicode="&#xa0;" horiz-adv-x="509" 
 />
    <glyph glyph-name="exclamdown" unicode="&#xa1;" horiz-adv-x="555" 
d="M231 602h80q23 0 27 -6t6 -35l27 -846q0 -20 -3 -33t-26 -14h-121q-20 0 -25 10t-3 33l26 852q0 39 12 39zM356 1010q25 0 30 -8t5 -25v-105q0 -27 -20 -26h-164q-23 0 -30 4t-7 20v103q0 16 5 26t26 11h155z" />
    <glyph glyph-name="cent" unicode="&#xa2;" horiz-adv-x="854" 
d="M252 542.5q0 -220.5 62.5 -314t199.5 -115.5v698q-262 -48 -262 -268.5zM559 -233h-45v215q-193 12 -304.5 143t-111.5 336.5t113 338t303 144.5v213h45v-215q182 -10 254 -37v-110q-114 14 -254 18v-700q169 5 254 18v-102q-91 -38 -254 -47v-215z" />
    <glyph glyph-name="sterling" unicode="&#xa3;" horiz-adv-x="1122" 
d="M989 150v-142q0 -35 -198 -35q-53 0 -124 7.5t-148 15.5q-178 18 -349 -10q-10 -4 -11 8t3 31q108 299 117 591h-138q-33 0 -32 19v80q0 20 8 23t30 3h127q-10 68 -22 141.5t-12 155.5q0 175 108.5 283.5t313.5 108.5t331 -97q8 -8 8 -32.5t-7.5 -70.5t-24.5 -38
q-127 90 -266 90q-277 0 -277 -281q0 -43 31 -260h213q29 0 42 -2t13 -16v-80q0 -16 -9 -21.5t-42 -5.5h-215q-6 -239 -70 -415q-14 -52 29 -59t73.5 -6t59.5 1l180 -8q143 0 248 35l-2 -2q10 4 11 0t1 -12z" />
    <glyph glyph-name="currency" unicode="&#xa4;" horiz-adv-x="1351" 
d="M1049 561q0 74 -28 139.5t-76 113.5t-113.5 76t-139.5 28t-138.5 -28t-113.5 -76t-76.5 -113.5t-27.5 -139.5t27.5 -138.5t76.5 -113.5t113.5 -76.5t138.5 -27.5t139.5 27.5t113.5 76.5t76 113.5t28 138.5zM238 561q0 151 100 287l-158 156l70 67l158 -153
q127 98 283.5 98t285.5 -98l160 153l69 -67l-157 -156q100 -134 100 -285t-100 -287l157 -157l-71 -72l-158 160q-138 -103 -284.5 -103t-284.5 103l-158 -158l-70 70l158 157q-100 134 -100 285z" />
    <glyph glyph-name="yen" unicode="&#xa5;" horiz-adv-x="1196" 
d="M705 375h169q25 0 37.5 -1t12.5 -12v-73q0 -16 -8.5 -20.5t-38.5 -4.5h-172v-246q0 -18 -21 -18h-143q-14 0 -15 14v250h-182q-31 0 -31 19v67q0 18 8.5 21.5t24.5 3.5h180v166l-389 757q-2 4 6 5h162q12 0 17.5 -5.5t15.5 -21.5l285 -578q0 5 57 110t97 179t93 167.5
t64 116.5q12 23 17 27.5t22 4.5h104q10 0 10 -2.5t-4 -12.5l-378 -749v-164z" />
    <glyph glyph-name="brokenbar" unicode="&#xa6;" horiz-adv-x="532" 
d="M213 1425h121v-690h-121v690zM213 336h121v-832h-121v832z" />
    <glyph glyph-name="section" unicode="&#xa7;" horiz-adv-x="1140" 
d="M442 580q-54 -50 -55 -124q0 -74 68 -134q75 -70 168 -74q94 -4 145 37t51 129t-58 146q-58 59 -162 65q-103 6 -157 -45zM643 1190q-215 0 -215 -162q0 -82 138 -163q40 -25 93 -55q145 -83 212 -150q98 -98 98 -213t-67 -186t-159 -97q207 -152 207 -301t-110 -224
t-256 -75q-217 0 -338 65q-12 4 -9 64q3 61 21 61q47 -16 115 -36q69 -20 179 -19q110 0 169 48t59 122t-61 134q-61 59 -149 103t-144 76q-189 107 -186 267q0 101 91 173t224 80q-134 78 -189 129q-108 99 -108 182q0 144 110 219t254 76q245 2 302 -30q6 -2 6 -36
t-14 -63q-14 -30 -21 -32q-137 43 -252 43z" />
    <glyph glyph-name="dieresis" unicode="&#xa8;" horiz-adv-x="681" 
d="M219 1309q25 0 25 -29v-100q0 -23 -19 -23h-106q-16 0 -20.5 2t-4.5 12v109q0 12 2 20.5t15 8.5h108zM498 1157q-33 0 -33 29v102q0 20 14 21h109q16 0 20 -4.5t4 -14.5v-106q0 -27 -14 -27h-100z" />
    <glyph glyph-name="copyright" unicode="&#xa9;" horiz-adv-x="1507" 
d="M547 770q0 104 60 161q60 58 193 58t183 -35q10 -5 -2 -29t-14 -24q-25 11 -55 21t-104 10q-170 0 -171 -170v-244q0 -147 172 -147q72 0 164 35q6 0 6 -29t-4 -29q-50 -31 -174 -32q-125 -2 -190 50t-64 140v264zM780 1257q-130 0 -242 -46q-231 -95 -328 -315
q-48 -110 -48 -239q0 -254 179 -429t441 -175q261 0 440 175t179 431t-180 426q-84 80 -198 126t-243 46zM780 2q-143 0 -268 51q-252 103 -362 348q-54 119 -54 255t54 255q108 242 362 346q125 51 268 51q142 0 268 -50q126 -52 219 -140t146 -207t53 -255t-53 -255
q-107 -241 -364 -348q-126 -51 -269 -51z" />
    <glyph glyph-name="ordfeminine" unicode="&#xaa;" horiz-adv-x="819" 
d="M555 901q-111 -86 -200 -86q-88 0 -149 53.5t-61 135.5t53.5 134t176.5 52h180v65q0 145 -141 146q-123 0 -209 -8v53q92 33 201 33q110 0 174.5 -48.5t64.5 -152.5v-350q0 -56 47 -56h51v-32q-31 -20 -75 -20t-73.5 23t-39.5 58zM416 1133q-176 0 -176 -125
q0 -41 36.5 -78t114.5 -37t164 53v187h-139z" />
    <glyph glyph-name="guillemotleft" unicode="&#xab;" horiz-adv-x="1003" 
d="M518 0h-139l-303 463l303 463h139l-303 -463zM956 0h-141l-303 463l303 463h141l-303 -463z" />
    <glyph glyph-name="logicalnot" unicode="&#xac;" horiz-adv-x="1196" 
d="M967 270v459h-842v133h975v-592h-133z" />
    <glyph glyph-name="registered" unicode="&#xae;" horiz-adv-x="1507" 
d="M688 924q-29 0 -35 -12t-6 -27v-178q0 -27 9 -33t32 -6h115q55 0 91 30t36 99q0 127 -150 127h-92zM1042 328h-75q-17 0 -17 12l-166 248q-12 18 -48 18h-85q-4 0 -4 -22v-246q0 -8 -2 -8h-82q-6 0 -6 8v635q0 6 6 6h223q122 0 180 -51q58 -52 58 -128t-39 -116t-74 -52
q-35 -10 -39 -16t15 -32l162 -250q5 -6 -7 -6zM770 1255q-261 0 -439 -173q-179 -173 -179 -429q0 -255 180 -429q180 -173 438 -173q129 0 243 46q113 46 197 127q178 173 181 427q0 129 -49 240q-97 223 -329 318q-114 46 -243 46zM770 0q-143 0 -268 51
q-253 103 -363 346q-53 119 -53 255t53 255t145 208t218 140q125 51 268 51t268 -50q254 -105 365 -349q53 -119 53 -255t-53 -255t-147 -207t-218 -139q-125 -51 -268 -51z" />
    <glyph glyph-name="macron" unicode="&#xaf;" horiz-adv-x="681" 
d="M684 1167h-670v113h670v-113z" />
    <glyph glyph-name="degree" unicode="&#xb0;" horiz-adv-x="811" 
d="M413.5 1524q55.5 0 104.5 -21.5t86 -57.5t57.5 -85t20.5 -104.5t-20.5 -104.5t-57.5 -86t-86 -58.5t-104.5 -21.5t-104.5 21.5t-85 58.5t-57.5 86t-21.5 104.5t21.5 104.5t57.5 85t85 57.5t104.5 21.5zM414 1452q-86 0 -142.5 -56.5t-56.5 -141.5t56.5 -142t142.5 -57
t143 57t57 142t-57 141.5t-143 56.5z" />
    <glyph glyph-name="plusminus" unicode="&#xb1;" horiz-adv-x="1196" 
d="M680 1225v-420h420v-133h-420v-420h-133v420h-420v133h420v420h133zM1100 133v-133h-973v133h973z" />
    <glyph glyph-name="twosuperior" unicode="&#xb2;" horiz-adv-x="794" 
d="M588 1265.5q0 -192.5 -316 -487.5h359v-63h-447v51q174 179 255 283t81 192t-30.5 122t-132.5 34t-162 -11v50q86 22 174 22q219 0 219 -192.5z" />
    <glyph glyph-name="threesuperior" unicode="&#xb3;" horiz-adv-x="757" 
d="M184 762q105 -6 112 -6h75q72 0 112.5 42t40.5 115q0 148 -157 148h-70v51h51q78 0 117 39t39 103t-29 100.5t-100 36.5t-172 -9q-6 0 -6 22.5t6 22.5q80 17 179 17t145 -47t46 -113t-30.5 -118.5t-73.5 -75.5q53 -16 89 -65.5t36 -128.5t-53.5 -141.5t-164.5 -62.5
t-192 19v51z" />
    <glyph glyph-name="acute" unicode="&#xb4;" horiz-adv-x="681" 
d="M545 1364q-28 -43 -189 -272h-96l123 272h162z" />
    <glyph glyph-name="mu" unicode="&#xb5;" horiz-adv-x="1048" 
d="M506 -12q-60 0 -134.5 41t-101.5 94v-553h-139v1356h154v-555q0 -123 62.5 -190.5t164.5 -67.5q59 0 113.5 11t132.5 52v750h151v-776q0 -41 14.5 -56.5t43.5 -15.5h77v-53q-46 -37 -114 -37t-112 29.5t-58 76.5q-140 -106 -254 -106z" />
    <glyph glyph-name="paragraph" unicode="&#xb6;" horiz-adv-x="821" 
d="M444 508q0 67 -63 70q-129 0 -221 86q-113 104 -113 295q-1 192 139 298q140 105 371 105h152q25 0 33 -5t8 -18v-1468q0 -33 -11 -33h-73q-4 0 -4 4v1405q0 15 -4 29t-33 14h-54q-41 0 -41 -43v-1405q0 -4 -4 -4h-63q-18 0 -19 12v658z" />
    <glyph glyph-name="periodcentered" unicode="&#xb7;" horiz-adv-x="532" 
d="M273 829q46 0 77 -30.5t31 -76.5t-31 -77t-77 -31t-76.5 31t-30.5 77t30.5 76.5t76.5 30.5z" />
    <glyph glyph-name="cedilla" unicode="&#xb8;" horiz-adv-x="681" 
d="M369 -195q143 0 143 -110q0 -61 -51 -93t-115 -32t-92 11q-29 11 -53 42q-4 9 4 21t12 8q43 -43 111 -43q118 0 116 86q0 53 -43 75t-90 11v125h58v-101z" />
    <glyph glyph-name="onesuperior" unicode="&#xb9;" horiz-adv-x="761" 
d="M184 715v49h172v639l-155 -47v45l151 45h74v-682h172v-49h-414z" />
    <glyph glyph-name="ordmasculine" unicode="&#xba;" horiz-adv-x="819" 
d="M416 1401q-197 0 -197 -251q0 -112 42 -184.5t158 -72.5t160 70.5t44 187.5q0 250 -207 250zM715 1148q0 -148 -74 -240.5t-225 -92.5q-212 0 -251.5 133t-39.5 204q0 146 77 235.5t221 89.5q143 0 217.5 -90.5t74.5 -238.5z" />
    <glyph glyph-name="guillemotright" unicode="&#xbb;" horiz-adv-x="1003" 
d="M74 926h139l303 -463l-303 -463h-139l303 463zM510 926h139l305 -463l-305 -463h-139l303 463z" />
    <glyph glyph-name="onequarter" unicode="&#xbc;" horiz-adv-x="1634" 
d="M1366 233v396l-250 -396h250zM1434 233h69v-57h-69v-176h-68v176h-342v25l338 542h72v-510zM324 -57l954 1501h96l-954 -1501h-96zM172 715v49h172v639l-154 -47v45l150 45h74v-682h172v-49h-414z" />
    <glyph glyph-name="onehalf" unicode="&#xbd;" horiz-adv-x="1699" 
d="M324 -57l952 1501h96l-952 -1501h-96zM1309 743q219 0 219 -144t-81 -268t-235 -265h359v-66h-447v51q174 180 255 284.5t81 191.5q0 88 -30 121.5t-130 33.5t-165 -10v49q86 22 174 22zM172 715v49h172v639l-156 -47v45l152 45h74v-682h172v-49h-414z" />
    <glyph glyph-name="threequarters" unicode="&#xbe;" horiz-adv-x="1634" 
d="M309 1357q0 34 4 38q61 49 172 49t167.5 -46t56.5 -125t-38 -133.5t-93 -68.5q59 -18 96 -67.5t37 -131.5t-61.5 -129t-140.5 -47q-147 0 -214 45q-15 10 -9.5 34t10.5 32t11 6q93 -45 167 -45q75 0 116 35t41 99t-49.5 100t-118.5 40q-18 2 -19 7v47q0 2 23 6
q160 9 160 147q0 55 -39 91t-118 36t-148 -53q-13 0 -13 34zM1366 233v396l-250 -396h250zM1436 233h67v-57h-67v-176h-70v176h-342v25l338 542h74v-510zM334 -57l954 1501h96l-952 -1501h-98z" />
    <glyph glyph-name="questiondown" unicode="&#xbf;" horiz-adv-x="868" 
d="M418 836q-27 0 -27 14v88q0 16 2 28.5t19 12.5h131q37 0 37 -35v-86q0 -23 -17 -22h-145zM414 489v91q0 20 16 20h113q16 0 16 -22v-43q0 -102 -43 -155.5t-85 -99.5t-84 -104.5t-42 -143.5t48 -134.5t143 -49.5t204 82q10 8 19.5 -3t14.5 -29.5t3 -39t-21 -36.5t-90 -47
t-159 -31q-143 0 -225 68.5t-82 187.5t60 192.5t94 113.5t67 85t33 98z" />
    <glyph glyph-name="Agrave" unicode="&#xc0;" horiz-adv-x="1218" 
d="M717 1538h-72q-23 0 -49 29l-242 256q-18 20 0 20h138q18 0 25 -8t18 -27l180 -252q10 -18 2 -18zM606 1225l-221 -764h444zM1145 0h-158q-12 0 -16 6t-10 31l-91 293h-524l-88 -293q-6 -23 -11 -30t-18 -7h-143q-4 0 6 39l402 1321q10 25 20 36t33 11h162q27 0 36 -11.5
t17 -35.5l401 -1321q12 -29 4 -34t-22 -5z" />
    <glyph glyph-name="Aacute" unicode="&#xc1;" horiz-adv-x="1218" 
d="M618 1538h-69q-10 0 -8 5t6 16l182 249q14 16 19.5 25.5t21.5 9.5h139q20 0 4 -20l-247 -254q-31 -31 -48 -31zM598 1225l-223 -762h444zM1135 0h-158q-12 0 -16.5 6t-10.5 31l-90 293h-526l-88 -293q-6 -23 -11.5 -30t-17.5 -7h-131q-14 0 -4 39l403 1319q8 27 18.5 38
t35.5 11h159q27 0 36 -11.5t18 -37.5l401 -1319q10 -29 3 -34t-21 -5z" />
    <glyph glyph-name="Acircumflex" unicode="&#xc2;" horiz-adv-x="1218" 
d="M889 1538h-72q-22 0 -37 16l-155 209l-158 -209q-13 -16 -35 -16h-67q-2 0 -4.5 5t4.5 13l180 252q12 16 18 25.5t21 9.5h78q16 0 21 -7t15 -19l187 -261q14 -18 4 -18zM606 1225l-223 -762h444zM1141 0h-152q-12 0 -18 6t-13 31l-90 293h-526l-88 -293q-6 -25 -11 -31
t-18 -6h-131q-12 0 -6 29l406 1329q8 29 18 39t33 10h162q27 0 36 -10.5t17 -38.5l401 -1319q8 -29 1 -34t-21 -5z" />
    <glyph glyph-name="Atilde" unicode="&#xc3;" horiz-adv-x="1218" 
d="M760 1583q-31 0 -64.5 18.5t-66.5 37.5t-63.5 36t-65.5 17t-73 -26t-56 -58q0 -2 -9.5 2t-24.5 10.5t-38 17.5q22 59 77.5 118t108.5 59t150 -60q35 -20 66.5 -36.5t70.5 -16.5t74 28.5t55 63.5q34 -7 78 -22q-97 -189 -219 -189zM610 1227l-223 -764h447zM1149 0h-158
q-12 0 -16 6t-10 31l-91 293h-526l-88 -293q-6 -23 -11 -30t-18 -7h-143q-4 0 6 39l404 1323q8 27 18 37t33 10h164q27 0 36 -10t19 -39l-2 2l401 -1323q10 -29 2 -34t-20 -5z" />
    <glyph glyph-name="Adieresis" unicode="&#xc4;" horiz-adv-x="1218" 
d="M463 1786q31 0 31 -35v-117q0 -29 -25 -28h-125q-23 0 -28 4t-5 14v127q0 16 4 25.5t21 9.5h127zM920 1638q0 -33 -21 -32h-115q-29 0 -36 10t-7 24v117q0 29 21 29h123q23 0 29 -5t6 -20v-123zM606 1231l-223 -768h446zM1147 -2h-158q-14 0 -18 6t-10 31l-91 295h-526
l-90 -295q-10 -37 -29 -37h-143q-4 0 6 39l406 1327q8 27 18 37t33 10h164q27 0 35 -10t18 -37l403 -1327q10 -29 2 -34t-20 -5z" />
    <glyph glyph-name="Aring" unicode="&#xc5;" horiz-adv-x="1218" 
d="M764 1741q0 55 -40 103t-102 48t-103.5 -48t-41.5 -103t40.5 -102.5t102.5 -47.5t103 47.5t41 102.5zM838 1741q0 -86 -65 -147.5t-153 -61.5t-151 61.5t-63 147.5t63 147.5t151 61.5t153 -61.5t65 -147.5zM598 1227l-225 -760h446zM1133 4h-156q-12 0 -15.5 4t-7.5 19
v-7l-4 21l-90 291h-526l-88 -291q-6 -23 -10.5 -30t-16.5 -7h-143q-2 0 -2 6t8 33l401 1317q8 29 18.5 39t33.5 10h165q23 0 33 -13.5t19 -35.5l401 -1317q8 -29 1 -34t-21 -5z" />
    <glyph glyph-name="AE" unicode="&#xc6;" horiz-adv-x="1712" 
d="M788 463q60 0 60 59l2 801l-391 -860h329zM1585 1413q31 0 31 -10v-117q0 -10 -70 -10h-442q-47 0 -59.5 -16.5t-12.5 -36.5v-344q0 -41 13.5 -55.5t50.5 -14.5h393q25 0 32 -3t5 -13l-15 -107q-3 -16 -59 -16h-340q-43 0 -60.5 -15.5t-17.5 -52.5v-391q0 -51 21.5 -57.5
t56.5 -6.5h483q29 0 40.5 -3t11.5 -15v-115q0 -14 -23 -14h-752q-24 0 -24 37v233q0 27 -12.5 43.5t-47.5 16.5h-382l-140 -291q-14 -39 -41 -39h-131q-13 0 -4 25l635 1343q12 25 19.5 35t29.5 10h811z" />
    <glyph glyph-name="Ccedilla" unicode="&#xc7;" horiz-adv-x="1204" 
d="M645 -162h-4q2 2 4 2v-2zM801 -256q0 58 -33 78t-74 20t-49 -2v135q-225 16 -346 126t-121 290v553q0 220 113 337q136 140 454 140q234 0 332 -78q19 -12 -27 -104q-9 -18 -16 -20q-45 19 -108 40t-162 21q-211 0 -300 -88t-89 -268v-510q0 -161 108 -238
q88 -63 218 -63q129 0 217 26t122 43l2 2q25 8 30 -111q1 -24 -5 -28q-35 -23 -130 -45t-220 -23v-98q72 0 119 -35q47 -36 47 -104q1 -68 -59 -104t-132 -36t-105 12q-32 11 -61 46q6 0 14 16q7 16 5 27q39 -49 121 -49q135 0 135 92z" />
    <glyph glyph-name="Egrave" unicode="&#xc8;" horiz-adv-x="1064" 
d="M690 1538h-72q-16 0 -28 10.5t-23 20.5l-243 254q-16 20 0 20h137q18 0 26.5 -9t18.5 -26l182 -252q8 -8 7 -13t-5 -5zM889 1407q33 0 33 -8v-119q0 -10 -70 -10h-442q-45 0 -58.5 -17.5t-13.5 -35.5v-343q0 -41 15.5 -54t47.5 -13h394q29 0 35 -3t4 -9l-13 -111
q-5 -18 -61 -18h-340q-45 0 -61.5 -13.5t-16.5 -52.5v-389q0 -51 22.5 -58.5t57.5 -7.5h479q51 0 51 -16v-115q0 -14 -18 -14h-756q-22 0 -22 37v1325q0 20 2 32.5t14 12.5h717z" />
    <glyph glyph-name="Eacute" unicode="&#xc9;" horiz-adv-x="1064" 
d="M543 1538h-78q-10 0 4 21l188 256q13 25 37 28h140q20 0 4 -20l-248 -256q-25 -29 -47 -29zM424 1270q-74 0 -74 -53v-343q0 -43 15.5 -55t50.5 -12h391q27 0 34 -3t5 -9l-12 -111q-5 -18 -62 -18h-340q-78 0 -78 -66v-389q0 -51 22.5 -57.5t57.5 -6.5h479q29 0 40.5 -3
t11.5 -15v-115q0 -14 -21 -14h-754q-22 0 -22 37v1325q0 20 2 32.5t14 12.5h717q33 0 33 -10v-117q0 -10 -72 -10h-438z" />
    <glyph glyph-name="Ecircumflex" unicode="&#xca;" horiz-adv-x="1064" 
d="M825 1538h-69q-20 0 -33 16l-158 209l-157 -209q-13 -16 -35 -16h-68q-4 0 -6 5t4 13l182 252q14 16 22.5 25.5t18.5 9.5h78q12 0 18.5 -8t20.5 -27l182 -252q6 -8 5 -13t-5 -5zM430 1270q-74 0 -74 -53v-343q0 -43 16.5 -55t51.5 -12h391q25 0 32 -3t5 -9l-12 -111
q-5 -18 -62 -18h-340q-78 0 -78 -66v-389q0 -51 23 -57.5t57 -6.5h480q29 0 40 -3t11 -15v-115q0 -14 -21 -14h-751q-25 0 -25 37v1325q0 20 2 32.5t14 12.5h717q33 0 33 -10v-117q0 -10 -72 -10h-438z" />
    <glyph glyph-name="Edieresis" unicode="&#xcb;" horiz-adv-x="1064" 
d="M395 1784q33 0 33 -35v-117q0 -27 -27 -26h-122q-20 0 -26.5 3t-6.5 13v127q0 16 4 25.5t20 9.5h125zM854 1636q0 -30 -23 -30h-114q-29 0 -35 9t-6 23v117q0 29 20 29h125q23 0 28 -5t5 -20v-123zM424 1274q-74 0 -74 -53v-344q0 -43 15.5 -55.5t50.5 -12.5h393
q27 0 34 -3t5 -9l-12 -111q-5 -18 -64 -18h-340q-78 0 -78 -66v-391q0 -49 22.5 -57.5t57.5 -8.5h479q53 0 54 -16v-115q0 -14 -21 -14h-756q-22 0 -22 37v1329q0 20 2 32.5t14 12.5h719q33 0 33 -10v-117q0 -10 -72 -10h-440z" />
    <glyph glyph-name="Igrave" unicode="&#xcc;" horiz-adv-x="512" 
d="M356 1538h-69q-16 0 -24.5 8t-22.5 21l-248 256q-16 20 0 20h139q16 0 24.5 -9t20.5 -26l180 -252q10 -18 0 -18zM371 23q0 -12 -3 -17.5t-16 -5.5h-153q-25 0 -25 35v1351q0 12 6 16.5t27 4.5h147q16 0 17 -35v-1349z" />
    <glyph glyph-name="Iacute" unicode="&#xcd;" horiz-adv-x="512" 
d="M260 1538h-76q-10 0 4 18l189 259q6 12 12 19t25 9h139q16 0 2 -20l-246 -254q-31 -31 -49 -31zM365 23q0 -23 -21 -23h-154q-23 0 -22 35v1351q0 12 6 16.5t25 4.5h147q12 0 15.5 -7t3.5 -28v-1349z" />
    <glyph glyph-name="Icircumflex" unicode="&#xce;" horiz-adv-x="512" 
d="M528 1538h-71q-24 0 -35 16l-158 209l-158 -209q-13 -16 -34 -16h-74q-8 0 6 18l180 252q22 35 39 35h78q14 0 20.5 -7t16.5 -19l186 -261q14 -18 4 -18zM360 23q0 -23 -20 -23h-154q-23 0 -22 35v1351q0 12 6 16.5t25 4.5h147q12 0 15 -7t3 -28v-1349z" />
    <glyph glyph-name="Idieresis" unicode="&#xcf;" horiz-adv-x="512" 
d="M100 1784q31 0 31 -35v-117q0 -29 -25 -28h-124q-20 0 -25.5 4t-5.5 14v127q0 16 3 25.5t19 9.5h127zM561 1636q0 -32 -24 -32h-115q-27 0 -34 9t-7 23v119q0 29 22 29h123q23 0 29 -5t6 -20v-123zM360 16q0 -25 -20 -24h-156q-25 0 -24 33v1361q0 14 6 18.5t27 4.5h149
q12 0 15 -7t3 -26v-1360z" />
    <glyph glyph-name="Eth" unicode="&#xd0;" horiz-adv-x="1232" 
d="M897 946q0 172 -93 244t-253 72h-166q-45 0 -55.5 -14.5t-10.5 -47.5v-409h179q29 0 40 -2.5t11 -14.5v-98q0 -16 -9.5 -21.5t-41.5 -5.5h-179v-434q0 -31 13.5 -48t58.5 -17h162q157 0 250.5 61.5t93.5 247.5v487zM156 0q-31 0 -31 47v602h-82q-35 0 -35 19v100
q0 18 9.5 20.5t31.5 2.5h76v573q0 23 3 34t19 11h402q249 0 398 -98t149 -350v-529q0 -254 -145 -343t-337 -89h-458z" />
    <glyph glyph-name="Ntilde" unicode="&#xd1;" horiz-adv-x="1353" 
d="M473.5 1780.5q56.5 31.5 101.5 31.5t127 -59q35 -18 69 -35.5t75 -17.5q71 0 127 94l-2 2l80 -24l-2 -3q-92 -188 -218 -188q-35 0 -67.5 17.5t-66.5 39.5t-64.5 38t-65.5 16t-70 -24t-45 -44t-14 -20l-71 32q50 113 106.5 144.5zM1044 1366q0 43 9 43h153
q14 0 17.5 -11.5t3.5 -33.5v-1317q0 -29 -4 -41t-21 -10l-141 2q-31 0 -53 39l-576 967q-47 78 -66.5 82t-19.5 -93v-946q0 -29 -3 -38t-17 -9h-131q-10 0 -20.5 5t-10.5 34v1327q0 43 14 43h139q37 0 48.5 -11.5t19.5 -21.5q141 -242 288.5 -491.5t289.5 -491.5
q37 -61 59 -60t22 101v932zM367 1636q-2 0 -2 2z" />
    <glyph glyph-name="Ograve" unicode="&#xd2;" horiz-adv-x="1398" 
d="M854 1522h-70q-27 0 -45 28l-243 252q-20 16 0 17h137q24 0 43 -31l176 -250q10 -16 2 -16zM1026 940q0 170 -77 248t-243 78t-239.5 -86t-73.5 -248v-508q0 -150 97.5 -219.5t235.5 -69.5q137 0 218.5 67t81.5 257v481zM711 1413q510 0 510 -461v-518
q0 -358 -224 -410.5t-431 -27t-284 135.5t-77 241v573q0 250 125 358.5t381 108.5z" />
    <glyph glyph-name="Oacute" unicode="&#xd3;" horiz-adv-x="1398" 
d="M680 1534h-76q-10 0 4 18l187 258q10 12 16 20.5t23 8.5h137q16 0 2 -20l-244 -254q-31 -31 -49 -31zM1032 942q0 174 -77.5 253t-245.5 79t-244 -84t-76 -256v-516q0 -149 98 -221t239 -72t223.5 68t82.5 262v487zM711 1425q518 0 518 -469v-528q0 -424 -234.5 -439.5
t-278.5 -15.5t-101.5 4.5t-154 28t-180 112t-83.5 249.5v583q0 254 126 364.5t388 110.5z" />
    <glyph glyph-name="Ocircumflex" unicode="&#xd4;" horiz-adv-x="1398" 
d="M918 1540q-22 0 -35 16l-156 209l-158 -209q-13 -16 -34 -16h-76q-8 0 6 19l182 251q16 35 39 35h76q24 0 37 -26l186 -260q14 -18 4 -19h-71zM1032 948q0 174 -76.5 253t-244.5 79t-244 -84t-76 -254v-516q0 -151 98 -223t240 -72t222.5 70.5t80.5 261.5v485zM1233 436
q0 -201 -101 -321t-235.5 -127.5t-178.5 -7.5t-101.5 4t-153 27.5t-180 111.5t-84.5 252v581q0 254 127 364t389 110q364 0 441 -165t77 -302v-527z" />
    <glyph glyph-name="Otilde" unicode="&#xd5;" horiz-adv-x="1398" 
d="M844 1579q-36 1 -101 39t-97 54t-66 16t-71.5 -28t-53.5 -58q-3 -3 -14.5 3t-59.5 29q21 56 76.5 115t112.5 59t147 -59q35 -20 66.5 -36.5t70.5 -16.5t74 28.5t53 63.5q15 -3 32 -9t46 -16q-97 -184 -215 -184zM1032 944q0 174 -77.5 253t-245.5 79t-244 -84t-76 -256
v-516q0 -149 98 -221t239 -72t223.5 68t82.5 262v487zM711 1425q518 0 518 -467v-528q0 -291 -156.5 -373t-353.5 -82q-399 0 -460.5 153t-61.5 241v583q0 254 126 363.5t388 109.5z" />
    <glyph glyph-name="Odieresis" unicode="&#xd6;" horiz-adv-x="1398" 
d="M559 1778q29 0 29 -35v-117q0 -29 -23 -29h-123q-23 0 -27.5 4.5t-4.5 14.5v127q0 35 24 35h125zM877 1597q-41 0 -41 35v117q0 29 22 29h121q25 0 30 -5.5t5 -19.5v-123q0 -12 -3 -22.5t-20 -10.5h-114zM1028 946q0 174 -77 253t-245 79t-243.5 -84t-75.5 -256v-514
q0 -152 98.5 -223.5t237.5 -71.5q140 0 222.5 68t82.5 262v487zM709 1427q518 0 518 -466v-529q0 -290 -156.5 -372.5t-353.5 -82.5q-399 0 -460.5 153t-61.5 241v583q0 254 125.5 363.5t388.5 109.5z" />
    <glyph glyph-name="multiply" unicode="&#xd7;" horiz-adv-x="1021" 
d="M768 246q-10 -10 -18.5 -4t-24.5 22l-209 209q-23 -23 -49.5 -50.5t-36.5 -38.5l-105 -104q-32 -32 -42.5 -38t-16.5 0l-59 57q-16 14 14 45l211 213l-219 219q-14 14 -6 27l55 55q16 13 37 -8l213 -213l217 215q10 10 16.5 13t18.5 -7t27.5 -27.5t27.5 -27.5
q14 -18 -8 -37l-215 -213l213 -213q29 -25 20 -35z" />
    <glyph glyph-name="Oslash" unicode="&#xd8;" horiz-adv-x="1398" 
d="M985 473v195q0 72 -16 157q-465 -604 -506 -604q108 -119 240 -119q133 0 207 102t75 269zM701 1014q-125 0 -207 -86t-82 -271v-208q0 -59 12 -148l475 614l-2 29q-70 70 -196 70zM1186 544q0 -274 -128 -418t-358 -144q-192 0 -319 79q-29 -39 -42 -48t-32 -9h-92
q-10 0 -10 6t18 29l76 98q-100 153 -98 412q0 452 301 554q94 32 209 32q174 0 297 -78l24 33q20 30 36 40t48 11h96q-14 -14 -22 -29l-107 -139q103 -155 103 -429z" />
    <glyph glyph-name="Ugrave" unicode="&#xd9;" horiz-adv-x="1327" 
d="M838 1540h-68q-20 0 -49 29l-244 254q-20 20 2 20h135q24 0 45 -35l181 -252q8 -16 -2 -16zM1167 432q0 -267 -142.5 -359.5t-346.5 -92.5q-313 0 -396 147t-83 270v983q0 27 14 29h147q16 0 22.5 -9t6.5 -36v-893q0 -160 80 -249t209 -89q169 0 232 87t63 255v905
q0 14 1 20.5t11 8.5h152q16 0 23 -9t7 -36v-932z" />
    <glyph glyph-name="Uacute" unicode="&#xda;" horiz-adv-x="1327" 
d="M637 1540h-76q-10 0 4 21l187 256q13 25 39 28h139q16 0 2 -18l-246 -256q-31 -31 -49 -31zM1169 432q0 -452 -489 -452q-315 0 -398 147t-83 270v983q0 27 14 29h147q16 0 23.5 -8t7.5 -35v-893q0 -162 80 -251t209 -89q241 0 267 133t26 213v901q0 27 16 29h152
q16 0 22 -8t6 -35v-934z" />
    <glyph glyph-name="Ucircumflex" unicode="&#xdb;" horiz-adv-x="1327" 
d="M944 1532h-72q-14 0 -20 2t-14 16l-158 207l-158 -207q-13 -18 -33 -18h-75q-8 0 8 20l184 256q22 29 33 29h80q13 0 41 -35l180 -250q14 -20 4 -20zM1165 430q0 -450 -487 -450q-312 0 -394.5 146t-82.5 269v977q0 29 14 31h145q16 0 22.5 -9.5t6.5 -35.5v-887
q0 -162 80 -250t209 -88q169 0 231 86t62 256v897q0 29 14 31h152q16 0 22 -9.5t6 -35.5v-928z" />
    <glyph glyph-name="Udieresis" unicode="&#xdc;" horiz-adv-x="1327" 
d="M532 1782q29 0 29 -35v-117q0 -29 -22 -28h-125q-23 0 -28 4t-5 14v127q0 14 3 24.5t19 10.5h129zM850 1602q-43 0 -43 32v119q0 29 24 29h123q23 0 29 -5t6 -20v-123q0 -32 -24 -32h-115zM1169 428q0 -455 -491 -455q-315 0 -398 148.5t-83 271.5v987q0 27 10 29h149
q16 0 23.5 -8t7.5 -37v-895q0 -162 81 -252t210 -90q243 0 269 133t26 213v907q0 27 14 29h154q16 0 22 -8t6 -37v-936z" />
    <glyph glyph-name="Yacute" unicode="&#xdd;" horiz-adv-x="1196" 
d="M657 1538h-71q-7 0 2 21l184 258q13 25 39 28h141q16 0 2 -18l-247 -258q-10 -10 -21.5 -20.5t-28.5 -10.5zM713 20q0 -20 -25 -20h-156q-16 0 -16 18v564l-444 819q-4 8 8 8h172q20 0 37 -31l332 -616q0 3 73 127.5t102 172.5l189 327q6 10 11 15t22 5h123q18 0 6 -20
q-119 -221 -187 -347t-106.5 -199t-69 -131.5t-50 -95t-21.5 -43.5v-553z" />
    <glyph glyph-name="Thorn" unicode="&#xde;" horiz-adv-x="1193" 
d="M594 350q166 0 241.5 76t75.5 242t-76.5 237.5t-250.5 71.5h-260v-619q104 -8 270 -8zM610 219h-83q-83 0 -203 8v-227h-166v1327h168v-221h258q238 0 360.5 -105.5t122.5 -330.5t-121 -338t-336 -113z" />
    <glyph glyph-name="germandbls" unicode="&#xdf;" horiz-adv-x="1232" 
d="M1118 45q-107 -70 -252 -70q-211 0 -317 62q-19 5 -21 46.5t4 58t26 8.5q68 -27 112 -39.5t147 -12.5t161 44t58 114t-55 128t-134 100t-189.5 107t-110.5 206q0 45 22.5 83t52.5 78t55 86t25 99q0 92 -53 135t-138 43t-128 -57.5t-43 -143.5v-1077q0 -45 -27 -45h-127
q-33 0 -32 31v862h-127q-23 0 -23 20v68q0 23 10 22h129v152q0 117 90.5 203t264.5 86t274 -69.5t100 -207.5q0 -57 -22 -98t-48 -79t-47.5 -77t-21.5 -97t56.5 -107.5t128.5 -88.5t127 -74.5t117.5 -102.5t62.5 -197q0 -129 -107 -199z" />
    <glyph glyph-name="agrave" unicode="&#xe0;" horiz-adv-x="974" 
d="M588 1071q-18 0 -39 25l-223 235q-12 12 0 12h125q20 0 32 -24l168 -236q2 -6 8 -12h-71zM709 604q0 81 -55.5 165.5t-159.5 84.5t-158.5 -73.5t-54.5 -243.5v-154q0 -141 53 -224t150 -83t161 73t64 127v328zM408 946q192 0 278 -143l35 8v88q0 25 12 25h115
q23 0 27 -7.5t4 -25.5v-842q0 -25 -3.5 -37t-17.5 -12h-115q-22 0 -22 31v86l-35 8q-27 -57 -102.5 -100t-153.5 -43q-151 0 -235 114.5t-84 352.5q0 237 74.5 367t222.5 130z" />
    <glyph glyph-name="aacute" unicode="&#xe1;" horiz-adv-x="974" 
d="M492 1067h-60q-2 0 -3 5t3 9l168 234q14 24 31 24h125q12 0 0 -14l-221 -231q-27 -27 -43 -27zM705 602q0 81 -55.5 165.5t-159.5 84.5q-105 0 -159.5 -73.5t-54.5 -243.5v-152q0 -141 53.5 -225t150.5 -84t161 72.5t64 129.5v326zM739 0q-22 0 -22 31v84
q-22 -53 -115 -93t-174 -40q-153 0 -236 115t-83 351t74.5 366t222.5 130q106 0 189 -33.5t122 -101.5v88q0 25 12 25h115q23 0 26.5 -8.5t3.5 -24.5v-840q0 -25 -3 -37t-17 -12h-115z" />
    <glyph glyph-name="acircumflex" unicode="&#xe2;" horiz-adv-x="974" 
d="M770 1069h-68q-17 0 -28 14l-146 191l-143 -191q-6 -4 -13 -9t-16 -5h-67q-2 0 6 14l166 234q14 25 31 24h71q19 0 31 -24l168 -234q12 -14 8 -14zM705 604q0 79 -38 137t-80 85.5t-102 27.5q-102 0 -154 -73.5t-52 -245.5v-152q0 -141 53 -225t151 -84t160 73t62 132
v325zM406 946q232 0 313 -135v88q0 25 12 25h113q23 0 28 -8.5t5 -26.5v-840q0 -25 -3.5 -37t-19.5 -12h-113q-22 0 -22 31v84q-21 -52 -115.5 -92.5t-174.5 -40.5q-154 0 -237 115t-83 350t75.5 367t221.5 132z" />
    <glyph glyph-name="atilde" unicode="&#xe3;" horiz-adv-x="974" 
d="M629 1110q-38 0 -94 34t-85.5 50t-58.5 16t-64.5 -25.5t-52.5 -56.5l-63 31q47 99 98 127.5t79 28.5q36 0 119 -51.5t128 -51.5q71 0 119 80q4 4 10 2l61 -18q-85 -166 -196 -166zM487 856q-206 0 -206 -321v-152q0 -141 53 -224t151 -83t160 73t62 130v325
q0 83 -55.5 167.5t-164.5 84.5zM743 0q-22 0 -22 31v86q-27 -56 -118.5 -95.5t-171.5 -39.5q-154 0 -237 115t-83 352t74.5 370t222.5 133q106 0 189 -36.5t124 -104.5v90q0 25 12 25h117q23 0 27 -8.5t4 -24.5v-844q0 -25 -3.5 -37t-17.5 -12h-117z" />
    <glyph glyph-name="adieresis" unicode="&#xe4;" horiz-adv-x="974" 
d="M375 1290q26 0 26 -30v-107q0 -23 -20 -23h-111q-18 0 -23 2.5t-5 12.5v115q0 30 16 30h117zM758 1290q30 0 30 -20v-115q0 -25 -18 -25h-106q-35 0 -35 27v109q0 25 18 24h111zM707 606q0 81 -56 166.5t-161 85.5t-159.5 -73.5t-54.5 -245.5v-154q0 -141 53.5 -225
t152.5 -84t162 74.5t63 130.5v325zM406 952q229 0 313 -139v90q0 25 12 25h115q23 0 28 -8.5t5 -24.5v-846q0 -25 -3.5 -37t-19.5 -12h-113q-10 0 -17 5t-7 28v84q-23 -55 -115.5 -95t-174.5 -40q-155 0 -239 117.5t-84 352.5q0 234 77 367t223 133z" />
    <glyph glyph-name="aring" unicode="&#xe5;" horiz-adv-x="974" 
d="M662 1250q0 52 -37 95.5t-95 43.5t-94.5 -43.5t-36.5 -95.5t36 -95t93.5 -43t95.5 43t38 95zM721 1251q0 -39 -15.5 -72.5t-42 -59t-61.5 -40t-74 -14.5t-73.5 14.5t-61 40t-42 59t-15.5 72.5t15.5 73t42 59.5t61 40t73.5 14.5t74 -14.5t61.5 -40t42 -59.5t15.5 -73z
M707 604q0 81 -56 166.5t-159 85.5t-157 -74.5t-54 -246.5v-152q0 -141 53 -224t151 -83t160 73t62 127v328zM743 0q-22 0 -22 31v88q-27 -56 -162 -114t-291.5 17t-156.5 435q0 229 74.5 362t222.5 133q106 0 189 -36.5t124 -104.5v90q0 25 12 25h117q23 0 27 -8.5t4 -24.5
v-844q0 -25 -3.5 -37t-17.5 -12h-117z" />
    <glyph glyph-name="ae" unicode="&#xe6;" horiz-adv-x="1454" 
d="M657 606q0 83 -55.5 165.5t-161.5 82.5t-158.5 -73.5t-52.5 -243.5v-152q0 -141 51.5 -225t151.5 -84t162.5 71t62.5 129v330zM1047 862q-167 0 -196.5 -117t-29.5 -161t5 -58t40 -14h367q29 0 35 11t6 44q-4 141 -54.5 218t-172.5 77zM788 0h-94q-10 0 -16 5t-6 28v84
q-27 -56 -118.5 -95.5t-174.5 -39.5q-152 0 -236 114.5t-84 352.5q0 237 75 368t220 131q109 0 193 -35.5t125 -103.5v90q0 25 12 25h96q27 0 35 -35q109 59 236 59q180 0 276 -89t96 -267v-109q0 -29 -8 -42t-43 -13h-555q0 -178 78 -259t217 -81q99 0 196 24t97 21v-90
q0 -31 -100.5 -46t-202.5 -15q-161 0 -287 67q-10 -49 -27 -49z" />
    <glyph glyph-name="ccedilla" unicode="&#xe7;" horiz-adv-x="854" 
d="M496 926q203 0 299 -119q16 -24 -38 -64q-19 -14 -39 -20t-28 4q-67 109 -186 109t-187 -71t-67 -224v-170q0 -213 147 -269q45 -16 104 -16q109 0 191 129q12 24 64 -1q18 -10 30 -24t9 -24q-93 -161 -303 -172v-92q66 0 106 -29t39 -88q0 -59 -52 -91q-53 -32 -115 -32
t-92 11t-49 35t-10 34q10 10 21 6q25 -47 109 -47q122 0 120 86q0 53 -29 70q-30 16 -79 16h-27v123q-356 25 -352 457q0 473 414 473z" />
    <glyph glyph-name="egrave" unicode="&#xe8;" horiz-adv-x="940" 
d="M614 1069h-69q-18 0 -41 25l-219 229q-12 14 -2 14h125q14 0 20 -8t16 -20l164 -228q8 -12 6 -12zM481 860q-163 0 -192 -113t-29 -157t5 -58t40 -14h357q29 0 34.5 13t5.5 42q-2 141 -51 214t-170 73zM96 455q0 491 389 491q178 0 274.5 -91t96.5 -263v-111
q0 -27 -8 -40t-43 -13h-549q0 -334 287 -334q149 0 272 41q20 8 21 4v-88q0 -40 -126.5 -50.5t-174.5 -10.5q-217 0 -328 106.5t-111 358.5z" />
    <glyph glyph-name="eacute" unicode="&#xe9;" horiz-adv-x="940" 
d="M453 1069h-68l6 12l164 226q19 30 35 30h123q16 0 2 -14l-223 -229q-18 -25 -39 -25zM266 578q0 -35 5 -46.5t40 -11.5h357q29 0 35 11t6 44q-4 137 -51.5 211t-165.5 74t-172 -80t-54 -202zM100 457q0 489 389 489q178 0 274.5 -92t96.5 -262v-109q0 -29 -8 -42t-43 -13
h-549q0 -178 77 -256t200 -78t189 17.5t90 26.5t24 1v-88q0 -12 -9.5 -17.5t-26.5 -13.5q-24 -10 -108.5 -20t-175.5 -10q-204 0 -312 109.5t-108 357.5z" />
    <glyph glyph-name="ecircumflex" unicode="&#xea;" horiz-adv-x="940" 
d="M737 1069h-65q-19 0 -27 14l-145 193l-144 -193q-12 -14 -28 -14h-68l172 242q8 12 13.5 20t15.5 8h74q18 0 28 -18l168 -238q8 -14 6 -14zM266 578q0 -35 5 -46.5t38 -11.5h359q29 0 35 13t6 42q-4 139 -51.5 213t-165.5 74t-172 -80t-54 -204zM100 457q0 491 392 491
q176 0 273 -93t97 -261v-111q0 -27 -8 -41t-43 -14h-551q0 -176 78 -255t214 -79t269 41q20 8 21 4v-88q0 -12 -9.5 -17.5t-26.5 -13.5q-24 -11 -110.5 -20.5t-154.5 -9.5q-219 0 -330 106.5t-111 360.5z" />
    <glyph glyph-name="edieresis" unicode="&#xeb;" horiz-adv-x="940" 
d="M385 1149q0 -23 -20 -23h-113q-16 0 -21 2q-4 2 -4 13v112q0 29 17 29h114q27 0 27 -29v-104zM741 1282q27 0 27 -18v-111q0 -26 -18 -27h-103q-37 0 -37 29v105q0 23 19 22h112zM309 518h361q29 0 35 14t6 43q-5 139 -53 213t-165 74t-172 -80t-57 -204q0 -36 5 -48
t40 -12zM98 455q0 491 391 491q181 0 277 -91t96 -261v-113q0 -29 -8 -42t-43 -13h-553q0 -178 78 -257t201 -79t191 18t90 25q23 8 24 2v-88q0 -12 -8 -18q-24 -18 -108 -31q-84 -12 -190 -12t-189 26q-249 76 -249 443z" />
    <glyph glyph-name="igrave" unicode="&#xec;" horiz-adv-x="446" 
d="M279 1077h-60q-16 0 -39 23l-227 235q-12 12 -2 13h127q16 0 22 -7.5t17 -23.5l164 -230q8 -10 -2 -10zM311 41q0 -23 -2 -32t-12 -9h-125q-12 0 -15 9t-3 32v852q0 16 3 24.5t19 8.5h113q16 0 19 -7.5t3 -25.5v-852z" />
    <glyph glyph-name="iacute" unicode="&#xed;" horiz-adv-x="446" 
d="M238 1077h-62q-14 0 -4 13l170 235q18 25 35 25h127q12 0 0 -13l-228 -235q-20 -25 -38 -25zM299 39q0 -23 -2 -32t-12 -9h-125q-16 0 -17 41v854q0 16 3.5 24.5t17.5 8.5h115q16 0 18 -7.5t2 -25.5v-854z" />
    <glyph glyph-name="icircumflex" unicode="&#xee;" horiz-adv-x="446" 
d="M465 1079h-59q-14 0 -31 13l-146 190l-145 -190q-12 -12 -29 -13h-61q-2 0 -2 2q0 8 2 11q164 229 172 238t12 15.5t12 6.5h76q16 0 24 -12q7 -12 11 -17.5t23.5 -34t85.5 -118.5q66 -91 55 -91zM307 41q0 -23 -2 -32t-14 -9h-127q-16 0 -17 41v854q0 33 21 33h117
q16 0 19 -7.5t3 -25.5v-854z" />
    <glyph glyph-name="idieresis" unicode="&#xef;" horiz-adv-x="446" 
d="M88 1288q25 0 25 -31v-106q0 -23 -19 -23h-112q-27 0 -27 15v114q0 31 18 31h115zM473 1288q27 0 27 -20v-113q0 -27 -17 -27h-104q-35 0 -35 29v107q0 25 16 24h113zM309 41q0 -23 -2 -32t-12 -9h-129q-14 0 -14 41v852q0 16 3 24.5t17 8.5h115q16 0 19 -7.5t3 -25.5
v-852z" />
    <glyph glyph-name="eth" unicode="&#xf0;" horiz-adv-x="1015" 
d="M784 588q0 133 -57 212t-183 79t-202 -79q-74 -79 -74 -222v-185q0 -157 73 -234t191 -77q117 0 185 91t67 243v172zM956 483q0 -245 -112 -373t-326 -128q-213 0 -321 113q-109 113 -109 375q0 263 123 387t311 124t238 -51q-51 119 -160 244l-76 -76q-10 -10 -12 -10
t-6 4l-55 55q-4 4 4 12l80 82q-57 51 -77 64q-20 14 -26 21t4 17l68 76q12 9 15 11t20 -15t36 -33t32 -27t22 -18l57 58q16 16 20 21t7 3l61 -65q2 -5 -22 -31l-58 -55q208 -238 248 -547q14 -109 14 -238z" />
    <glyph glyph-name="ntilde" unicode="&#xf1;" horiz-adv-x="1024" 
d="M643 1114q-29 0 -60.5 17.5t-62.5 34.5t-59.5 32.5t-58.5 15.5t-64.5 -25.5t-50.5 -53.5l-64 28q48 100 96.5 128t78.5 28q41 0 122 -51t128 -51q75 0 120 79q6 9 29.5 -2.5t40.5 -15.5q-80 -164 -195 -164zM315 766q123 180 309 180q185 0 225 -103.5t40 -183.5v-602
q0 -59 -19 -59h-116q-27 0 -27 43v575q0 137 -69.5 168t-124.5 31q-106 0 -163 -72t-57 -155v-543q0 -25 -2 -36t-12 -11h-115q-27 0 -26 45v848q0 16 3 25.5t17 9.5h117q20 0 20 -160z" />
    <glyph glyph-name="ograve" unicode="&#xf2;" horiz-adv-x="991" 
d="M641 1072q0 -3 -2 -5h-61q-21 0 -41 27l-220 233q-14 14 -2 14h127q12 0 17.5 -6t13.5 -16l166 -238q2 -6 2 -9zM754 551q0 301 -244 301q-106 0 -178 -73.5t-72 -235.5v-174q0 -150 70.5 -224.5t182.5 -74.5t176.5 87t64.5 232v162zM810 96q-108 -121 -310 -121
t-306 106t-104 372q0 384 165 437.5t313 53.5t249 -116t101 -363q0 -248 -108 -369z" />
    <glyph glyph-name="oacute" unicode="&#xf3;" horiz-adv-x="991" 
d="M475 1069h-59q-10 0 -4 12l172 240q12 20 30 20h127q8 0 2 -14l-223 -231q-32 -27 -45 -27zM756 555q0 209 -88 252t-156 43q-109 0 -179.5 -74t-70.5 -231v-176q0 -158 73 -227.5t183 -69.5t174 88t64 229v166zM808.5 98q-106.5 -123 -306.5 -123t-306 107t-106 373
q0 382 166 435.5t262 53.5q397 0 397 -477q0 -246 -106.5 -369z" />
    <glyph glyph-name="ocircumflex" unicode="&#xf4;" horiz-adv-x="991" 
d="M748 1071h-56q-18 0 -30 14l-146 191l-143 -191q-14 -14 -31 -14h-57q-8 8 -2 14l168 234q14 24 28 24h72q12 0 18 -7t19 -23l164 -228q4 -6 1 -10t-5 -4zM754 553q0 213 -88 256t-156 43q-109 0 -179.5 -73.5t-70.5 -233.5v-176q0 -153 70 -225t184 -72q113 0 176.5 87
t63.5 230v164zM90 453q0 493 428 493q400 0 400 -481q0 -246 -108 -368t-310 -122t-306 106t-104 372z" />
    <glyph glyph-name="otilde" unicode="&#xf5;" horiz-adv-x="991" 
d="M633 1110q-31 0 -60.5 16.5t-60.5 34.5t-59.5 33.5t-61.5 15.5t-66.5 -26.5t-50.5 -55.5l-61 31q48 99 96.5 127.5t78.5 28.5q44 0 127 -51.5t126 -51.5q69 0 117 80q6 9 29.5 -2.5t39.5 -15.5q-80 -164 -194 -164zM764 555q0 211 -88 254t-156 43q-109 0 -180.5 -73.5
t-71.5 -231.5v-176q0 -152 69.5 -225.5t184.5 -73.5t178.5 87t63.5 232v164zM98 455q0 491 432 491q188 0 292 -112.5t104 -362.5t-107.5 -373t-310.5 -123t-306.5 107t-103.5 373z" />
    <glyph glyph-name="odieresis" unicode="&#xf6;" horiz-adv-x="991" 
d="M377 1282q24 0 24 -27v-108q0 -23 -18 -23h-111q-18 0 -23 3t-5 12v116q0 27 18 27h115zM666 1124q-37 0 -37 29v107q0 23 16 22h113q20 0 25 -4t5 -14v-113q0 -27 -20 -27h-102zM754 555q0 297 -242 297q-106 0 -178 -73.5t-72 -231.5v-176q0 -148 70.5 -221.5
t182.5 -73.5t175.5 87t63.5 228v164zM810 104q-108 -122 -309 -122t-305 105.5t-104 364.5q0 260 110 377t312 117t303 -116t101 -360t-108 -366z" />
    <glyph glyph-name="divide" unicode="&#xf7;" horiz-adv-x="1196" 
d="M618 793q-30 0 -52 20t-22 50q0 29 22 51q21 22 51 22q31 0 51 -22t20 -52t-20 -49q-20 -20 -50 -20zM899 594q0 -14 -7 -17t-36 -4h-500q-25 0 -24 15v84q0 12 7 14t26 2h491q43 0 43 -10v-84zM617 461q31 0 51 -22q20 -21 20 -51t-20 -52t-50 -21q-30 0 -52 22
q-22 21 -22 51t22 52q21 22 51 21z" />
    <glyph glyph-name="oslash" unicode="&#xf8;" horiz-adv-x="991" 
d="M522 111q60 0 162 47.5t102 276.5q0 142 -47 259l-340 -571q63 -12 123 -12zM514 815q-154 0 -218.5 -91t-64.5 -251q0 -215 109 -317l352 592q-90 67 -178 67zM78 473q0 205 112 338t312 133q143 0 264 -74l63 107h80l-94 -152q123 -145 123 -352q0 -350 -163 -420.5
t-259 -70.5t-184 26l-58 -96h-79l79 129q-196 137 -196 432z" />
    <glyph glyph-name="ugrave" unicode="&#xf9;" horiz-adv-x="1024" 
d="M633 1077h-60q-18 0 -56 40t-97.5 101.5t-112.5 116.5q-14 14 0 15h125q16 0 22.5 -6.5t14.5 -18.5l166 -235q6 -13 -2 -13zM727 150q-147 -166 -287 -166q-133 0 -208.5 70t-75.5 212v621q0 41 18 41h119q27 0 26 -43v-576q0 -80 42 -138t146 -58t163 70t59 155v543
q0 25 2 36t14 11h113q16 0 21.5 -10.5t5.5 -34.5v-848q0 -35 -19 -35h-116q-23 0 -23 150z" />
    <glyph glyph-name="uacute" unicode="&#xfa;" horiz-adv-x="1028" 
d="M500 1077h-64q-7 0 0 13l166 229q19 31 37 31h127q12 0 0 -13l-225 -235q-25 -25 -41 -25zM729 150q-147 -166 -289 -166q-133 0 -208.5 70t-75.5 214v617q0 43 18 43h119q27 0 26 -43v-574q0 -84 42 -141t147 -57t164 70.5t59 154.5v543q0 25 2 36t12 11h111
q18 0 23.5 -11.5t5.5 -33.5v-848q0 -35 -19 -35h-114q-23 0 -23 150z" />
    <glyph glyph-name="ucircumflex" unicode="&#xfb;" horiz-adv-x="1026" 
d="M756 1077h-51q-16 0 -33 13l-146 192l-143 -192q-16 -12 -33 -13h-55q-9 0 -2 13l164 231q16 29 32 29h72q19 0 37 -29l164 -231q4 -6 0 -9.5t-6 -3.5zM733 145q-147 -161 -289 -161q-133 0 -208.5 69.5t-75.5 212.5v621q0 41 18 41h119q25 0 25 -43v-576
q0 -137 68.5 -167.5t122.5 -30.5q102 0 162 71.5t60 155.5v543q0 25 2 36t13 11h112q16 0 21.5 -10.5t5.5 -34.5v-848q0 -35 -19 -35h-114q-14 0 -18.5 31.5t-4.5 113.5z" />
    <glyph glyph-name="udieresis" unicode="&#xfc;" horiz-adv-x="1077" 
d="M410 1294q26 0 26 -30v-107q0 -25 -18 -24h-113q-18 0 -23.5 3t-5.5 13v115q0 30 21 30h113zM702 1133q-36 0 -36 32v105q0 25 20 24h113q18 0 22 -4t4 -16v-111q0 -31 -16 -30h-107zM760 150q-147 -166 -292 -166q-284 0 -284 282v621q0 43 19 43h119q25 0 24 -45v-576
q0 -80 42 -138t148 -58t166 72.5t60 152.5v545q0 25 2 36t12 11h113q26 0 26 -45v-850q0 -35 -18 -35h-117q-20 0 -20 150z" />
    <glyph glyph-name="yacute" unicode="&#xfd;" horiz-adv-x="917" 
d="M485 1085h-69q-6 0 8 11l162 229q16 20 22 26.5t17 6.5h127q19 0 0 -17l-226 -231q-25 -25 -41 -25zM381 -365h-96q-14 0 -9 15l117 327l-338 945q-4 12 19 12h125q18 0 26 -29l256 -723l258 721q12 31 27 31h108q17 -1 11 -19l-463 -1245q-18 -35 -41 -35z" />
    <glyph glyph-name="thorn" unicode="&#xfe;" horiz-adv-x="1128" 
d="M338 725v-506q0 -41 12 -50t51 -9h246q121 0 201 75.5t80 236.5t-95.5 235.5t-244.5 74.5h-193q-57 -6 -57 -57zM598 928q539 0 539 -455q0 -227 -126 -346t-384 -119h-234q-37 0 -46 -11t-9 -50v-205q0 -16 -4 -21.5t-21 -5.5h-153q-16 0 -21.5 7.5t-5.5 29.5v1393
q0 16 6 20t29 4h147q14 0 17.5 -8t3.5 -28v-146q0 -27 8 -43t57 -16h197zM113 -432v43h192v-43h-192z" />
    <glyph glyph-name="ydieresis" unicode="&#xff;" horiz-adv-x="917" 
d="M340 1290q25 0 25 -30v-107q0 -23 -21 -23h-113q-28 0 -28 15v115q0 30 20 30h117zM725 1290q27 0 27 -20v-113q0 -27 -19 -27h-104q-35 0 -35 29v107q0 25 18 24h113zM381 -365h-98q-10 0 -7 13l119 327l-338 938q-4 12 17 13h127q18 0 28 -31l252 -717l256 717
q16 31 27 31h108q12 0 13.5 -4t-4.5 -17l-459 -1237q-21 -33 -41 -33z" />
    <glyph glyph-name="dotlessi" unicode="&#x131;" horiz-adv-x="448" 
d="M305 0h-149v924h149v-924z" />
    <glyph glyph-name="Lslash" unicode="&#x141;" horiz-adv-x="1003" 
d="M944 16q0 -12 -5 -14t-21 -2h-723q-14 0 -17.5 10t-3.5 39v506l-68 -33q-27 -12 -34 2l-49 84q-12 22 35.5 54t75.5 47.5t40 25.5v643q0 29 23 29h143q18 0 24.5 -9t6.5 -36v-524l145 82q16 8 25.5 10t15.5 -12l47 -76v2q8 -14 -1 -25.5t-34 -27.5l-198 -117v-479
q0 -35 16 -46.5t51 -11.5h488q14 0 16 -4t2 -14v-103z" />
    <glyph glyph-name="lslash" unicode="&#x142;" horiz-adv-x="595" 
d="M373 45q0 -27 -2 -36t-13 -9h-127q-14 0 -18 7t-4 34v512l-96 -51q-27 -14 -31 -2l-49 80q-10 14 -6 20t18 14l164 93v626q0 29 22 29h119q16 0 19.5 -7t3.5 -28v-530q120 66 128.5 64.5t12.5 -9.5l43 -70v2q8 -14 0 -24t-31 -27l-153 -100v-588z" />
    <glyph glyph-name="OE" unicode="&#x152;" horiz-adv-x="1533" 
d="M572 1092q-176 0 -242 -72.5t-66 -222.5v-445q0 -129 85.5 -190.5t198.5 -61.5t162.5 31t74 71t34.5 105v574q-30 211 -247 211zM1364 682q31 0 31 -4q-2 -23 -5.5 -49.5t-5.5 -48.5q-6 -13 -51 -13h-291q-37 0 -53 -13t-16 -48v-334q0 -43 19.5 -50t47.5 -7h416
q41 0 41 -11v-100q0 -8 -14 -8h-645q-13 0 -13 98q-78 -88 -163.5 -104.5t-127.5 -16.5t-119 10.5t-145.5 44t-116 100.5t-47.5 179v502q0 219 108 313.5t333 94.5q143 0 274 -91q0 70 8 70h479.5t161.5 -4v-102q0 -4 -57 -5h-379q-65 0 -65 -49v-295q0 -37 14 -48t45 -11
h336z" />
    <glyph glyph-name="oe" unicode="&#x153;" horiz-adv-x="1435" 
d="M643 580q0 75 -38 131.5t-78 82t-95 25.5q-100 0 -151.5 -71.5t-51.5 -235.5v-143q0 -139 51.5 -219t147.5 -80t155.5 71t59.5 123v316zM801 545q0 -33 5 -44.5t38 -11.5h348q29 0 34 12.5t5 41.5q-2 137 -50 210.5t-161 73.5t-166 -79t-53 -203zM1376 463q0 -29 -8 -41
t-41 -12h-534q0 -174 75.5 -251t193.5 -77q161 0 273 41q8 2 15.5 4t7.5 0v-86q0 -29 -97 -44t-194 -15q-158 0 -281 65q-2 -47 -18 -47h-92q-10 0 -15.5 4t-5.5 25v82q-35 -85 -144.5 -107t-161.5 -22q-125 0 -203 111.5t-78 335.5t72.5 350t211.5 126q104 0 186.5 -32.5
t116.5 -98.5v86q0 23 11 23h94q27 0 28 -37q106 59 254 59t241 -84t93 -256v-102z" />
    <glyph glyph-name="Scaron" unicode="&#x160;" horiz-adv-x="978" 
d="M559 1329h-70q-17 0 -34 29q-35 51 -76 106.5t-61 83.5q-26 36 -9 35h49q12 0 27 -10l137 -182q31 39 69 91t56 76t26.5 24.5t14.5 0.5h49q2 0 4 -2q4 -6 2 -8l-155 -217q-16 -27 -29 -27zM571 1112q-264 0 -264 -182q0 -84 61.5 -135t205.5 -109t234.5 -148t90.5 -204
t-73.5 -232t-351.5 -118t-376 65q-22 15 -7 70t20 56t33 -10q133 -52 276 -52q215 0 259 71.5t44 143.5t-59.5 128t-207.5 118t-232.5 139t-84.5 213t107.5 219.5t293.5 83.5q220 0 298 -36q6 -3 13 -5t9 -20.5t-3 -39t-16.5 -38t-23.5 -17.5q-144 39 -246 39z" />
    <glyph glyph-name="scaron" unicode="&#x161;" horiz-adv-x="808" 
d="M449 1036h-70q-16 0 -35 27l-156 219q-4 6 0.5 9t6.5 3h49q18 0 28 -12l140 -184q31 39 69.5 91t69.5 93q12 12 29 12h51q6 -6 4 -12l-156 -219q-20 -27 -30 -27zM461 831q-176 0 -176 -133q0 -51 51.5 -90t115.5 -73q138 -73 199.5 -139.5t61.5 -155.5t-29 -135
t-88.5 -80.5t-219.5 -34.5q-159 0 -261 51q-9 4 -9 37t4.5 45t12.5 10l22 -6q29 -10 80 -24.5t140 -14.5q194 0 194 141q1 111 -163 196q-140 72 -199.5 127t-59.5 126q0 124 92.5 182t203.5 58q180 0 241 -29q9 -19 -6 -50.5t-21 -35.5q-12 2 -65.5 15t-120.5 13z" />
    <glyph glyph-name="Ydieresis" unicode="&#x178;" horiz-adv-x="962" 
d="M377 1520q24 0 24 -25v-102q0 -23 -18 -23h-104q-16 0 -21.5 2t-5.5 12v111q0 25 18 25h107zM739 1520q27 0 27 -17v-106q0 -27 -16 -27h-99q-33 0 -33 29v100q0 20 17 21h104zM33 1200h147q12 0 29 -22l287 -533q0 2 22.5 40t69.5 119.5t121 206t89 155.5q15 30 19 32
t21 2h106q10 0 2 -10q-102 -190 -160 -299t-92.5 -170.5t-60 -111.5t-43 -81.5t-17.5 -35.5v-478q0 -14 -18 -14h-135q-10 0 -10 12v486l-381 696q0 6 4 6z" />
    <glyph glyph-name="Zcaron" unicode="&#x17d;" horiz-adv-x="901" 
d="M522 1323h-67q-17 0 -43 40t-87 121t-61 87t6 6h54q17 0 24 -12l139 -183l138 183q7 12 28 12h49q2 0 5 -2q4 -6 2 -8l-156 -217q-16 -27 -31 -27zM864 1153q0 -9 -612 -1036h586q41 0 41 -6v-101q0 -10 -27 -10h-807v51q0 17 8 29t11.5 18t41 70t128 212.5t423.5 704.5
h-551q-45 0 -43 19l5 88q5 10 22 10h774v-49z" />
    <glyph glyph-name="zcaron" unicode="&#x17e;" horiz-adv-x="714" 
d="M428 1026h-70q-15 0 -34 29l-156 221q-8 8 10 8h45q18 0 29 -10l139 -184q55 69 139 184q14 10 27 10h49q4 0 7 -3t1 -5l-155 -221q-10 -12 -16.5 -20.5t-14.5 -8.5zM698 14q0 -14 -20 -14h-602q-68 0 -31 47l442 748h-419q-12 0 -15.5 2t-3.5 12v61q0 12 14 13h588
q25 0 31 -7.5t0 -21.5l-459 -766h453q10 0 16 -2t6 -14v-58z" />
    <glyph glyph-name="florin" unicode="&#x192;" horiz-adv-x="614" 
d="M360 994q0 -77 62 -142h121q23 0 22 -12v-62q0 -16 -22 -16h-131v-776q0 -92 -50 -148t-155 -57q-106 0 -154 20q-17 8 -1 76q3 12 15 12q13 0 33 -6t58 -6t66 34q30 34 30 95v756h-109q-18 0 -18 14v60q0 14 8 14h117q-60 132 -30 246q14 57 60 96t133 39t148 -21
q15 -30 -8 -88q-120 27 -165 -20q-30 -31 -30 -108z" />
    <glyph glyph-name="circumflex" unicode="&#x2c6;" horiz-adv-x="681" 
d="M596 1090h-70q-21 0 -28 12l-152 201l-149 -201q-12 -12 -31 -12h-72q-4 0 6 14l176 246q14 24 31 24h74q16 0 33 -22l178 -248q10 -14 4 -14z" />
    <glyph glyph-name="caron" unicode="&#x2c7;" horiz-adv-x="681" 
d="M102 1370h70q24 0 31 -12l149 -201l152 201q10 12 31 12h69q4 0 -6 -14l-174 -246q-14 -23 -33 -23h-74q-18 0 -32 21l-179 248q-10 14 -4 14z" />
    <glyph glyph-name="breve" unicode="&#x2d8;" horiz-adv-x="681" 
d="M356 1106q-125 0 -168 90t-55 137q-6 10 4 10h56q12 0 13 -1l3 -7q39 -161 147 -161q81 0 111.5 67.5t40.5 95.5q6 6 14 6h56q6 0 5 -4t-1 -8q-68 -225 -226 -225z" />
    <glyph glyph-name="dotaccent" unicode="&#x2d9;" horiz-adv-x="681" 
d="M350 1309q33 0 55.5 -22.5t22.5 -55.5t-22.5 -56.5t-55.5 -23.5t-56.5 23.5t-23.5 56.5t23.5 55.5t56.5 22.5z" />
    <glyph glyph-name="ring" unicode="&#x2da;" horiz-adv-x="681" 
d="M351 1393q-52 0 -91 -37t-39 -90.5t39 -91t91 -37.5t89 37.5t37 91t-37 90.5t-89 37zM351 1444q75 0 126 -52.5t51 -126t-51 -126t-126 -52.5t-127 52.5t-52 126t52 126t127 52.5z" />
    <glyph glyph-name="ogonek" unicode="&#x2db;" horiz-adv-x="681" 
d="M403 -373q35 -1 70 13t46 27t24 10t14 -22q2 -18 -6 -28q-58 -65 -156 -65q-214 0 -217 168q0 93 138 203q40 32 83 59h56q-175 -153 -179 -260q0 -105 127 -105z" />
    <glyph glyph-name="tilde" unicode="&#x2dc;" horiz-adv-x="681" 
d="M461 1108q-29 0 -59.5 17t-87.5 51q-57 33 -90 34q-32 0 -65.5 -24.5t-49.5 -52.5l-64 32q36 90 90.5 122t82.5 32q38 0 120 -49t126 -49q71 0 118 86l2 2l67 -27q-35 -72 -80 -123t-110 -51z" />
    <glyph glyph-name="hungarumlaut" unicode="&#x2dd;" horiz-adv-x="681" 
d="M373 1092q10 22 125 272h159l-208 -272h-76zM29 1092q10 22 125 272h157l-209 -272h-73z" />
    <glyph glyph-name="Omega" unicode="&#x3a9;" horiz-adv-x="1331" 
d="M678 1284q-96 0 -164 -24.5t-131.5 -121t-63.5 -415.5t31 -400t75 -125t118 -94v-104h-373v100h217q-117 92 -167 251t-50 344t27.5 321.5t88 226.5t157 134t303.5 44t323.5 -173.5t116.5 -551.5q0 -186 -50.5 -344.5t-166.5 -251.5h217v-100h-371v104q74 49 118 93.5
t74.5 124.5t30.5 316t-20.5 351t-63.5 180.5t-111.5 90t-164.5 24.5z" />
    <glyph glyph-name="pi" unicode="&#x3c0;" horiz-adv-x="1210" 
d="M887 0v895h-529v-895h-135v1016h795v-1016h-131z" />
    <glyph glyph-name="uni0E00" unicode="&#xe00;" horiz-adv-x="399" 
 />
    <glyph glyph-name="uni0E01" unicode="&#xe01;" horiz-adv-x="1077" 
d="M993 709v-682q0 -27 -26 -27h-72q-27 0 -27 27v649q0 145 -97 200.5t-212 55.5t-186.5 -21.5t-89.5 -31.5t-23.5 -14.5t-5.5 -16.5v-825q-4 -23 -27 -23h-71q-27 0 -27 27v899q0 23 24 39q26 18 139 53.5t237 36.5q234 3 349 -103t115 -243z" />
    <glyph glyph-name="uni0E02" unicode="&#xe02;" horiz-adv-x="933" 
d="M90 1015.5q0 24.5 33 24.5h252q24 0 24 -26v-201q0 -59 -34.5 -97t-71.5 -70t-63.5 -62.5t-26.5 -71.5v-145q0 -148 71.5 -201t181.5 -53t166 21.5t69 31.5t14 24v801q0 49 26 49h72q27 0 26 -26v-905q0 -14 -12 -23q-191 -94 -325 -94q-414 0 -414 346v221q0 53 36 90
t72 67t61 58.5t25 63.5v61q0 35 -30 35h-133q-8 0 -17.5 6t-7.5 18.5t4 22.5t2 34.5z" />
    <glyph glyph-name="uni0E03" unicode="&#xe03;" horiz-adv-x="937" 
d="M711 991q0 49 26 49h72q27 0 27 -26v-905q0 -14 -13 -23q-191 -94 -325 -94q-414 0 -414 346v194q0 92 111 164q56 37 87 72q31 34 31 96v17q0 20 -3.5 35.5t-25.5 15.5t-36.5 -7t-20.5 -13.5t-15 -14.5t-20 -18t-17.5 -10.5t-19.5 11.5t-18.5 15.5t-8.5 5.5t-4 4.5
t-18 14.5t-36 12t-27 3t-6 16t4 34t4 35t9 16t28 2t74 -45q23 -20 40 -5q57 50 93 50h100q29 0 29 -28v-230q0 -78 -74 -128t-105.5 -81.5t-29.5 -74.5v-129q0 -148 71.5 -201t181.5 -53t166 21.5t69 31.5t14 24v801z" />
    <glyph glyph-name="uni0E04" unicode="&#xe04;" horiz-adv-x="1126" 
d="M360 496q-133 0 -133 -146v-321q0 -27 -26 -27h-74q-27 0 -27 27v778q0 31 9 43q54 102 180 155.5t247 53.5q219 0 354.5 -98t135.5 -250v-682q0 -27 -27 -27h-73q-27 0 -27 27v649q0 125 -96 198.5t-226 73.5q-131 0 -227 -46q-97 -46 -110 -69.5t-13 -56.5v-233
q0 -7 30 18t73 25h180q25 0 33 -27l6 -43q4 -23 -23 -22h-166z" />
    <glyph glyph-name="uni0E05" unicode="&#xe05;" horiz-adv-x="1159" 
d="M387 494q-133 0 -133 -146v-321q0 -27 -27 -27h-73q-27 0 -27 27v718q0 123 78 209q80 84 256 95q14 0 31 -11l73 -71q16 -14 23.5 -15.5t23.5 13.5l78 71q13 13 29 13q175 -8 255 -91q79 -82 79 -213v-718q0 -27 -27 -27h-74q-27 0 -26 27v718q-11 153 -176 175
q-39 6 -68 -23t-66 -55q-31 -27 -59 0q-16 12 -21 16l-38 39q-60 50 -152 0t-92 -152v-202q0 -6 6 -1t30.5 24.5t65.5 19.5h181q25 0 32 -27l6 -43q4 -23 -22 -22h-166z" />
    <glyph glyph-name="uni0E06" unicode="&#xe06;" horiz-adv-x="1089" 
d="M436 1040q29 0 29 -28v-230q0 -80 -71.5 -127t-104.5 -75t-33 -94t30.5 -134.5t118 -151.5t273.5 -83q87 0 122.5 29.5t50.5 71.5t15 114v684q0 25 25 24h78q23 0 22 -24v-684q0 -193 -89 -266.5t-218 -73.5t-245 65.5t-165 135.5q-12 16 -15 16t-3 -12v-177
q0 -23 -23 -22h-77q-25 0 -25 22v515q0 91 111 163q56 37 87 72q31 34 31 96v17q0 20 -4 35.5t-30 15.5q-32 0 -36 -4l-49 -50q-17 -17 -38 1l-39 32q-26 21 -45 21t-28 3t-6 19t5 35t4 31q2 18 29 18t80 -45q25 -20 41 -5q53 50 92 50h100z" />
    <glyph glyph-name="uni0E07" unicode="&#xe07;" horiz-adv-x="962" 
d="M526 1049q377 -14 377 -535q0 -242 -100 -379l-41 -45q-100 -90 -264 -90h-140q-16 0 -22 16l-285 955q-4 20 17 26l71 21q23 6 31 -19q72 -236 113 -370t63.5 -210.5t50.5 -169t35 -114.5q3 -10 53 -10q134 0 214.5 79t80.5 335q0 162 -34.5 234.5t-82 111.5t-122.5 49
q-22 4 -25 20l-12 68q-4 14 4 20.5t18 6.5z" />
    <glyph glyph-name="uni0E08" unicode="&#xe08;" horiz-adv-x="903" 
d="M422 0q-10 0 -16 6t-7 10l-145 453q-6 16 -14.5 19.5t-24.5 3.5h-41q-29 0 -20 44q8 44 16 47t12 3h129q19 0 25 -23q2 -2 12 -34.5t25.5 -80t34 -102.5t34 -103t26.5 -83t15 -45t9.5 -13.5t33.5 1.5q79 14 140.5 72.5t89.5 191.5q12 68 12 156t-12 169
q-22 149 -115 205.5t-207 56.5q-186 0 -358 -65q-16 -8 -27 10q-4 4 -10 14.5t-17 26.5t12 27q171 78 367 84h37q171 0 312.5 -86.5t142.5 -427.5q0 -251 -100 -400q-110 -137 -306 -137h-65z" />
    <glyph glyph-name="uni0E09" unicode="&#xe09;" horiz-adv-x="1048" 
d="M447 1051q51 0 101 -3.5t212 -51t162 -441.5v-530q0 -25 -23 -25h-84q-25 0 -24 25v157q0 10 -2.5 17.5t-19.5 -19.5q-41 -64 -141 -129t-227 -69q-152 6 -229 106q-66 82 -66 238v153q0 14 -16 15h-43q-27 0 -22 26l6 41q4 25 30 25h144q27 0 26 -27v-233
q0 -82 19.5 -122t26.5 -48q46 -52 135 -52q170 0 277.5 130t107.5 277q0 148 -28 232t-75 130.5t-111.5 60.5t-183.5 14t-286 -61q-4 -2 -12.5 -2t-16.5 10l-31 41q-19 22 19 39q96 44 210 60t165 16z" />
    <glyph glyph-name="uni0E0A" unicode="&#xe0a;" horiz-adv-x="952" 
d="M109 1017.5q0 24.5 32 24.5h252q25 0 25 -26v-201q0 -59 -35 -97t-72 -70t-63.5 -62.5t-26.5 -71.5v-145q0 -148 71.5 -201t181.5 -53t166 21.5t70 31.5t13 25v368q0 99 -63.5 127.5t-60.5 38.5q3 9 3 23t8 19t28 11t46 28q68 55 68 144v74q0 17 17 22q85 25 96.5 14
t11.5 -22v-59q0 -86 -33 -136t-86 -89q-12 -10 -9 -15.5t33.5 -37t48 -59.5t17.5 -103v-430q0 -14 -12 -23q-191 -94 -325 -94q-415 0 -415 346v221q0 53 36 90t72 67t61.5 58.5t25.5 63.5v61q0 35 -31 35h-133q-8 0 -17.5 6t-7.5 18.5t4.5 22.5t2.5 34.5z" />
    <glyph glyph-name="uni0E0B" unicode="&#xe0b;" horiz-adv-x="956" 
d="M883 1040v-59q-1 -137 -99 -211q-32 -24 -29 -29.5t32 -34.5t48 -59.5t19 -105.5v-432q0 -14 -12 -23q-191 -94 -325 -94q-415 0 -415 346v194q0 92 108 163t115 110t7 65t-4 44t-33 18t-49 -21l-33 -32q-17 -18 -33 -5t-25.5 19.5t-26.5 22.5t-54 16q-22 0 -19 18
q4 18 6 38t5 32q2 18 30 18t78 -45q25 -20 41 -4q49 49 92 49h101q28 0 28 -28v-230q0 -63 -27.5 -89.5t-48 -40.5t-46.5 -32t-57.5 -48.5t-29.5 -73.5v-129q0 -148 71.5 -201t181.5 -53t167.5 21.5t69.5 30.5t12 25v371q0 88 -84 135q-14 8 -28.5 15.5t-10.5 21.5l2 16
q2 16 10 20q8 5 28 11q18 6 44 28q68 55 68 144v74q0 18 20 23l78 14q27 4 27 -23z" />
    <glyph glyph-name="uni0E0C" unicode="&#xe0c;" horiz-adv-x="1654" 
d="M1589 1040q23 0 23 -22v-684q0 -197 -82.5 -273.5t-205.5 -76.5q-209 0 -291.5 118.5t-82.5 100.5v-178q0 -23 -22 -23h-80q-25 0 -25 23v647q0 145 -97 200.5t-211 55.5t-185.5 -22t-89.5 -32t-23.5 -14t-5.5 -16v-709q0 -14 16 -14h82q27 0 23 -27l-10 -71
q-4 -27 -31 -27h-178q-27 0 -27 27v899q0 20 10 28t14 10q24 17 138 53.5t238 37.5q234 3 349 -103t115 -243v-203q0 -166 96 -279.5t275 -113.5q84 0 125 46.5t41 178.5v684q0 23 24 22h78z" />
    <glyph glyph-name="uni0E0D" unicode="&#xe0d;" horiz-adv-x="1660" 
d="M1006 -246v84q0 10 6 15.5t15 2.5q102 -34 222 -34q208 0 312 104q6 6 16 7t16 -7l19 -18q16 -16 -3 -40q-60 -73 -143 -121t-209 -48t-235 35q-16 6 -16 20zM1599 1040q27 0 27 -26v-682q0 -237 -148 -292.5t-248 -54.5t-161 14t-117.5 33t-86.5 40q-29 20 -29 43v561
q0 144 -97.5 200t-212.5 56t-186.5 -21.5t-89.5 -31.5t-23.5 -14.5t-5.5 -16.5v-709q0 -14 17 -14h79q12 0 19.5 -8t3.5 -19l-10 -71q-4 -27 -29 -27h-178q-27 0 -27 27v899q0 23 24 39q26 18 139 53.5t237 36.5q234 3 349.5 -103.5t115.5 -242.5v-516q0 -12 5 -16.5
t23 -14.5q95 -53 224 -53t182 36.5t79.5 87t26.5 132.5v649q0 27 27 26h71z" />
    <glyph glyph-name="uni0E0E" unicode="&#xe0e;" horiz-adv-x="1083" 
d="M1014 709v-928q0 -113 -72 -172q-31 -27 -70 -41q-14 -2 -21 1q-108 46 -173 54q-132 16 -212 7.5t-153 -64.5q-6 -4 -16 -4t-14 8l-17 20q-11 18 10 39q148 148 375 123q100 -15 191 -51q16 -6 31.5 13.5t15.5 37.5v924q0 144 -97.5 200t-238.5 56t-252 -53
q-16 -10 -21.5 -14.5t-5.5 -16.5v-821q0 -27 -26 -27h-178q-27 0 -31 27l-10 71q-4 27 22 27h82q16 0 17 14v787q0 24 23 39q25 17 138 53t238 37q233 3 349 -103t116 -243z" />
    <glyph glyph-name="uni0E0F" unicode="&#xe0f;" horiz-adv-x="1083" 
d="M281 -354q108 0 205 53t119 83t40 22t47 -22.5t58.5 -31t54 -30t39.5 -20.5t31 12.5t16 39.5v924q0 144 -97.5 200t-238.5 56t-252 -53q-16 -10 -21.5 -14.5t-5.5 -16.5v-821q0 -27 -26 -27h-178q-27 0 -31 27l-10 71q-4 27 22 27h82q16 0 17 14v787q0 24 23 39
q25 17 138 53t238 37q233 3 349 -103t116 -243v-928q0 -113 -72 -172q-31 -27 -59 -38t-39 -1l-170 94q-10 4 -15.5 7t-10.5 3t-25 -10q-149 -102 -346 -102q-16 0 -21.5 9t-3.5 17l4 37q7 21 23 21z" />
    <glyph glyph-name="uni0E10" unicode="&#xe10;" horiz-adv-x="933" 
d="M145 -346q109 0 206.5 53t129.5 98q15 15 30 6t90 -46.5t99 -53.5q23 -10 39.5 8.5t16.5 40.5v60q4 20 22 20h80q23 0 23 -22v-29q0 -111 -72 -172q-31 -27 -59 -38t-39 -1l-170 94q-16 8 -23.5 10.5t-28.5 -10.5q-149 -102 -346 -102q-30 0 -24 27l4 36q7 21 22 21z
M512 117q143 0 203.5 35.5t60.5 89.5v123q0 90 -88 116l-403 82q-149 24 -187.5 101t-38.5 146q0 131 114.5 193t248.5 62t251 -29t124.5 -38t5.5 -17t-5 -26.5t-7 -31.5q-9 -29 -30 -21q-160 56 -283 56q-124 0 -175 -17t-84 -49.5t-33 -77.5q0 -75 39 -105t119 -45
l348 -70q104 -27 146.5 -91.5t42.5 -142.5v-122q-6 -102 -63.5 -164.5t-264.5 -73.5h-107q-39 0 -49 35l-84 258q-6 16 -14 19t-25 3h-41q-14 0 -19 10.5t-4 16.5t7 38q6 30 27 30h127q17 0 22 -16q4 -16 18.5 -56.5t30 -86.5t29 -84t15.5 -44t26 -6z" />
    <glyph glyph-name="uni0E11" unicode="&#xe11;" horiz-adv-x="1097" 
d="M362 1028q29 0 29 -29v-112q0 -14 9 -6q26 23 46 45q43 49 112.5 88t142.5 39t118 -17.5t75 -39t44 -39t14 -19.5q59 -86 60 -225v-690q0 -23 -23 -23h-78q-25 0 -24 23v690q0 70 -31 119t-65.5 72.5t-86.5 23.5q-87 0 -167.5 -49.5t-135.5 -104.5q-124 -139 -120 -334
v-417q0 -23 -23 -23h-80q-25 0 -24 23v423q0 101 33.5 173.5t51 97.5t24.5 37t27.5 39t20.5 61q0 68 -43 68q-38 0 -59 -21l-33 -33q-10 -10 -18 -10t-20 10t-20.5 16t-27.5 22t-37 16t-27.5 4t-6.5 19t5.5 33.5t5 34t27.5 15.5q26 0 80 -45q25 -20 42 -2q44 47 91 47h92z
" />
    <glyph glyph-name="uni0E12" unicode="&#xe12;" horiz-adv-x="1716" 
d="M326 -12q-100 0 -156 56t-68 102q-12 47 -14 75v533q0 123 78 209q81 85 256 94q16 0 31 -10l73 -72q16 -16 24.5 -17.5t22.5 15.5l78 71q13 13 29 13q176 -8 255 -90t79 -213v-248q0 -166 96 -279.5t274 -113.5q85 0 125.5 46t40.5 179v682q0 10 7.5 17t17.5 7h78
q23 0 22 -24v-682q0 -197 -82.5 -273.5t-178.5 -76.5q-150 0 -235 61.5t-147 149.5q-10 16 -13 17t-5 -9v-182q0 -23 -23 -23h-80q-24 0 -24 23v729q-5 67 -43.5 115t-132.5 59q-39 6 -58.5 -13.5t-39 -36t-33.5 -28.5q-31 -27 -60 0q-24 18 -48 42t-42 32t-55 3
q-79 -10 -119.5 -59t-40.5 -114v-508q0 -93 38.5 -112t60.5 -19h26q27 0 36 1q23 3 27 -24v-76q2 -12 -8.5 -20t-68.5 -8z" />
    <glyph glyph-name="uni0E13" unicode="&#xe13;" horiz-adv-x="1660" 
d="M1595 1044q23 0 23 -22v-999q0 -23 -23 -23h-79q-23 0 -23 23v176q0 12 -3 12.5t-18 -21.5q-143 -206 -360 -206q-186 0 -233.5 120.5t-47.5 229.5v342q0 145 -97 200.5t-212 55.5t-186.5 -21.5t-89.5 -31.5t-23.5 -14.5t-5.5 -16.5v-709q0 -14 16 -14h82q27 0 23 -25
l-10 -73q-4 -27 -31 -27h-178q-27 0 -27 27v899q0 23 24 39q26 18 139 53.5t237 36.5q234 3 349 -103t115 -243v-375q0 -191 64 -208t130 -17t137 32.5t138.5 115.5t67.5 249v516q0 23 23 22h79z" />
    <glyph glyph-name="uni0E14" unicode="&#xe14;" horiz-adv-x="1114" 
d="M340 -14q-100 0 -156 55t-67 103q-12 47 -15 75v592q0 24 15 47q76 150 229 177.5t233 27.5q176 0 312.5 -99t136.5 -249v-692q0 -23 -22 -23h-80q-23 0 -23 23v659q0 122 -96.5 201.5t-227.5 79.5t-226 -47q-94 -47 -109 -73t-15 -59v-540q0 -93 38.5 -112t60.5 -19h26
q27 0 35 1t17.5 -4.5t9.5 -19.5l2 -76q0 -22 -28 -26q-13 -2 -50 -2z" />
    <glyph glyph-name="uni0E15" unicode="&#xe15;" horiz-adv-x="1126" 
d="M360 -12q-100 0 -156 56t-67 102q-12 47 -14 75v533q0 123 78 209q81 85 256 94q17 0 30 -10l74 -72q16 -16 24.5 -17.5t22.5 15.5l78 71q13 13 29 13q176 -8 255 -90t79 -213v-725q0 -27 -27 -27h-74q-27 0 -26 27v725q-5 67 -43.5 115t-133.5 59q-38 6 -67 -23t-66 -55
q-31 -27 -59 0q-16 12 -21 16l-38 39q-60 50 -124.5 15t-92 -68t-27.5 -98v-508q0 -93 39 -112t60 -19h27q26 0 34 1q26 3 26 -24l2 -76q0 -22 -27 -26q-13 -2 -51 -2z" />
    <glyph glyph-name="uni0E16" unicode="&#xe16;" horiz-adv-x="1093" 
d="M991 711v-682q0 -27 -26 -27h-72q-27 0 -27 27v649q0 145 -97 200.5t-212 55.5t-186.5 -21.5t-89.5 -31.5t-23.5 -14.5t-5.5 -16.5v-709q0 -14 16 -14h80q27 0 23 -27l-11 -71q-4 -27 -30 -27h-176q-27 0 -27 27v899q-1 26 23 39q35 20 144 54.5t233 35.5
q233 3 348.5 -103t115.5 -243z" />
    <glyph glyph-name="uni0E17" unicode="&#xe17;" horiz-adv-x="1083" 
d="M985 25q0 -25 -22 -25h-78q-10 0 -17.5 7t-7.5 18v682q0 181 -76 198t-142 17t-144 -31t-163 -112t-85 -244v-512q0 -23 -23 -23h-77q-10 0 -17.5 7t-7.5 18v993q0 23 25 22h77q23 0 23 -22v-176q0 -12 3 -12.5t18 21.5q41 61 159 128.5t252 67.5q200 0 251.5 -116
t51.5 -224v-682z" />
    <glyph glyph-name="uni0E18" unicode="&#xe18;" horiz-adv-x="1034" 
d="M722.5 1032q123.5 -27 133.5 -37t8 -21t-4 -27.5t-8 -37.5t-26 -13q-147 56 -314 56q-160 0 -210 -49t-50 -95q0 -76 35 -104t119 -47l362 -69q186 -48 186 -236v-119q0 -106 -82.5 -173.5t-324 -67.5t-317.5 77.5t-90.5 123t-14.5 69.5v152q0 18 18 22t39 7t37 7
t22.5 -5t6.5 -19v-121q0 -61 50.5 -132t244.5 -71q131 0 194.5 27t87 52.5t23.5 56.5v118q0 96 -86 121l-412 80q-148 24 -186.5 101t-38.5 146t35 119t114 93t202 43t246.5 -27z" />
    <glyph glyph-name="uni0E19" unicode="&#xe19;" horiz-adv-x="1114" 
d="M158 1040h78q23 0 22 -22v-684q0 -184 76 -199.5t141 -15.5t143 30.5t164 113.5t86 243v512q0 23 25 22h78q23 0 22 -22v-995q0 -23 -22 -23h-78q-25 0 -25 23v176q0 12 -3 12.5t-18 -21.5q-45 -65 -162 -130.5t-249 -65.5q-199 0 -251 115.5t-52 224.5v684q0 22 25 22z
" />
    <glyph glyph-name="uni0E1A" unicode="&#xe1a;" horiz-adv-x="1136" 
d="M1020 332q0 -137 -114 -242.5t-357 -105.5q-180 5 -274.5 48t-106.5 52.5t-12 30.5v899q0 27 26 26h72q23 0 27 -22v-825q0 -12 5 -16.5t23 -14.5t90 -31.5t149 -21.5q347 0 347 256v649q0 27 27 26h71q27 0 27 -26v-682z" />
    <glyph glyph-name="uni0E1B" unicode="&#xe1b;" horiz-adv-x="1132" 
d="M1010 334q0 -137 -114 -242.5t-357 -105.5q-180 5 -274.5 48t-107 52.5t-12.5 30.5v899q0 27 27 26h72q23 0 26 -22v-825q0 -12 5.5 -16.5t23.5 -14.5t90.5 -31.5t148.5 -21.5q348 0 347 256v970q0 27 26 27h72q27 0 27 -27v-1003z" />
    <glyph glyph-name="uni0E1C" unicode="&#xe1c;" horiz-adv-x="1267" 
d="M1004 291v727q0 23 22 22h80q24 0 24 -22v-778q0 -163 -74 -204.5t-136 -41.5t-103 12t-70.5 30.5t-48 39t-29 39t-14.5 27t-7 8.5t-7 -9.5t-15 -25.5q-83 -121 -228 -121q-232 0 -232 246v774q0 27 27 26h176q27 0 30 -26l11 -72q4 -27 -23 -27h-82q-14 0 -14 -14v-604
q0 -72 25 -125t124 -53q141 0 152.5 123t11.5 182q2 14 9.5 18t13.5 7q15 0 34 2q19 1 24 -7t6 -38q9 -287 167 -287q96 0 121 53.5t25 118.5z" />
    <glyph glyph-name="uni0E1D" unicode="&#xe1d;" horiz-adv-x="1257" 
d="M1006 291v1048q0 23 22 23h80q25 0 25 -23v-1099q0 -162 -74.5 -204t-136.5 -42t-103 12t-70.5 30.5t-48 39t-28.5 39t-14.5 28t-7.5 8.5t-7 -10.5t-15 -25.5q-83 -121 -228 -121q-232 0 -232 246v774q0 27 27 26h176q27 0 30 -26l11 -72q4 -27 -23 -27h-82
q-14 0 -14 -14v-604q0 -72 25 -125t124 -53q141 0 152.5 123t11.5 182q2 14 9.5 18t13.5 7q15 0 34 2q19 1 24 -7t6 -38q9 -287 167 -287q96 0 121 53.5t25 118.5z" />
    <glyph glyph-name="uni0E1E" unicode="&#xe1e;" horiz-adv-x="1333" 
d="M164 1040h78q20 0 24 -20l113 -782l-4 -62l16 60q76 145 118 228q84 166 118.5 229.5t42.5 80.5q6 16 22.5 15t21.5 -10t17 -34.5t32.5 -63.5t46 -87t187.5 -358l19 -60l-4 62l112 782q4 20 25 20h78q24 0 24 -24l-137 -996q-4 -20 -24 -20h-78q-14 0 -23 12l-50 98
q-50 97 -86 164.5t-66.5 127t-52 99.5t-25.5 48t-12.5 8t-12.5 -8t-25.5 -48t-52.5 -98.5t-66.5 -126t-65.5 -126t-51.5 -97.5t-26.5 -46t-17 -7h-78q-20 0 -25 20l-137 996q0 24 25 24z" />
    <glyph glyph-name="uni0E1F" unicode="&#xe1f;" horiz-adv-x="1333" 
d="M156 1036h80q23 0 22 -18l115 -782l-4 -64l16 59q76 145 118 229t66.5 131.5t45 86.5t34 63.5t18.5 35.5t21.5 9t20.5 -11t17 -34.5t32.5 -63.5t45 -86t67.5 -131t118 -229l21 -59l-4 64l159 1101q7 21 23 21h80q24 0 24 -25l-186 -1317q0 -20 -23 -20h-77q-16 0 -23 12
l-20 39q-20 39 -51 97.5t-92.5 176t-69.5 132.5l-45 90q-14 18 -29 0q-2 -4 -23.5 -44t-52.5 -99.5t-66.5 -127t-66.5 -126t-51.5 -97.5t-24.5 -46t-18 -7h-80q-18 0 -23 20l-137 996q0 24 23 24z" />
    <glyph glyph-name="uni0E20" unicode="&#xe20;" horiz-adv-x="1087" 
d="M1012 709v-682q0 -27 -27 -27h-72q-27 0 -26 27v649q0 144 -97.5 200t-212.5 56t-186.5 -21.5t-89.5 -31.5t-23.5 -14.5t-5.5 -16.5v-821q0 -27 -26 -27h-178q-10 0 -19.5 9t-11.5 18l-10 71q-4 27 22 27h82q16 0 16 14v787q0 23 24 39q25 17 138 53t238 37
q233 3 349 -103t116 -243z" />
    <glyph glyph-name="uni0E21" unicode="&#xe21;" horiz-adv-x="1089" 
d="M961 1040q23 0 22 -22v-684q0 -195 -90.5 -267.5t-217.5 -72.5t-243 65t-166 136q-12 16 -15 16t-3 -12v-176q0 -23 -23 -23h-78q-25 0 -24 23v995q0 23 24 22h78q23 0 23 -22v-512q0 -162 116.5 -274.5t305.5 -112.5q88 0 138 44t50 171v684q0 23 25 22h78z" />
    <glyph glyph-name="uni0E22" unicode="&#xe22;" horiz-adv-x="1052" 
d="M498 956q0 -22 -23 -22q-210 -10 -227 -123q-10 -103 58.5 -151t154.5 -54q6 0 14 -6t6 -17t-4 -29t-6 -34t-22 -16q-90 4 -147.5 -39t-57.5 -143q0 -137 103.5 -171t197.5 -34t165.5 21.5t89.5 31.5t23.5 14t5.5 17v817q4 23 27 22h72q27 0 26 -26v-891q0 -24 -23 -39
q-26 -17 -143.5 -54.5t-241.5 -37.5t-195 23.5t-123 68.5t-79.5 111.5t-27.5 139.5t33.5 129t55.5 78t22.5 28t-14.5 20q-35 33 -61 88.5t-26 125.5q0 126 94 186.5t183 60.5q90 0 90 -31v-64z" />
    <glyph glyph-name="uni0E23" unicode="&#xe23;" horiz-adv-x="847" 
d="M477 946q-258 0 -258 -159q0 -64 63.5 -105t175.5 -78t175 -72.5t102 -75.5t54.5 -86t15.5 -92q0 -108 -98 -200t-283 -92q-116 0 -214 39.5t-106 48t-6 19.5t4 23t4.5 22l5.5 22q6 26 40 6q112 -64 255 -64t207 49t64 123t-55.5 122t-184.5 91q-208 57 -277 144.5
t-68 162.5q2 136 114 198.5t249 62.5q138 0 287 -58q20 -10 16 -23q-3 -13 -6 -28.5t-9.5 -36.5t-35.5 -8q-88 38 -231 45z" />
    <glyph glyph-name="uni0E24" unicode="&#xe24;" horiz-adv-x="1077" 
d="M991 709v-1110q0 -27 -26 -27h-72q-27 0 -27 27v1077q0 145 -97 200.5t-212 55.5t-186.5 -21.5t-89.5 -31.5t-23.5 -14.5t-5.5 -16.5v-709q0 -14 16 -14h80q27 0 23 -27l-11 -71q-4 -27 -30 -27h-176q-27 0 -27 27v899q-1 26 23 39q35 20 144 54.5t233 35.5
q233 3 348.5 -103t115.5 -243z" />
    <glyph glyph-name="uni0E25" unicode="&#xe25;" horiz-adv-x="1007" 
d="M322 -10h-19q-94 0 -164.5 67t-70.5 160v80q0 128 100 211q100 82 283 82h325q16 0 17 16v146q0 68 -56 128t-219 60t-309 -61q-4 -2 -13 -2t-14 10l-39 51q-6 8 -4.5 18.5t11.5 14.5t40.5 17t114 40t198.5 27q216 0 316.5 -86t100.5 -217v-729q0 -23 -23 -23h-82
q-23 0 -22 23v446q0 16 -19 16h-311q-127 0 -198.5 -47t-71.5 -127v-43l2 -49q1 -49 31 -80t63 -29.5t61 1.5t29 -23v-33l2 -39q0 -24 -47 -24q-10 -2 -12 -2z" />
    <glyph glyph-name="uni0E26" unicode="&#xe26;" horiz-adv-x="1083" 
d="M1012 709v-1110q0 -27 -27 -27h-72q-27 0 -26 27v1077q0 144 -97.5 200t-212.5 56t-186.5 -21.5t-89.5 -31.5t-23.5 -14.5t-5.5 -16.5v-821q0 -27 -26 -27h-178q-27 0 -31 27l-10 71q-4 27 22 27h82q16 0 16 14v787q0 23 24 39q25 17 138 53t238 37q233 3 349 -103
t116 -243z" />
    <glyph glyph-name="uni0E27" unicode="&#xe27;" horiz-adv-x="837" 
d="M397 1061q406 0 406 -526q0 -266 -103 -406q-104 -139 -303 -139h-14q-43 2 -92 9t-78 11q-27 4 -18 31q4 11 7 25t7 24q4 18 33 13q75 -13 151 -13t134 40q149 103 149 405q0 188 -51 288q-70 138 -246 138q-147 0 -291 -64q-2 0 -11 -1t-18 9q-6 11 -15 23
q-30 42 -8 50q21 9 53 23q137 60 308 60z" />
    <glyph glyph-name="uni0E28" unicode="&#xe28;" horiz-adv-x="1157" 
d="M367 494q-134 0 -134 -146v-321q0 -27 -26 -27h-74q-27 0 -27 27v778q0 68 115.5 160t351.5 92q176 0 301 -84q11 -8 47.5 4t73.5 38t47.5 32t14.5 9t9 4t13 -5t24.5 -23.5t45.5 -46.5q20 -24 -51 -53q-65 -35 -133 -35q-4 0 0 -4q68 -80 67 -184v-682q0 -27 -26 -27h-74
q-27 0 -27 27v649q0 125 -96 198.5t-223 73.5t-244 -51q-83 -41 -96 -64.5t-13 -56.5v-233q0 -7 30 18t73 25h180q25 0 33 -27l6 -43q4 -23 -23 -22h-165z" />
    <glyph glyph-name="uni0E29" unicode="&#xe29;" horiz-adv-x="1146" 
d="M1108 594q14 0 19 -9.5t3 -18.5t-4.5 -35.5t-25.5 -26.5h-86q-10 0 -11.5 -1t-1.5 -9v-162q0 -136 -113 -242t-358 -106q-120 4 -211.5 32.5t-123 43t-34.5 16.5t-13.5 10t-10.5 29v899q0 27 27 26h72q23 0 26 -22v-825q0 -12 5 -16.5t23 -14.5t91 -31.5t149 -21.5
q348 0 347 256v133q0 6 -9 6h-168q-29 0 -22 28q2 10 4 22t6 26t23 14h159q6 0 7 8v412q0 27 26 26h72q27 0 26 -26v-410q0 -10 7 -10h100z" />
    <glyph glyph-name="uni0E2A" unicode="&#xe2a;" horiz-adv-x="1105" 
d="M310 -10h-19q-94 0 -165 67.5t-71 159.5v80q1 127 101 210t282 83h326q16 0 16 16v146q0 69 -55.5 128.5t-218.5 59.5t-309 -61q-3 -2 -13 -2t-14 10l-39 51q-14 20 1 28q41 23 140 56t215 33q221 0 322 -88q4 -2 9.5 -7.5t78.5 37.5q43 31 53.5 37t18.5 12t21 -5t67 -68
q20 -24 -51 -54q-37 -16 -119 -34q-8 0 -4 -13q25 -55 24 -120v-729q0 -23 -22 -23h-82q-23 0 -23 23v446q0 16 -18 16h-311q-127 0 -199 -47t-72 -127v-43l2 -49q0 -45 31 -77.5t78 -32.5l53 2q8 0 15.5 -5.5t7.5 -17.5v-33l2 -39q0 -24 -47 -24q-10 -2 -12 -2z" />
    <glyph glyph-name="uni0E2B" unicode="&#xe2b;" horiz-adv-x="1075" 
d="M174 0q-24 0 -24 23v993q0 10 7 17t17 7h78q23 0 22 -24v-297q0 -16 6.5 -18.5t21.5 -2.5q60 0 191 25.5t207 121t97 181.5q0 4 5 11t17 7h84q23 0 23 -26q-10 -74 -80 -165t-148 -140q-27 -18 -27.5 -26.5t11.5 -37.5q80 -172 125 -270t70.5 -153.5t46 -100.5t33.5 -73
l14 -27q4 -6 0 -15.5t-17 -9.5h-94q-20 0 -20 14l-281 600q-4 12 -8 16.5t-34 -2.5q-30 -6 -96 -20t-101 -14t-40.5 -4t-5.5 -21v-546q0 -23 -22 -23h-78zM983 -3l2 -3q-2 1 -2 3zM983 -3l-2 3h4q-2 -2 -2 -3z" />
    <glyph glyph-name="uni0E2C" unicode="&#xe2c;" horiz-adv-x="1353" 
d="M1130 1231v74q0 16 21 20l82 16q23 0 22 -24v-57q0 -86 -32.5 -137.5t-83.5 -88.5q-14 -12 -11.5 -16t27.5 -30t51.5 -65.5t18.5 -103.5q-2 -12 -7.5 -54t-13.5 -100.5t-17 -129t-26 -190.5t-45 -325q-4 -20 -22 -20h-80q-16 0 -21 10l-20 40q-20 40 -51 97.5t-67 126
t-66.5 128t-52 99.5t-25.5 48t-13.5 6t-12.5 -8t-24.5 -46t-52 -99.5t-66.5 -127t-66 -126t-51.5 -97.5t-24.5 -45t-19 -6h-78q-20 0 -24 20q0 2 -6.5 45.5t-15.5 114t-39 285t-54 384.5q-23 171 -20 181t22 10h80q18 0 22 -20l113 -782l-4 -62l18 57q87 166 148 288
t80.5 160t33 63.5t18.5 34.5t21.5 10.5t22.5 -15.5q2 -4 14 -29.5t32.5 -64.5t45.5 -87t69 -131t119 -229l19 -57l-4 62l86 602q8 43 -18 77.5t-52 50.5t-40.5 21.5t-10.5 27t16 34.5q5 2 23 8t45 27q67 52 67 145z" />
    <glyph glyph-name="uni0E2D" unicode="&#xe2d;" horiz-adv-x="987" 
d="M349 944q-112 0 -216 -37h-8q-10 0 -12 13l-15 81q-2 10 13 17q143 41 249 41q241 0 409.5 -125.5t168.5 -429.5q0 -236 -137.5 -375t-378.5 -139q-178 0 -320 49q-20 8 -20 29v499q0 27 27 27h192q27 0 31 -25l6 -41q4 -27 -23 -26h-88q-22 0 -22 -27v-301
q0 -18 1.5 -30.5t27.5 -17.5q90 -17 165 -17q193 0 301.5 105t108.5 315t-99.5 291t-174 102.5t-186.5 21.5z" />
    <glyph glyph-name="uni0E2E" unicode="&#xe2e;" horiz-adv-x="1017" 
d="M131 901q-10 0 -12 12l-13 82q1 13 13 17q144 39 247 39q228 0 369 -93q22 -16 81 24q60 40 77.5 51t30.5 3l69 -69q12 -12 0.5 -23t-46.5 -29t-77 -27t-44.5 -10t3.5 -8q117 -139 117 -374t-137.5 -374.5t-378.5 -139.5q-171 0 -319 51q-20 8 -21 28v498q0 27 27 27h192
q24 0 29 -25l6 -41q4 -25 -22 -24h-86q-23 0 -23 -29v-301q0 -16 2 -28.5t28 -17.5q97 -19 165 -20q193 0 301 105.5t108 315.5t-126 312.5t-332 102.5q-110 0 -218 -35h-10z" />
    <glyph glyph-name="uni0E2F" unicode="&#xe2f;" horiz-adv-x="1112" 
d="M463 967q0 -23 -26 -23q-78 0 -106 -21.5t-44.5 -51t-16.5 -44.5v-7l4 -99q6 -78 76 -123t208 -45t187.5 37t49.5 61v365q0 8 6 16t16 8h80q23 0 23 -22v-1016q0 -64 -26 -125t-79 -98q-93 -82 -303 -82q-67 0 -117 16q-22 15 -16 29q7 17 25 56q8 17 24 14
q223 -35 294 41.5t73 148.5v485q0 14 -11.5 12.5t-43.5 -9.5t-89 -21q-57 -12 -122 -12q-149 0 -262.5 73t-119.5 218v81q0 89 65 146q85 74 226 74q25 0 25 -23v-59z" />
    <glyph glyph-name="uni0E30" unicode="&#xe30;" horiz-adv-x="579" 
d="M440 825q27 0 23 -23t-8 -49q-6 -40 -27 -40h-313q-23 0 -23 24v131q0 21 35 27q13 2 25 6t20 -4t8 -18v-45q0 -8 13 -9h247zM440 244q27 0 23 -24t-7 -44t-5 -26q-4 -18 -23 -19h-313q-23 0 -23 23v133q0 20 35 26q11 2 23 4t21 -4t9 -18v-43q0 -8 13 -8h247z" />
    <glyph glyph-name="uni0E31" unicode="&#xe31;" 
d="M117 1300q10 0 18 -6t5 -18t-7 -37t-6 -33q-4 -18 -25 -18h-571q-23 0 -23 24v131q0 21 35 27q11 2 23 6t21 -4t10 -18v-45q0 -8 12 -9h508z" />
    <glyph glyph-name="uni0E32" unicode="&#xe32;" horiz-adv-x="815" 
d="M651 0q-24 0 -24 23v706q0 129 -83 173.5t-170 46.5q-119 4 -173 -12.5t-80 -28.5q-25 -11 -34 -11t-17 12q-4 8 -10.5 17.5t-14.5 25.5t12 26q151 72 329 71q100 0 173.5 -33t129.5 -98.5t56 -206.5v-688q0 -23 -22 -23h-72z" />
    <glyph glyph-name="uni0E33" unicode="&#xe33;" horiz-adv-x="821" 
d="M-240 1257q39 0 64.5 27t25.5 66t-25.5 66.5t-64.5 27.5t-66.5 -27.5t-27.5 -66.5t27.5 -66t66.5 -27zM-241.5 1507q65.5 0 111.5 -46t46 -111.5t-46 -110.5t-111.5 -45t-111.5 45t-46 110.5t46 111.5t111.5 46zM395 1049q86 0 160 -33t130 -98.5t56 -206.5v-688
q0 -23 -22 -23h-72q-25 0 -24 23v706q0 129 -83 173.5t-170 46.5q-163 5 -259 -43q-19 -9 -28 -9t-17 12q-4 8 -10.5 17.5t-14.5 25.5t12 26t50 22t70 22t88 18.5t134 8.5z" />
    <glyph glyph-name="uni0E34" unicode="&#xe34;" 
d="M-762 1300h649q11 0 19 -8t5 -23t-9 -48t-27 -33h-649q-10 0 -19 9q-8 9 -4 23q5 14 9 36t8 33t18 11z" />
    <glyph glyph-name="uni0E35" unicode="&#xe35;" 
d="M-834 1300h568q16 0 16 13v106q0 23 23 23h75q25 0 25 -23v-209q0 -23 -25 -22h-694q-10 0 -18 9t-4 23t8 36t8 33t18 11z" />
    <glyph glyph-name="uni0E36" unicode="&#xe36;" 
d="M-280 1260q36 0 61 26t24 60t-25 58t-60 24t-60 -24t-22 -58q0 -34 23 -60t59 -26zM-944 1300h508q8 0 4 14t-4 32q0 66 44 110t111 45q66 0 112 -45t46 -105q0 -61 -30 -103q-31 -42 -65 -51t-63 -9h-677q-10 0 -19 9q-8 9 -4 23t8 36q5 22 9 33t20 11z" />
    <glyph glyph-name="uni0E37" unicode="&#xe37;" 
d="M-913 1300h464q12 0 13 11v106q0 23 22 23h43q25 0 25 -23v-104q0 -12 6 -13h76q10 0 10 15v102q0 23 23 23h75q25 0 25 -23v-205q0 -25 -25 -24h-770q-10 0 -18 9t-4 23t8 36t8 33t19 11z" />
    <glyph glyph-name="uni0E38" unicode="&#xe38;" 
d="M-145 -205q27 0 26 -26v-334q0 -23 -24 -23h-76q-23 0 -23 23v252q0 14 -16 14h-88q-27 0 -23 27l7 41q4 27 30 26h187z" />
    <glyph glyph-name="uni0E39" unicode="&#xe39;" 
d="M-141 -205q23 0 22 -22v-148q0 -96 -46 -151.5t-154 -55.5q-137 0 -171 70t-34 119v80q0 14 -17 14h-82q-27 0 -22 27l6 41q4 27 31 26h162q27 0 26 -26v-156q4 -55 24 -82t76 -27t76.5 29t20.5 92v148q0 23 22 22h60z" />
    <glyph glyph-name="uni0E3A" unicode="&#xe3a;" 
d="M-92 -361q0 -50 -36 -85t-88 -35t-90 34.5t-38 84.5t38 86t90 36t88 -35.5t36 -85.5z" />
    <glyph glyph-name="uni0E3F" unicode="&#xe3f;" horiz-adv-x="1105" 
d="M504 100q150 0 226 47t75 171q0 124 -78 181q-78 58 -213 58h-141q-35 0 -45 -12t-11 -41v-348q1 -20 9 -38t43 -18h135zM313 729q1 -29 11 -41t45 -12h141q147 0 211 52q63 52 63 170t-70 167q-71 49 -212 49h-137q-50 -6 -52 -53v-332zM586 1214q360 -34 360 -280
q0 -128 -70 -205q-70 -78 -176 -113q265 -87 265 -309q0 -137 -88 -217t-291 -90v-152q0 -29 -8 -28h-127q-16 0 -21 5q-4 5 -4 21v152h-252q-16 0 -16 25v1155q0 20 2 29t12 10h254v153q0 16 4 22t21 7h127q8 0 8 -31v-154z" />
    <glyph glyph-name="uni0E40" unicode="&#xe40;" horiz-adv-x="411" 
d="M246 1040q23 0 22 -22v-995q0 -23 -22 -23h-80q-23 0 -23 23v995q0 23 23 22h80z" />
    <glyph glyph-name="uni0E41" unicode="&#xe41;" horiz-adv-x="753" 
d="M248 1040q23 0 22 -22v-995q0 -23 -22 -23h-80q-23 0 -23 23v995q0 6 6.5 14t16.5 8h80zM625 1040q23 0 22 -22v-995q0 -23 -22 -23h-80q-23 0 -23 23v995q0 6 6.5 14t16.5 8h80z" />
    <glyph glyph-name="uni0E42" unicode="&#xe42;" horiz-adv-x="454" 
d="M115 1542q-80 0 -78 -90q0 -78 78 -113t117 -95q61 -90 63 -245v-976q0 -23 -23 -23h-77q-25 0 -25 23v1028q0 95 -40 146q-22 30 -56 55q-35 24 -67 46t-49 66q-17 45 -17 92q0 90 57 136t131 46h363q27 0 22 -26q-7 -53 -13 -62q-7 -8 -18 -8h-368z" />
    <glyph glyph-name="uni0E43" unicode="&#xe43;" horiz-adv-x="475" 
d="M274 1032v-1009q0 -23 -22 -23h-80q-23 0 -22 23v960q0 166 54 237.5t104 93.5t75 49.5t25 62.5t-20 84t-241 49q-62 1 -125 -19t-72 -17t-12 15q-2 12 -6 32t3.5 23.5t43.5 20.5q60 28 93 28h133q170 0 234.5 -61.5t64.5 -161.5t-113 -174q-20 -14 -68.5 -48.5
t-48.5 -164.5z" />
    <glyph glyph-name="uni0E44" unicode="&#xe44;" horiz-adv-x="466" 
d="M-18 1640h514q23 0 22 -24v-68q0 -126 -112 -188q-59 -39 -87 -77t-28 -134v-1126q0 -23 -23 -23h-78q-23 0 -22 23v1077q0 150 70 230t108 98q37 18 50.5 29t18.5 27q20 60 -7 60h-435q-14 0 -19 9.5t-3 17.5l8 49q0 6 7 13t16 7z" />
    <glyph glyph-name="uni0E45" unicode="&#xe45;" horiz-adv-x="780" 
d="M372 1053q91 0 222 -59t131 -279v-1112q0 -23 -23 -23h-73q-23 0 -23 23v1128q0 223 -301 223q-115 3 -227 -53q-4 -2 -13.5 -2t-15.5 9l-19 29q-20 29 -3 39q16 11 41.5 22.5t65.5 23.5t93.5 21.5t144.5 9.5z" />
    <glyph glyph-name="uni0E46" unicode="&#xe46;" horiz-adv-x="1052" 
d="M918 760v-1168q0 -23 -23 -22h-64q-25 0 -24 22v1168q0 73 -25 118t-112 56q-25 2 -40.5 -8.5t-31.5 -22.5l-57 -53q-8 -8 -18.5 -8t-16.5 6l-53 53q-16 16 -30.5 26.5t-51.5 5.5q-127 -17 -127 -161v-31q0 -59 30 -93t50 -41t23 -11t1 -15t-3 -22t-5 -25t-35 -14
t-64.5 24.5t-71.5 82t-38 137.5q0 129 70 205q75 87 207 94q14 0 27 -18t34 -39l25 -29q20 -23 29 -23t28 23l59 67q16 18 33 19q124 -7 205 -92q70 -82 70 -211z" />
    <glyph glyph-name="uni0E47" unicode="&#xe47;" 
d="M-680 1493q-88 0 -88 -82q0 -35 14.5 -62.5t71.5 -27.5h64q65 0 110 45q18 18 28 16t37 -8t60 -14t62 -15.5t39 -9.5q24 -5 24 -22v-39q0 -10 -8 -18.5t-24 -4.5t-40 10.5t-46.5 12.5t-42 11t-35.5 11t-24 4t-22 -16q-47 -49 -133 -49h-65q-64 0 -116 43t-52 121t51 129
t168 51h381q14 0 19 -11.5t3 -15.5t-2 -9t-6 -32q0 -18 -24 -18h-404z" />
    <glyph glyph-name="uni0E48" unicode="&#xe48;" 
d="M-150 1786q23 0 23 -23v-204q0 -23 -23 -23h-79q-23 0 -23 23v204q0 23 23 23h79z" />
    <glyph glyph-name="uni0E49" unicode="&#xe49;" 
d="M-395 1536q-15 0 -21 18v95q0 10 -3 12t-13 2h-70q-12 0 -17 9.5t-2 15.5t5 14t6 18.5t5 18.5q2 20 22 20h125q18 0 18 -20v-90q0 -10 3 -13.5t15 -3.5h240q12 0 16.5 -9t2.5 -19l-5 -25l-4 -25q-6 -18 -18 -18h-305z" />
    <glyph glyph-name="uni0E4A" unicode="&#xe4a;" 
d="M-59 1769q0 -215 -195 -233q-18 0 -18 20q0 104 -78 121q-20 4 -30 -7q-10 -10 -22 -26q-24 -34 -47 -2q-10 16 -20 28t-41 4q-53 -12 -53 -87v-31q0 -20 -19 -20h-39q-16 0 -16 28q0 85 35 128q41 41 104 47q16 3 30 -15t26 -27t26 1t28 25t34 16q80 -4 121 -47
q18 -23 26 -50q8 -26 6 -36q0 -11 27 15q27 25 29 77l-2 57q0 15 10 19q11 4 27 7t32 7t19 -19z" />
    <glyph glyph-name="uni0E4B" unicode="&#xe4b;" 
d="M-18 1733q16 0 16 -19v-33q0 -16 -16 -16h-88q-16 0 -18.5 -2t-2.5 -18v-78q0 -23 -23 -23h-67q-25 0 -25 23v78q0 16 -2 18t-18 2h-86q-18 0 -19 16v33q0 18 19 19h86q16 0 18 2t2 18v74q0 23 25 22h67q23 0 23 -22v-74q0 -16 2 -18t19 -2h88z" />
    <glyph glyph-name="uni0E4C" unicode="&#xe4c;" 
d="M-78 1716q10 0 18 -9t5 -23q-4 -14 -7 -28t-6 -22q-4 -18 -22 -18h-234q-12 0 -12 -8v-45q0 -25 -22 -21t-30 5q-36 4 -36 26v121q0 23 25 22h321z" />
    <glyph glyph-name="uni0E4D" unicode="&#xe4d;" 
d="M-143 1359q0 42 -30 72.5t-73 30.5t-72.5 -30.5t-29.5 -72.5t29.5 -72t72.5 -30t73 30t30 72zM-66 1360q0 -37 -14 -70t-38.5 -57.5t-57.5 -38.5t-70 -14t-69.5 14t-57 38.5t-39 57.5t-14.5 70t14.5 70.5t39 58t57 39t69.5 14.5t70 -14.5t57.5 -39t38.5 -58t14 -70.5z
" />
    <glyph glyph-name="uni0E4E" unicode="&#xe4e;" 
 />
    <glyph glyph-name="uni0E4F" unicode="&#xe4f;" horiz-adv-x="1064" 
d="M371 408q0 76 52 128t128 52t129 -52t53 -129t-52 -129q-52 -51 -129 -52q-77 -2 -129 52t-52 130zM776 631q-94 94 -223 94t-225 -94q-94 -94 -93 -223t93 -224q94 -94 223 -94t223 93t94 223q0 131 -92 225zM879 410q0 -134 -96 -233t-232 -98t-231 98t-95 232t96 231
t232 96q135 0 231 -96t95 -230z" />
    <glyph glyph-name="uni0E50" unicode="&#xe50;" horiz-adv-x="1060" 
d="M547 94q141 0 210 77t68 204v47q0 127 -68 204q-69 76 -210 76t-207 -76t-66 -204v-47q0 -127 66 -204t207 -77zM546 803q179 0 294 -96t112 -252v-113q0 -157 -113 -253q-113 -97 -293 -96q-179 1 -289 98q-109 97 -107 251v113q0 78 28 142q59 131 206 181
q73 24 162 25z" />
    <glyph glyph-name="uni0E51" unicode="&#xe51;" horiz-adv-x="1114" 
d="M563 788q182 0 297 -77t115 -174v-367q0 -204 -201 -299q-74 -35 -182 -43q-4 -2 -13 2t-12 16q-2 12 -5 26q-9 45 20 46q177 9 243 130q27 48 27 124l-2 338q0 80 -73 129t-214 49q-217 0 -289 -147v-283q0 -49 29 -90t84 -41h55q4 -2 11 -4q12 -9 13 -23t1 -39v-32
q0 -12 -12 -21t-67 -8q-108 0 -173 75t-65 185v299q90 229 413 229z" />
    <glyph glyph-name="uni0E52" unicode="&#xe52;" horiz-adv-x="1234" 
d="M995 487q0 154 -135 175q-25 0 -43 -12t-29 -17l-75 -68q-4 -4 -12.5 -3t-12.5 5l-74 66q-10 6 -28 17t-45 10q-26 -1 -48 -12t-31 -10t-13.5 11t-16.5 30.5t-19 34.5t7 29q67 41 153 45q19 0 39 -20l66 -70q16 -16 24.5 -15t24.5 17l72 70q12 18 32 18q205 0 245 -119.5
t40 -181.5v-249q0 -117 -67.5 -166t-106.5 -60.5t-57 -11.5h-496q-97 0 -165 70t-68 168v725q0 15 20 22l74 12q6 2 16 -4t10 -18v-737q0 -113 134 -113h252l223 2q45 0 77.5 31.5t32.5 79.5v249z" />
    <glyph glyph-name="uni0E53" unicode="&#xe53;" horiz-adv-x="1198" 
d="M496 12q0 -17 -19 -23t-67 -5q-99 0 -163.5 72.5t-68.5 187.5v245q0 127 79 211t224 93q29 0 50 -27.5t43 -55.5t34.5 -25t34.5 27t44 52.5t52 28.5q149 -8 228 -92q80 -85 80 -212v-466q0 -23 -23 -23h-76q-24 0 -24 23v466q0 111 -63.5 147.5t-98.5 29.5t-62 -29
l-75 -66q-18 -13 -31 0l-70 64q-38 30 -69 29q-102 -15 -126 -59.5t-24 -115.5v-247q0 -49 25.5 -91t85.5 -42l55 2q22 0 25 -23v-76z" />
    <glyph glyph-name="uni0E54" unicode="&#xe54;" horiz-adv-x="1142" 
d="M748 211q0 -47 43 -55q13 0 107 -20t107 -23q30 -6 27 -27q-2 -12 -3 -30t-3 -29q-4 -21 -27 -15l-251 49q-23 6 -36 2q-13 -5 -51 -27q-37 -22 -85 -29t-60 -7h-147q-94 0 -159 113t-66 279q-1 167 93 283t250 116h281q107 0 127 14q35 25 35 121v39q0 21 25 23
q11 1 25 4t26 5q14 2 22 4t18 -3t11 -19v-76q0 -101 -68 -161t-155 -64h-316q-127 0 -201 -79q-73 -79 -73 -204t40 -201t111 -77h123q25 0 63 18t44 26t6 56q0 49 18 94q48 121 193 170q18 6 25 -5t9 -29q3 -19 6 -35t-16 -21q-120 -42 -118 -149v-31z" />
    <glyph glyph-name="uni0E55" unicode="&#xe55;" horiz-adv-x="1153" 
d="M612 977q-39 0 -66.5 -27.5t-27.5 -66.5t27.5 -65.5t66.5 -26.5t64.5 26.5t25.5 65.5t-25.5 66.5t-64.5 27.5zM942 965q0 22 19 22q20 2 35 6t27.5 5t17.5 3t16.5 -3t11.5 -19v-76q0 -101 -68.5 -161t-154.5 -64h-316q-127 0 -200.5 -79t-73.5 -204t40 -201.5t112 -76.5
h122q32 0 66.5 18.5t40.5 27.5t6 56q0 94 58.5 162t152.5 100q26 9 31 -14q2 -6 4 -22.5t5 -31.5t-17 -22q-117 -41 -117 -149v-31q0 -47 43 -55q6 0 36.5 -6.5t66.5 -13.5t70 -14t44 -9q29 -6 23 -34q-5 -29 -6 -45t-11 -20t-16 -2l-250 49q-23 6 -36 2t-63 -34t-133 -29
h-147q-95 0 -160 114t-65 279q0 166 87.5 277t239.5 121q-31 37 -31 97t46.5 106t112 46t111.5 -46t46 -103t-33 -100h45q107 0 134.5 19t27.5 116v39z" />
    <glyph glyph-name="uni0E56" unicode="&#xe56;" horiz-adv-x="1134" 
d="M383 223q0 -49 28 -76t95 -34h166q127 0 200.5 72.5t73.5 226.5q0 266 -274 266h-314q-87 4 -156 64t-69 161v76q0 14 10.5 19.5t16.5 3.5t18 -3.5t28 -5.5t28 -5q26 -2 26 -23v-43q0 -94 25 -112.5t121 -18.5h299q147 0 244.5 -103.5t97.5 -282.5t-93.5 -292
t-248.5 -113h-187q-125 0 -193 70q-69 70 -69 156t7.5 98t15.5 12l79 12q6 2 16.5 -2t10.5 -14v-6l-1 -28z" />
    <glyph glyph-name="uni0E57" unicode="&#xe57;" horiz-adv-x="1464" 
d="M1329 975v-709q0 -111 -65.5 -188.5t-190.5 -77.5h-164q-20 4 -20 23v466q0 69 -29 116t-125 59q-31 8 -69 -27l-76 -66q-18 -13 -31 0l-70 64q-38 30 -69 29q-102 -15 -126 -59.5t-24 -115.5v-247q0 -89 39 -111t72 -22l53 2q25 0 25 -23l2 -76q0 -14 -21 -24
q-20 -4 -67 -4t-90 19t-69 45q-71 70 -71 196v245q0 127 79 211t224 93q20 1 32 -15t21 -24.5t16 -17t27 -30.5t32 -20t40 31l54 53q6 6 14 14.5t23 8.5q148 -8 227 -92q80 -85 80 -212v-391q0 -14 2 -14h39q72 0 111.5 47t43.5 117v715q0 15 21 22l74 12q6 2 16 -3t10 -19z
" />
    <glyph glyph-name="uni0E58" unicode="&#xe58;" horiz-adv-x="1140" 
d="M946 975q0 22 19 22q20 3 35 7t27.5 5t18.5 3t16.5 -3t10.5 -20v-74q0 -102 -67 -162.5t-156 -64.5h-315q-154 0 -228 -127q-39 -72 -39 -163q0 -159 46.5 -216t136.5 -67q33 -3 65 20l82 74q12 8 29 -4l65 -62q28 -28 74 -28q149 18 149 170q0 23 -6 37t-6 23t17.5 23
t36.5 27q20 12 29.5 5t19.5 -39t10 -72q0 -129 -76 -209t-207 -92q-15 -5 -28 10q-13 16 -21 26.5t-17 19t-25 24.5q-34 36 -75 -9q-8 -8 -16 -17.5t-28 -31.5t-46 -22q-139 0 -227 92q-29 31 -59.5 111.5t-30.5 168.5t14 160q41 164 156 234q76 47 172 47h280q51 0 83 1
t56.5 17t24.5 117v39z" />
    <glyph glyph-name="uni0E59" unicode="&#xe59;" horiz-adv-x="1144" 
d="M147 244v243q0 127 77 209t284 95q14 0 20 -19l27 -51q27 -51 94.5 7t183 58t138 14.5t29 42t6.5 79.5v41q0 19 23 24q9 2 38 7t38 7t18.5 -5t9.5 -17v-78q0 -102 -69 -163.5t-155 -61.5h-65q-73 0 -120.5 -31t-65 -60.5t0.5 -68.5q68 -137 106 -214t59.5 -120t39 -77.5
t28.5 -56t13 -26.5t-2 -13.5t-14 -8.5h-70q-14 0 -20 14l-324 629q-10 19 -51 19q-94 -10 -123 -57t-29 -118v-247q0 -79 33 -105t80 -26l49 2q25 0 25 -5l2 -96q3 -16 -21 -24q-28 -4 -55 -4q-100 0 -169 68t-69 194z" />
    <glyph glyph-name="uni0E5B" unicode="&#xe5b;" horiz-adv-x="1699" 
 />
    <glyph glyph-name="endash" unicode="&#x2013;" horiz-adv-x="968" 
d="M985 473q0 -12 -8 -16t-33 -4h-911q-25 0 -25 14v84q0 16 7.5 18t23.5 2h905q20 0 30.5 -1t10.5 -11v-86z" />
    <glyph glyph-name="emdash" unicode="&#x2014;" horiz-adv-x="1574" 
d="M1614 473q0 -14 -8.5 -17t-36.5 -3h-1542q-25 0 -25 14v84q0 16 6 18t23 2h1538q23 0 34 -2t11 -12v-84z" />
    <glyph glyph-name="quoteleft" unicode="&#x2018;" horiz-adv-x="409" 
d="M113 971q-21 0 -17 10q20 98 78 179t133 132q9 6 19 2t-10 -48t-39 -133t-22 -116t-11 -26h-131z" />
    <glyph glyph-name="quoteright" unicode="&#x2019;" horiz-adv-x="409" 
d="M180 1292h131q11 0 15 -3t2 -9q-20 -98 -78 -178t-133 -131q-10 -6 -20 -2q-9 5 0 23q50 104 73 278q6 22 10 22z" />
    <glyph glyph-name="quotesinglbase" unicode="&#x201a;" horiz-adv-x="411" 
d="M168 129h129q12 0 15 -3t1 -9q-19 -98 -79 -178t-132 -132q-8 -6 -16 0t-8 11q64 165 76 291q0 20 14 20z" />
    <glyph glyph-name="quotedblleft" unicode="&#x201c;" horiz-adv-x="724" 
d="M244 975q0 -6 -11 -6h-131q-20 0 -16 12q23 98 81 179t130 132q10 6 19 2t6 -12q-54 -122 -76 -289q-2 -12 -2 -18zM578 975q0 -6 -9 -6h-131q-20 0 -16 12q23 98 81 179t130 132q10 6 19 2t5 -12q-79 -180 -79 -307z" />
    <glyph glyph-name="quotedblright" unicode="&#x201d;" horiz-adv-x="714" 
d="M643 1296q12 0 15 -3t1 -11q-23 -98 -81 -178t-129 -131q-10 -6 -20 -2q-9 3 0 23q35 76 53 162q18 85 20 113t10 27h131zM307 1296q11 0 15 -3t2 -11q-23 -98 -81 -178t-130 -131q-10 -6 -20 -2q-9 3 0 23q35 76 53 162q18 85 20 113t10 27h131z" />
    <glyph glyph-name="quotedblbase" unicode="&#x201e;" horiz-adv-x="714" 
d="M166 124q0 7 8 7h131q11 0 15 -3t2 -9q-20 -98 -80 -176t-131 -131q-10 -8 -18 -2q-7 6 -7 10q57 125 78 291q2 6 2 13zM641 131q12 0 15 -3t1 -9q-20 -98 -76 -180t-135 -127q-10 -6 -17 -1t-7 9q41 91 57 175l19 103q6 33 12 33h131z" />
    <glyph glyph-name="dagger" unicode="&#x2020;" horiz-adv-x="1024" 
d="M580 168q0 -29 -13 -29h-86q-12 0 -16 5.5t-4 27.5v473h-213q-25 0 -25 14v68q0 16 7.5 18.5t25.5 2.5h205v247q0 29 20 29h84q10 0 12.5 -6t2.5 -23v-247h204q20 0 28.5 -1.5t8.5 -11.5v-71q0 -14 -10 -16.5t-33 -2.5h-198v-477z" />
    <glyph glyph-name="daggerdbl" unicode="&#x2021;" horiz-adv-x="1024" 
d="M567 965q15 0 15 -31v-221h204q20 0 28.5 -1t8.5 -12v-71q0 -16 -10 -18.5t-33 -2.5h-198v-162h209q16 0 21 -2t5 -16v-66q0 -14 -8 -16t-29 -2h-198v-233q0 -20 -2 -24.5t-11 -4.5h-84q-12 0 -16 5t-4 28v229h-211q-31 0 -31 8v72q0 16 7.5 19t27.5 3h207v162h-215
q-25 0 -25 17v65q0 16 8.5 19.5t24.5 3.5h207v221q0 16 3 23.5t15 7.5h84zM422 -344v43h199v-43h-199z" />
    <glyph glyph-name="bullet" unicode="&#x2022;" horiz-adv-x="724" 
d="M543 627q0 -72 -51 -123t-124 -51t-124 51t-51 123t51 123t124 51t124 -51t51 -123z" />
    <glyph glyph-name="ellipsis" unicode="&#x2026;" horiz-adv-x="2048" 
d="M1147 154q33 0 33 -21v-92q0 -13 -2 -27t-19 -14h-131q-35 0 -35 35v92q0 25 13 27h141zM578 127q0 25 12 27h143q23 0 27 -6t4 -15v-92q0 -13 -2 -27t-17 -14h-133q-35 0 -34 35v92zM156 127q0 25 12 27h143q23 0 27 -6t4 -15v-92q0 -13 -2 -27t-16 -14h-134
q-35 0 -34 35v92z" />
    <glyph glyph-name="perthousand" unicode="&#x2030;" horiz-adv-x="1822" 
d="M430 995q0 152 -117 152q-80 0 -107.5 -44t-27.5 -116v-158q0 -55 33 -89.5t99 -34.5t93 37.5t27 82.5v170zM1112 354q0 59 -26.5 105.5t-99.5 46.5t-99.5 -44t-26.5 -114v-160q0 -53 33 -87.5t98.5 -34.5t93 38.5t27.5 79.5v170zM1694 354q0 152 -126 152
q-74 0 -100 -44t-26 -114v-160q0 -53 31.5 -87.5t97 -34.5t94.5 38.5t29 79.5v170zM524 813q0 -102 -61 -147t-159 -45q-97 0 -158.5 47t-61.5 145v203q0 109 61.5 164t165.5 55q144 0 178.5 -75t34.5 -134v-213zM373 0h-78q-18 0 -4 27v-2l600 1167q23 37 51 37h51
q4 -2 15 -6t2 -13l-602 -1173q-12 -23 -18.5 -30t-16.5 -7zM1204 174q0 -102 -61 -147t-159 -45q-97 0 -159.5 47t-62.5 145v201q0 111 62.5 166t166.5 55q140 0 176.5 -75t36.5 -134v-213zM1786 174q0 -102 -61 -147t-159 -45q-97 0 -158.5 47t-61.5 145v201q0 111 61 166
t164 55q142 0 178.5 -75t36.5 -134v-213z" />
    <glyph glyph-name="guilsinglleft" unicode="&#x2039;" horiz-adv-x="552" 
d="M463 145q4 -8 2 -10l-86 -47q-10 -6 -17 8l-258 367l248 364q8 18 23 11l65 -39q18 -14 11 -25l-218 -311z" />
    <glyph glyph-name="guilsinglright" unicode="&#x203a;" horiz-adv-x="552" 
d="M98 135q-2 2 2 10l230 318l-219 311q-6 10 -8 12q-1 2 1 7l84 45q14 8 23 -11l248 -364l-258 -367q-10 -12 -19 -8z" />
    <glyph glyph-name="fraction" unicode="&#x2044;" horiz-adv-x="864" 
d="M12 -354h-98l960 2080h99z" />
    <glyph glyph-name="Euro" unicode="&#x20ac;" horiz-adv-x="919" 
d="M529 -18q-433 0 -433 360v80h-59q-27 0 -27 14v66q0 16 7 18t24 2h55v152h-59q-27 0 -27 14v66q0 14 7 16t24 2h55v64q0 323 256 385q78 18 161 18q191 0 275 -46q20 -11 33 -19q12 -12 -9 -60t-26 -47q-64 55 -292 55q-197 0 -223 -174q-9 -59 -9 -139v-37h273
q45 0 45 -10v-68q0 -14 -8 -17t-35 -3h-275v-152h273q23 0 33 -1t12 -11v-66q0 -16 -8 -19t-35 -3h-275v-80q0 -131 72 -189q72 -59 175 -59t167 20t117 44q11 4 17 -37q6 -40 5 -59q0 -19 -4 -21q-31 -23 -112 -41t-170 -18z" />
    <glyph glyph-name="trademark" unicode="&#x2122;" horiz-adv-x="1607" 
d="M664 1403q4 0 4 -3v-23q0 -19 -2 -19h-156q-31 0 -38 -5t-7 -22v-547q0 -12 -4 -12h-70q-4 0 -4 12v547q0 16 -7 21.5t-36 5.5h-149q-8 0 -9 6v20q0 19 4 19h474zM1319 772q-10 0 -10 12v500q0 57 -10.5 41t-43.5 -68l-151 -247q-8 -14 -18.5 -13.5t-18.5 13.5l-141 241
q-27 41 -41.5 56.5t-14.5 -29.5v-504q0 -2 -4 -2h-63q-4 0 -7 1t-3 11v611q0 8 4 8h75q8 0 13 -6l182 -287q25 -40 49 0l172 276q12 16 19 17h82v-627q0 -4 -3 -4h-67z" />
    <glyph glyph-name="partialdiff" unicode="&#x2202;" horiz-adv-x="1015" 
d="M248 498q0 -387 287 -387q225 0 251.5 150.5t26.5 227.5q0 156 -71 257.5t-207 101.5q-287 0 -287 -350zM539 1479q190 0 298.5 -120t108.5 -339v-522q0 -248 -103 -382t-313 -134t-323 138t-113 372t108.5 359.5t315.5 125.5q122 0 195 -62.5t98 -97.5v215
q0 162 -65.5 242t-228.5 80q-162 0 -294 -33v111q126 47 316 47z" />
    <glyph glyph-name="Delta" unicode="&#x2206;" horiz-adv-x="1234" 
d="M635 1337l-449 -1239h893zM31 0l547 1489h110q139 -379 272.5 -744.5t272.5 -744.5h-1202z" />
    <glyph glyph-name="product" unicode="&#x220f;" horiz-adv-x="1425" 
d="M1085 -473v1923h-712v-1923h-148v2066h1012v-2066h-152z" />
    <glyph glyph-name="summation" unicode="&#x2211;" horiz-adv-x="1112" 
d="M115 -281v113l440 848l-438 803v110h907v-151h-727l418 -735v-64l-414 -784h725v-140h-911z" />
    <glyph glyph-name="minus" unicode="&#x2212;" horiz-adv-x="1196" 
d="M1100 805v-133h-973v133h973z" />
    <glyph glyph-name="radical" unicode="&#x221a;" horiz-adv-x="1150" 
d="M1110 1489v-103h-188l-453 -1386h-100q-139 424 -338 1016h125l264 -817l414 1290h276z" />
    <glyph glyph-name="infinity" unicode="&#x221e;" horiz-adv-x="1654" 
d="M250 551q0 -100 61.5 -160.5t153.5 -60.5t157.5 56t143.5 153v24q-97 117 -156 164t-148 47t-150.5 -61.5t-61.5 -161.5zM1444 551q0 100 -60.5 160.5t-151.5 60.5t-162 -60.5t-152 -160.5q82 -100 152.5 -160.5t161.5 -60.5t151.5 60.5t60.5 160.5zM848 469
q-195 -240 -365 -240q-157 0 -247.5 94t-90.5 230t90.5 230t231.5 94q100 0 190.5 -59.5t190.5 -182.5q100 123 188 182.5t178 59.5t148.5 -26t100.5 -69t64.5 -102t22.5 -162t-89 -194t-212 -91q-124 0 -212.5 56.5t-188.5 179.5z" />
    <glyph glyph-name="integral" unicode="&#x222b;" horiz-adv-x="694" 
d="M565 1358q76 0 133 -15v-92h-131q-72 0 -104.5 -30.5t-32.5 -100.5v-1253q0 -129 -71.5 -201t-213.5 -72q-57 0 -133 17v92h131q72 0 106 30.5t34 100.5v1253q0 129 71.5 200t210.5 71z" />
    <glyph glyph-name="approxequal" unicode="&#x2248;" horiz-adv-x="1103" 
d="M273 360.5q-38 -18.5 -87 -67.5l-65 63q83 83 130 105t106 22t114 -19.5t115 -45.5q104 -51 153 -51q80 0 116.5 17t88.5 69l66 -68q-74 -74 -127.5 -99.5t-113.5 -25.5t-114.5 20t-105.5 44q-118 54 -178 55q-60 0 -98 -18.5zM855 765q37 17 89 69l66 -68l16 16v-30
l-16 14q-74 -74 -127.5 -99.5t-113.5 -25.5t-114.5 20.5t-105.5 44.5t-93 39t-78 15q-67 0 -105 -18.5t-87 -67.5l-65 63q81 81 131 105t107 24t112 -20.5t115 -46.5q104 -51 168 -51t101 17zM1010 385l16 14v-28z" />
    <glyph glyph-name="notequal" unicode="&#x2260;" horiz-adv-x="1099" 
d="M119 326v98h258l258 264h-516v103h600l217 229l61 -59l-161 -170h172v-103h-258l-252 -264h510v-98h-598l-215 -232q-30 24 -64 60l162 172h-174z" />
    <glyph glyph-name="lessequal" unicode="&#x2264;" horiz-adv-x="1196" 
d="M317 741l697 -350v-139l-836 414v149l836 414v-139zM1100 133v-133h-973v133h973z" />
    <glyph glyph-name="greaterequal" unicode="&#x2265;" horiz-adv-x="1196" 
d="M178 1229l836 -414v-149l-836 -414v139l696 350l-696 349v139zM1100 133v-133h-973v133h973z" />
    <glyph glyph-name="lozenge" unicode="&#x25ca;" horiz-adv-x="1329" 
d="M682 1317l-406 -582l406 -585l405 585zM682 1483l528 -748l-528 -745l-528 745z" />
    <glyph glyph-name="uni0E10.alt1" unicode="&#xf700;" horiz-adv-x="933" 
d="M512 117q143 0 203.5 35.5t60.5 89.5v123q0 90 -88 116l-403 82q-149 24 -187.5 101t-38.5 146q0 131 114.5 193t281.5 62h12q129 0 314 -57q30 -9 22 -29q-2 -6 -5 -24.5t-6 -31.5q-7 -29 -28 -22q-160 57 -285 57t-176 -17t-84 -49.5t-33 -77.5q0 -75 39 -105t119 -45
l348 -70q104 -27 146.5 -91.5t42.5 -142.5v-122q-6 -102 -63.5 -164.5t-264.5 -73.5h-107q-39 0 -49 35l-84 258q-6 16 -14 19t-25 3h-38q-14 0 -19.5 10.5t-0.5 42.5q6 42 28 42h127q17 0 22 -16q4 -16 18.5 -56.5t30 -86.5t29 -84t15.5 -44t26 -6z" />
    <glyph glyph-name="uni0E34.alt1" unicode="&#xf701;" 
d="M-1087 1300h649q10 0 18 -8t5 -23t-7 -37t-5 -26q-4 -18 -24 -18h-649q-10 0 -18 9t-4 23t8 36t8 33t19 11z" />
    <glyph glyph-name="uni0E35.alt1" unicode="&#xf702;" 
d="M-1118 1300h567q16 0 16 13v106q0 23 23 23h76q25 0 24 -23v-209q0 -23 -24 -22h-694q-10 0 -19 9q-8 9 -4 23t8 36q5 22 9 33t18 11z" />
    <glyph glyph-name="uni0E36.alt1" unicode="&#xf703;" 
d="M-547 1251q39 0 65.5 28t26.5 66t-26.5 65.5t-65.5 27.5t-66.5 -28t-27.5 -66t27.5 -65.5t66.5 -27.5zM-1212 1300h507q8 0 4 13.5t-4 32.5q0 66 45.5 110.5t111 44.5t111.5 -45t46 -105t-30 -102.5t-75 -52.5q-25 -8 -53 -8h-678q-10 0 -18 9t-4 23t8.5 36t8.5 33t20 11
z" />
    <glyph glyph-name="uni0E37.alt1" unicode="&#xf704;" 
d="M-1194 1300h465q12 0 12 11v106q0 23 23 23h43q25 0 24 -23v-104q0 -12 6 -13h76q10 0 10 15v102q0 23 23 23h76q25 0 24 -23v-205q0 -25 -24 -24h-770q-10 0 -18.5 9t-4.5 23t8.5 36t8.5 33t18 11z" />
    <glyph glyph-name="uni0E48.alt1" unicode="&#xf705;" 
d="M-545 1561q23 0 23 -23v-248q0 -23 -23 -22h-80q-23 0 -22 22v248q0 23 22 23h80z" />
    <glyph glyph-name="uni0E49.alt1" unicode="&#xf706;" 
d="M-395 1229h-412q-20 0 -24 22v111q0 18 -21 18h-82q-14 0 -19 12t-1 20q4 9 10 34l8 29q0 4 6 10t17 6h147q23 0 23 -23v-106q0 -20 20 -21h338q21 0 25 -26l-13 -66q0 -6 -5 -13t-17 -7z" />
    <glyph glyph-name="uni0E4A.alt1" unicode="&#xf707;" 
d="M-416 1526q0 -127 -58 -178t-136 -58q-19 0 -19 20q0 103 -65 118q-33 8 -43.5 -3.5t-21.5 -26.5t-23.5 -16.5t-22.5 15t-20.5 28t-40.5 4.5q-54 -12 -54 -88v-30q0 -21 -18 -21h-39q-16 0 -16 28q0 85 35 128q44 44 104 47q16 4 30.5 -14.5t25.5 -27.5t26 -1
q14 12 27.5 27.5t33.5 15.5q80 -4 121 -47q20 -25 27 -51q8 -25 6 -35q0 -11 27.5 15t27.5 77l-2 57q0 15 10 19t27 7t29 6t17 -4t5 -11z" />
    <glyph glyph-name="uni0E4B.alt1" unicode="&#xf708;" 
d="M-457 1479q16 0 17 -19v-30q0 -18 -17 -19h-88q-16 0 -18 -2t-2 -18v-78q0 -23 -23 -23h-67q-25 0 -25 23v78q0 16 -2 18t-18 2h-86q-18 0 -19 19v30q0 18 19 19h86q16 0 18 2t2 18v74q0 23 25 22h67q23 0 23 -22v-74q0 -16 2 -18t18 -2h88z" />
    <glyph glyph-name="uni0E4C.alt1" unicode="&#xf709;" 
d="M-799 1477q0 22 25 22h432q10 0 18 -8t0 -41t-8 -45q-10 -19 -22 -19h-344q-12 0 -13 -8v-43q0 -27 -26.5 -22.5t-43.5 9.5t-18 21v134z" />
    <glyph glyph-name="uni0E48.alt2" unicode="&#xf70a;" 
d="M-180 1556q23 0 22 -22v-248q0 -23 -22 -22h-80q-23 0 -23 22v248q0 23 23 22h80z" />
    <glyph glyph-name="uni0E49.alt2" unicode="&#xf70b;" 
d="M-4 1298q16 0 21 -10t3 -15t-3 -20t-5 -34t-9 -26t-17 -7h-412q-20 0 -25 22v111q0 18 -20 18h-82q-14 1 -20 11t-2 20q6 10 12 35l8 29q0 4 6 10t17 6h147q23 0 23 -23v-106q0 -20 20 -21h338z" />
    <glyph glyph-name="uni0E4A.alt2" unicode="&#xf70c;" 
d="M-145 1509q0 -215 -195 -233q-18 0 -18 19q0 105 -78 122q-20 4 -30 -7q-10 -10 -22 -26q-24 -34 -47 -2q-10 16 -20 28t-41 4q-53 -12 -53 -87v-31q0 -20 -19 -20h-39q-16 0 -16 28q0 85 35 128q41 41 104 47q16 3 30 -15t26 -27t26 1t28 25t34 16q80 -4 121 -47
q18 -23 26 -50q8 -26 6 -36q0 -11 27 15q27 25 29 77l-2 57q0 15 10 19q11 4 27 7t32 7t19 -19z" />
    <glyph glyph-name="uni0E4B.alt2" unicode="&#xf70d;" 
d="M-55 1477q16 0 16 -19v-31q0 -18 -16 -18h-88q-16 0 -18.5 -2t-2.5 -18v-78q0 -23 -22 -23h-68q-25 0 -25 23v78q0 16 -2 18t-18 2h-86q-18 0 -18 18v31q0 18 18 19h86q16 0 18 2t2 18v74q0 23 25 22h68q23 0 22 -22v-74q0 -16 2 -18t19 -2h88z" />
    <glyph glyph-name="uni0E4C.alt2" unicode="&#xf70e;" 
d="M-483 1354q0 22 24 22h363q10 0 18 -8t0 -38t-8 -48q-9 -18 -23 -18h-274q-12 0 -12 -9v-43q0 -27 -27 -22l-24 4t-24 7t-13 20v133z" />
    <glyph glyph-name="uni0E0D.alt1" unicode="&#xf70f;" horiz-adv-x="1660" 
d="M1599 1036q27 0 27 -26v-682q0 -237 -148 -292.5t-248 -54.5t-161 14t-117.5 33t-86.5 40q-29 20 -29 43v561q0 144 -97.5 200t-212.5 56t-186.5 -22t-89.5 -32t-23.5 -14t-5.5 -16v-709q0 -14 17 -14h81q27 0 23 -27l-10 -71q-4 -27 -31 -27h-178q-27 0 -27 27v899
q0 20 10.5 28t13.5 10q19 16 135.5 53t240.5 38q234 3 349.5 -103.5t115.5 -242.5v-517q0 -12 5 -16t23 -14q97 -54 224 -54t181 37t80.5 87.5t26.5 131.5v650q0 27 27 26h71z" />
    <glyph glyph-name="uni0E31.alt1" unicode="&#xf710;" 
d="M66 1417q26 0 22 -23t-8 -45t-5 -26q-4 -18 -24 -18h-571q-23 0 -23 24v131q0 10 7 16q8 6 12 8q4 1 16 3t24 5t20 -4q9 -7 9 -18v-45q0 -8 13 -8h508z" />
    <glyph glyph-name="uni0E4D.alt1" unicode="&#xf711;" 
d="M-500 1355q0 42 -29.5 72.5t-73.5 30.5t-74 -30.5t-30 -72.5t30 -72t74 -30t73.5 30t29.5 72zM-422 1356q0 -37 -14.5 -70t-39 -57.5t-57 -38.5t-69.5 -14t-71 14t-58.5 38.5t-38.5 57.5t-14 70t14 69.5t38.5 57t58.5 39t71 14.5t69.5 -14.5t57 -39t39 -57t14.5 -69.5z
" />
    <glyph glyph-name="uni0E47.alt1" unicode="&#xf712;" 
d="M-819 1493q-88 0 -88 -82q0 -35 14 -62.5t72 -27.5h63q63 0 111 45q17 18 27 16t37.5 -8t60.5 -14t62.5 -15.5t38.5 -9.5q24 -5 24 -22v-39q0 -10 -8.5 -18.5t-23.5 -4.5t-39 10.5t-67 17.5t-63 19q-21 8 -38 -10q-50 -53 -136 -53h-66q-64 0 -116 43.5t-52 120.5
q0 78 51.5 129t168.5 51h380q16 0 20.5 -11.5t2.5 -15.5t-2 -9t-6 -32q0 -18 -23 -18h-405z" />
    <glyph glyph-name="uni0E48.alt3" unicode="&#xf713;" 
d="M-430 1913q23 0 22 -23v-204q0 -23 -22 -23h-80q-23 0 -22 23v204q0 23 22 23h80z" />
    <glyph glyph-name="uni0E49.alt3" unicode="&#xf714;" 
d="M-106 1661h-412q-20 0 -25 22v111q0 18 -20 18h-82q-13 0 -19 12t-2 20q4 9 11 34l8 29q0 4 6 10t16 6h148q23 0 22 -22v-107q0 -20 21 -20h338q24 0 24 -27l-12 -66q0 -6 -5 -13t-17 -7z" />
    <glyph glyph-name="uni0E4A.alt3" unicode="&#xf715;" 
d="M-328 1907q0 -125 -59 -181q-57 -48 -135 -55q-19 -1 -19 19q0 104 -64 119q-33 7 -43 -4t-22 -26t-24.5 -16.5t-22.5 15t-20.5 28.5t-40.5 4q-52 -13 -53 -88v-30q0 -21 -19 -21h-39q-16 0 -16 28q0 85 35 128q44 44 104 47q16 4 30.5 -14.5t25.5 -27.5t26 -1
q14 12 27.5 27.5t33.5 15.5q80 -4 121 -47q20 -25 27 -51q8 -25 6 -35q0 -11 27.5 15t27.5 77l-2 57q0 16 10 20t27 6.5t29 5.5t17 -4t5 -11z" />
    <glyph glyph-name="uni0E4B.alt3" unicode="&#xf716;" 
d="M-307 1860q16 0 16 -19v-31q0 -18 -16 -18h-88q-16 0 -18.5 -2t-2.5 -18v-78q0 -23 -22 -23h-68q-25 0 -24 23v78q0 16 -2.5 18t-18.5 2h-86q-18 0 -18 18v31q0 18 18 19h86q16 0 18.5 2t2.5 18v74q0 23 24 22h68q23 0 22 -22v-74q0 -16 2 -18t19 -2h88z" />
    <glyph glyph-name="uni0E4C.alt3" unicode="&#xf717;" 
d="M-549 1866q0 22 25 22h432q10 0 18 -8t0 -38t-8 -48q-9 -18 -22 -18h-345q-12 0 -12 -9v-43q0 -27 -26 -22q-12 2 -37 6t-25 25v133z" />
    <glyph glyph-name="uni0E38.alt1" unicode="&#xf718;" 
d="M-233 -616q27 0 26 -27v-303q0 -23 -22 -23h-76q-25 0 -25 23v221q0 14 -16 14h-86q-27 0 -23 27l6 41q4 27 31 27h185z" />
    <glyph glyph-name="uni0E39.alt1" unicode="&#xf719;" 
d="M-227 -616q23 0 22 -23v-147q0 -96 -46 -151.5t-155 -55.5q-136 0 -170 69.5t-34 118.5v80q0 14 -17 14h-82q-27 0 -22 27l6 41q4 27 31 27h162q27 0 26 -27v-156q4 -55 23.5 -81.5t75.5 -26.5t77 28.5t21 92.5v147q0 23 22 23h60z" />
    <glyph glyph-name="uni0E3A.alt1" unicode="&#xf71a;" 
d="M-127 -734q0 -50 -36 -85t-89 -35t-90 35t-37 85t37 87t90 37t89 -37t36 -87z" />
    <glyph glyph-name="uni0E0E.alt1" unicode="&#xf71b;" horiz-adv-x="1083" 
d="M989 709v-928q0 -112 -71 -172q-31 -27 -70 -41q-14 -2 -22 1t-64.5 25.5t-115.5 29.5q-125 15 -204.5 6.5t-152.5 -64.5q-6 -4 -16.5 -4t-14.5 8l-16 20q-11 18 10 39q63 63 151.5 100.5t223.5 22.5q99 -15 190 -51q16 -6 31.5 13.5t15.5 37.5v924q0 145 -98 200.5
t-238 55.5q-141 0 -252 -53q-16 -10 -21 -14.5t-5 -16.5v-821q0 -27 -27 -27h-178q-27 0 -31 27l-10 71q-4 27 23 27h82q16 0 16 14v787q-1 26 23 39q35 20 143 54.5t233 35.5q233 3 349 -103t116 -243z" />
    <glyph glyph-name="uni0E0F.alt1" unicode="&#xf71c;" horiz-adv-x="1083" 
d="M588 -203l15 8q5 0 18 -4q20 -13 91 -47.5t85 -43.5t27 -9t25.5 17.5t12.5 33.5v924q0 145 -98 200.5t-238 55.5q-141 0 -252 -53q-16 -10 -21 -14.5t-5 -16.5v-821q0 -27 -27 -27h-178q-27 0 -31 27l-10 71q-4 27 23 27h81q16 0 17 14v787q0 24 23 39q25 17 138 53
t238 37q233 3 349 -103t116 -243v-928q0 -113 -72 -172q-49 -43 -72 -43q-22 0 -26 4l-170 94q-10 4 -15 7t-10 3t-26 -10q-149 -102 -346 -102q-16 0 -21.5 9t-3.5 17l4 37q7 21 23 21q108 0 206.5 53.5t129.5 97.5z" />
    <glyph glyph-name="uni0E2C.alt1" unicode="&#xf71d;" horiz-adv-x="1353" 
d="M162 1040h80q18 0 22 -20l115 -782l-6 -62l18 60q76 145 118 228t66.5 131t45 86t33 63.5t17.5 34.5t21.5 9t20.5 -9t17 -34.5t33.5 -63.5t45.5 -86t67 -131t119 -228l19 -60l-4 62l51 352q16 85 -54.5 121.5t-68.5 44.5t4 14t5 16t16 19q68 19 98.5 70t30.5 106v74
q0 18 19 22t39.5 7.5t43.5 5.5t23 -21v-59q0 -86 -33 -136.5t-84 -87.5q-14 -12 -11 -17t27 -31t51 -65.5t19 -103.5q-2 -16 -8.5 -64t-14.5 -108.5t-17 -127t-16.5 -122t-12.5 -91.5l-5 -36q-4 -20 -22 -20h-80q-14 0 -21 12l-20 39q-30 58 -92 174.5t-113 215.5t-55 108
q-4 8 -12.5 8t-12.5 -8t-25.5 -48t-52.5 -98.5t-66.5 -126t-66.5 -126t-52.5 -97.5t-24.5 -46t-19 -7h-78q-23 0 -23 20l-137 996q0 24 23 24z" />
    <glyph glyph-name="apple" unicode="&#xf8ff;" horiz-adv-x="1699" 
 />
    <glyph glyph-name="uni0E33.alt1" horiz-adv-x="780" 
d="M325 1049q209 0 293 -99.5t84 -238.5v-705q0 -6 -6 -6h-106q-6 0 -6 6v721q0 132 -86.5 176.5t-192.5 44.5t-164 -18q-59 -18 -77 -26t-21.5 -10.5t-7.5 1.5l-43 66q-4 4 2 8q45 20 129 50t202 30zM-616 1276q39 0 64.5 26.5t25.5 66.5t-26 67.5t-64 27.5t-66.5 -27.5
t-28.5 -67.5t28 -66.5t67 -26.5zM-618.5 1526q65.5 0 110.5 -46t45 -111.5t-45 -110t-110.5 -44.5t-111.5 44.5t-46 110t46 111.5t111.5 46z" />
    <glyph glyph-name="uni0E4E.alt1" 
 />
    </font>
</defs>
</svg>
